# MagicaVoxel @ Ephtracy

# group
g Voxels-13

# material
mtllib Voxels-13.mtl
usemtl palette

# normals
vn -1 0 0
vn 1 0 0
vn 0 0 1
vn 0 0 -1
vn 0 -1 0
vn 0 1 0

# texcoords
vt 0.126953 0.5
vt 0.130859 0.5
vt 0.158203 0.5
vt 0.162109 0.5
vt 0.166016 0.5
vt 0.169922 0.5
vt 0.173828 0.5

# verts
v -9 6 1.5
v -9 6 0.5
v -9 6 -0.5
v -9 6 -1.5
v -9 7 1.5
v -9 7 0.5
v -9 7 -0.5
v -9 7 -1.5
v -9 8 1.5
v -9 8 0.5
v -9 8 -0.5
v -9 8 -1.5
v -9 9 1.5
v -9 9 0.5
v -9 9 -0.5
v -9 9 -1.5
v -7 4 3.5
v -7 4 -3.5
v -7 5 -1.5
v -7 5 -3.5
v -7 6 1.5
v -7 6 -1.5
v -7 7 2.5
v -7 7 1.5
v -7 7 -1.5
v -7 7 -3.5
v -7 9 1.5
v -7 9 -1.5
v -7 11 3.5
v -7 11 2.5
v -7 11 -1.5
v -7 11 -3.5
v -6 3 3.5
v -6 3 -3.5
v -6 4 4.5
v -6 4 3.5
v -6 4 -3.5
v -6 4 -4.5
v -6 5 -3.5
v -6 7 -3.5
v -6 11 4.5
v -6 11 3.5
v -6 11 2.5
v -6 11 -1.5
v -6 11 -3.5
v -6 11 -4.5
v -6 12 3.5
v -6 12 -3.5
v -6 15 0.5
v -6 15 -1.5
v -6 18 0.5
v -6 18 -1.5
v -5 12 0.5
v -5 12 -1.5
v -5 15 0.5
v -5 15 -1.5
v -4 0 0.5
v -4 0 -1.5
v -4 1 0.5
v -4 1 -0.5
v -4 2 0.5
v -4 2 -0.5
v -4 2 -1.5
v -4 3 0.5
v -4 3 -0.5
v -3 8 4.5
v -3 8 3.5
v -3 10 4.5
v -3 10 3.5
v -2 12 1.5
v -2 12 0.5
v -2 16 0.5
v -2 17 0.5
v -2 17 -0.5
v -2 19 1.5
v -2 19 -0.5
v 2 5 4.5
v 2 5 3.5
v 2 6 4.5
v 2 6 3.5
v 2 7 4.5
v 2 7 3.5
v 2 12 -0.5
v 2 12 -1.5
v 2 16 -0.5
v 2 16 -1.5
v 3 1 3.5
v 3 1 1.5
v 3 2 3.5
v 3 2 1.5
v 3 2 -0.5
v 3 3 1.5
v 3 3 -0.5
v 3 16 0.5
v 3 16 -1.5
v 3 17 0.5
v 3 17 -1.5
v 4 8 4.5
v 4 8 3.5
v 4 10 4.5
v 4 10 3.5
v -4 8 4.5
v -4 8 3.5
v -4 10 4.5
v -4 10 3.5
v -3 0 0.5
v -3 0 -1.5
v -3 1 0.5
v -3 1 -0.5
v -3 2 0.5
v -3 2 -0.5
v -3 2 -1.5
v -3 3 0.5
v -3 3 -0.5
v -3 17 0.5
v -3 17 -1.5
v -3 18 0.5
v -3 18 -1.5
v -2 5 4.5
v -2 5 3.5
v -2 7 4.5
v -2 7 3.5
v -2 12 -0.5
v -2 12 -1.5
v -2 16 -0.5
v -2 16 -1.5
v -2 17 -0.5
v -2 17 -1.5
v 2 12 1.5
v 2 12 0.5
v 2 16 0.5
v 2 16 -0.5
v 2 17 1.5
v 2 17 -0.5
v 2 19 1.5
v 2 19 -0.5
v 3 8 4.5
v 3 8 3.5
v 3 10 4.5
v 3 10 3.5
v 4 1 3.5
v 4 1 1.5
v 4 2 3.5
v 4 2 1.5
v 4 2 -0.5
v 4 3 1.5
v 4 3 -0.5
v 5 12 0.5
v 5 12 -0.5
v 5 12 -1.5
v 5 14 0.5
v 5 14 -1.5
v 6 3 3.5
v 6 3 -3.5
v 6 4 4.5
v 6 4 3.5
v 6 4 -3.5
v 6 4 -4.5
v 6 11 4.5
v 6 11 3.5
v 6 11 -0.5
v 6 11 -3.5
v 6 11 -4.5
v 6 12 3.5
v 6 12 -0.5
v 6 12 -3.5
v 6 14 0.5
v 6 14 -1.5
v 6 15 0.5
v 6 15 -1.5
v 6 17 0.5
v 6 17 -1.5
v 7 4 3.5
v 7 4 -3.5
v 7 5 2.5
v 7 5 1.5
v 7 6 2.5
v 7 6 1.5
v 7 6 -1.5
v 7 9 1.5
v 7 9 -0.5
v 7 9 -1.5
v 7 10 1.5
v 7 10 -0.5
v 7 11 3.5
v 7 11 -3.5
v 9 6 1.5
v 9 6 0.5
v 9 6 -0.5
v 9 6 -1.5
v 9 7 1.5
v 9 7 0.5
v 9 7 -0.5
v 9 7 -1.5
v 9 8 1.5
v 9 8 0.5
v 9 8 -0.5
v 9 8 -1.5
v 9 9 1.5
v 9 9 0.5
v 9 9 -0.5
v 9 9 -1.5
v -6 4 4.5
v -6 11 4.5
v -5 5 4.5
v -5 7 4.5
v -4 8 4.5
v -4 10 4.5
v -3 5 4.5
v -3 7 4.5
v -3 8 4.5
v -3 10 4.5
v -2 5 4.5
v -2 7 4.5
v 1 7 4.5
v 1 10 4.5
v 2 5 4.5
v 2 6 4.5
v 2 7 4.5
v 3 8 4.5
v 3 10 4.5
v 4 8 4.5
v 4 10 4.5
v 5 6 4.5
v 5 10 4.5
v 6 4 4.5
v 6 11 4.5
v -7 4 3.5
v -7 11 3.5
v -6 3 3.5
v -6 4 3.5
v -6 11 3.5
v -6 12 3.5
v -5 11 3.5
v -5 12 3.5
v -4 8 3.5
v -4 10 3.5
v -3 8 3.5
v -3 10 3.5
v -2 5 3.5
v -2 7 3.5
v -1 5 3.5
v -1 6 3.5
v -1 11 3.5
v -1 12 3.5
v 1 7 3.5
v 2 5 3.5
v 2 6 3.5
v 2 7 3.5
v 3 1 3.5
v 3 2 3.5
v 3 8 3.5
v 3 10 3.5
v 4 1 3.5
v 4 2 3.5
v 4 8 3.5
v 4 10 3.5
v 6 3 3.5
v 6 4 3.5
v 6 11 3.5
v 6 12 3.5
v 7 4 3.5
v 7 11 3.5
v -9 6 1.5
v -9 7 1.5
v -9 8 1.5
v -9 9 1.5
v -8 7 1.5
v -8 8 1.5
v -7 6 1.5
v -7 7 1.5
v -7 9 1.5
v -2 12 1.5
v -2 19 1.5
v -1 12 1.5
v 0 12 1.5
v 0 18 1.5
v 0 19 1.5
v 1 17 1.5
v 1 18 1.5
v 2 12 1.5
v 2 17 1.5
v 2 19 1.5
v 3 2 1.5
v 3 3 1.5
v 4 2 1.5
v 4 3 1.5
v 7 6 1.5
v 7 9 1.5
v 8 7 1.5
v 8 8 1.5
v 9 6 1.5
v 9 7 1.5
v 9 8 1.5
v 9 9 1.5
v -6 15 0.5
v -6 18 0.5
v -5 12 0.5
v -5 15 0.5
v -4 0 0.5
v -4 1 0.5
v -4 2 0.5
v -4 3 0.5
v -4 17 0.5
v -4 18 0.5
v -3 0 0.5
v -3 1 0.5
v -3 2 0.5
v -3 3 0.5
v -3 16 0.5
v -3 17 0.5
v -3 18 0.5
v -2 12 0.5
v -2 16 0.5
v -2 17 0.5
v 2 12 0.5
v 2 16 0.5
v 3 16 0.5
v 3 17 0.5
v 4 16 0.5
v 4 17 0.5
v 5 12 0.5
v 5 14 0.5
v 5 15 0.5
v 5 16 0.5
v 6 14 0.5
v 6 15 0.5
v 6 17 0.5
v -4 1 -0.5
v -4 2 -0.5
v -3 1 -0.5
v -3 2 -0.5
v 3 1 1.5
v 3 2 1.5
v 4 1 1.5
v 4 2 1.5
v -4 2 -0.5
v -4 3 -0.5
v -3 2 -0.5
v -3 3 -0.5
v -2 12 -0.5
v -2 16 -0.5
v -2 17 -0.5
v -2 19 -0.5
v 0 18 -0.5
v 0 19 -0.5
v 1 17 -0.5
v 1 18 -0.5
v 2 12 -0.5
v 2 16 -0.5
v 2 17 -0.5
v 2 19 -0.5
v 3 2 -0.5
v 3 3 -0.5
v 4 2 -0.5
v 4 3 -0.5
v -9 6 -1.5
v -9 7 -1.5
v -9 8 -1.5
v -9 9 -1.5
v -8 7 -1.5
v -8 8 -1.5
v -7 6 -1.5
v -7 7 -1.5
v -7 9 -1.5
v -6 15 -1.5
v -6 18 -1.5
v -5 12 -1.5
v -5 15 -1.5
v -4 0 -1.5
v -4 2 -1.5
v -4 17 -1.5
v -4 18 -1.5
v -3 0 -1.5
v -3 2 -1.5
v -3 16 -1.5
v -3 17 -1.5
v -3 18 -1.5
v -2 12 -1.5
v -2 16 -1.5
v -2 17 -1.5
v 2 12 -1.5
v 2 16 -1.5
v 3 12 -1.5
v 3 16 -1.5
v 3 17 -1.5
v 4 16 -1.5
v 4 17 -1.5
v 5 12 -1.5
v 5 14 -1.5
v 5 15 -1.5
v 5 16 -1.5
v 6 14 -1.5
v 6 15 -1.5
v 6 17 -1.5
v 7 6 -1.5
v 7 9 -1.5
v 8 7 -1.5
v 8 8 -1.5
v 9 6 -1.5
v 9 7 -1.5
v 9 8 -1.5
v 9 9 -1.5
v -7 4 -3.5
v -7 5 -3.5
v -7 7 -3.5
v -7 11 -3.5
v -6 3 -3.5
v -6 4 -3.5
v -6 5 -3.5
v -6 7 -3.5
v -6 11 -3.5
v -6 12 -3.5
v -4 4 -3.5
v -2 4 -3.5
v 3 11 -3.5
v 3 12 -3.5
v 6 3 -3.5
v 6 4 -3.5
v 6 11 -3.5
v 6 12 -3.5
v 7 4 -3.5
v 7 11 -3.5
v -6 4 -4.5
v -6 11 -4.5
v -5 9 -4.5
v -5 10 -4.5
v -4 4 -4.5
v -4 6 -4.5
v -4 9 -4.5
v -4 10 -4.5
v -2 4 -4.5
v -2 6 -4.5
v 1 5 -4.5
v 1 8 -4.5
v 4 5 -4.5
v 4 8 -4.5
v 6 4 -4.5
v 6 11 -4.5
v -4 0 0.5
v -3 0 0.5
v -4 0 -1.5
v -3 0 -1.5
v 3 1 3.5
v 4 1 3.5
v 3 1 1.5
v 4 1 1.5
v 3 2 1.5
v 4 2 1.5
v -4 2 0.5
v -3 2 0.5
v -4 2 -0.5
v -3 2 -0.5
v 3 2 -0.5
v 4 2 -0.5
v -6 3 3.5
v 6 3 3.5
v 0 3 2.5
v 1 3 2.5
v -5 3 1.5
v -2 3 1.5
v 0 3 1.5
v 1 3 1.5
v 3 3 1.5
v 4 3 1.5
v -4 3 0.5
v -3 3 0.5
v -4 3 -0.5
v -3 3 -0.5
v 1 3 -0.5
v 3 3 -0.5
v 4 3 -0.5
v -5 3 -1.5
v -2 3 -1.5
v 1 3 -2.5
v 3 3 -2.5
v -6 3 -3.5
v 6 3 -3.5
v -6 4 4.5
v 6 4 4.5
v -7 4 3.5
v -6 4 3.5
v 6 4 3.5
v 7 4 3.5
v -7 4 -3.5
v -6 4 -3.5
v -4 4 -3.5
v -2 4 -3.5
v 6 4 -3.5
v 7 4 -3.5
v -6 4 -4.5
v -4 4 -4.5
v -2 4 -4.5
v 6 4 -4.5
v -9 6 1.5
v -7 6 1.5
v 7 6 1.5
v 9 6 1.5
v -9 6 0.5
v -8 6 0.5
v 8 6 0.5
v 9 6 0.5
v -9 6 -0.5
v -8 6 -0.5
v 8 6 -0.5
v 9 6 -0.5
v -9 6 -1.5
v -7 6 -1.5
v 7 6 -1.5
v 9 6 -1.5
v -2 7 4.5
v 1 7 4.5
v 2 7 4.5
v -2 7 3.5
v 1 7 3.5
v 2 7 3.5
v -4 10 4.5
v -3 10 4.5
v 3 10 4.5
v 4 10 4.5
v -4 10 3.5
v -3 10 3.5
v 3 10 3.5
v 4 10 3.5
v 5 14 0.5
v 6 14 0.5
v 5 14 -1.5
v 6 14 -1.5
v -6 15 0.5
v -5 15 0.5
v -6 15 -1.5
v -5 15 -1.5
v -4 1 0.5
v -3 1 0.5
v -4 1 -0.5
v -3 1 -0.5
v 3 2 3.5
v 4 2 3.5
v 3 2 1.5
v 4 2 1.5
v -4 2 -0.5
v -3 2 -0.5
v -4 2 -1.5
v -3 2 -1.5
v -2 5 4.5
v 2 5 4.5
v -2 5 3.5
v -1 5 3.5
v 2 5 3.5
v -4 8 4.5
v -3 8 4.5
v 3 8 4.5
v 4 8 4.5
v -4 8 3.5
v -3 8 3.5
v 3 8 3.5
v 4 8 3.5
v -9 9 1.5
v -7 9 1.5
v 7 9 1.5
v 9 9 1.5
v -9 9 0.5
v -8 9 0.5
v 8 9 0.5
v 9 9 0.5
v -9 9 -0.5
v -8 9 -0.5
v 7 9 -0.5
v 8 9 -0.5
v 9 9 -0.5
v -9 9 -1.5
v -7 9 -1.5
v 7 9 -1.5
v 9 9 -1.5
v -6 11 4.5
v 6 11 4.5
v -7 11 3.5
v -6 11 3.5
v -5 11 3.5
v -1 11 3.5
v 6 11 3.5
v 7 11 3.5
v -7 11 2.5
v -6 11 2.5
v 6 11 -0.5
v -7 11 -1.5
v -6 11 -1.5
v -7 11 -3.5
v -6 11 -3.5
v 3 11 -3.5
v 6 11 -3.5
v 7 11 -3.5
v -6 11 -4.5
v 6 11 -4.5
v -6 12 3.5
v -5 12 3.5
v -1 12 3.5
v 6 12 3.5
v 0 12 2.5
v 2 12 2.5
v -2 12 1.5
v -1 12 1.5
v 0 12 1.5
v 2 12 1.5
v -5 12 0.5
v -2 12 0.5
v 2 12 0.5
v 5 12 0.5
v -2 12 -0.5
v 2 12 -0.5
v 5 12 -0.5
v 6 12 -0.5
v -5 12 -1.5
v -2 12 -1.5
v 2 12 -1.5
v 3 12 -1.5
v 5 12 -1.5
v -6 12 -3.5
v 3 12 -3.5
v 6 12 -3.5
v 2 16 0.5
v 3 16 0.5
v 2 16 -0.5
v 2 16 -1.5
v 3 16 -1.5
v -3 17 0.5
v -2 17 0.5
v 3 17 0.5
v 4 17 0.5
v 6 17 0.5
v -2 17 -0.5
v -3 17 -1.5
v -2 17 -1.5
v 3 17 -1.5
v 4 17 -1.5
v 6 17 -1.5
v -6 18 0.5
v -4 18 0.5
v -3 18 0.5
v -6 18 -1.5
v -4 18 -1.5
v -3 18 -1.5
v -2 19 1.5
v 0 19 1.5
v 2 19 1.5
v -2 19 -0.5
v 0 19 -0.5
v 2 19 -0.5

# faces
f 5/5/1 2/5/1 1/5/1
f 6/6/1 3/6/1 2/6/1
f 6/5/1 2/5/1 5/5/1
f 7/5/1 4/5/1 3/5/1
f 7/6/1 3/6/1 6/6/1
f 8/5/1 4/5/1 7/5/1
f 9/6/1 6/6/1 5/6/1
f 9/6/1 7/6/1 6/6/1
f 9/6/1 8/6/1 7/6/1
f 10/6/1 8/6/1 9/6/1
f 11/6/1 8/6/1 10/6/1
f 12/6/1 8/6/1 11/6/1
f 13/5/1 10/5/1 9/5/1
f 14/6/1 11/6/1 10/6/1
f 14/5/1 10/5/1 13/5/1
f 15/5/1 12/5/1 11/5/1
f 15/6/1 11/6/1 14/6/1
f 16/5/1 12/5/1 15/5/1
f 19/3/1 18/3/1 17/3/1
f 20/3/1 18/3/1 19/3/1
f 21/3/1 19/3/1 17/3/1
f 22/4/1 20/4/1 19/4/1
f 22/3/1 19/3/1 21/3/1
f 23/3/1 21/3/1 17/3/1
f 24/3/1 21/3/1 23/3/1
f 25/4/1 20/4/1 22/4/1
f 26/4/1 20/4/1 25/4/1
f 27/4/1 24/4/1 23/4/1
f 28/3/1 26/3/1 25/3/1
f 29/3/1 23/3/1 17/3/1
f 30/4/1 28/4/1 27/4/1
f 30/3/1 23/3/1 29/3/1
f 30/4/1 27/4/1 23/4/1
f 31/3/1 26/3/1 28/3/1
f 31/4/1 28/4/1 30/4/1
f 32/3/1 26/3/1 31/3/1
f 36/3/1 34/3/1 33/3/1
f 37/3/1 34/3/1 36/3/1
f 39/3/1 38/3/1 37/3/1
f 40/3/1 38/3/1 39/3/1
f 41/3/1 36/3/1 35/3/1
f 42/3/1 36/3/1 41/3/1
f 45/3/1 38/3/1 40/3/1
f 46/3/1 38/3/1 45/3/1
f 47/3/1 44/3/1 43/3/1
f 47/3/1 45/3/1 44/3/1
f 47/3/1 43/3/1 42/3/1
f 48/3/1 45/3/1 47/3/1
f 51/5/1 50/5/1 49/5/1
f 52/5/1 50/5/1 51/5/1
f 55/5/1 54/5/1 53/5/1
f 56/5/1 54/5/1 55/5/1
f 59/3/1 58/3/1 57/3/1
f 60/3/1 58/3/1 59/3/1
f 62/3/1 58/3/1 60/3/1
f 63/3/1 58/3/1 62/3/1
f 64/3/1 62/3/1 61/3/1
f 65/3/1 62/3/1 64/3/1
f 68/3/1 67/3/1 66/3/1
f 69/3/1 67/3/1 68/3/1
f 72/5/1 71/5/1 70/5/1
f 73/5/1 72/5/1 70/5/1
f 75/5/1 73/5/1 70/5/1
f 75/5/1 74/5/1 73/5/1
f 76/5/1 74/5/1 75/5/1
f 79/3/1 78/3/1 77/3/1
f 80/3/1 78/3/1 79/3/1
f 81/4/1 80/4/1 79/4/1
f 82/4/1 80/4/1 81/4/1
f 85/5/1 84/5/1 83/5/1
f 86/5/1 84/5/1 85/5/1
f 89/3/1 88/3/1 87/3/1
f 90/3/1 88/3/1 89/3/1
f 92/3/1 91/3/1 90/3/1
f 93/3/1 91/3/1 92/3/1
f 96/5/1 95/5/1 94/5/1
f 97/5/1 95/5/1 96/5/1
f 100/4/1 99/4/1 98/4/1
f 101/4/1 99/4/1 100/4/1
f 102/3/2 103/3/2 104/3/2
f 104/3/2 103/3/2 105/3/2
f 106/3/2 107/3/2 108/3/2
f 108/3/2 107/3/2 109/3/2
f 109/3/2 107/3/2 111/3/2
f 111/3/2 107/3/2 112/3/2
f 110/3/2 111/3/2 113/3/2
f 113/3/2 111/3/2 114/3/2
f 115/6/2 116/6/2 117/6/2
f 117/6/2 116/6/2 118/6/2
f 119/3/2 120/3/2 121/3/2
f 121/3/2 120/3/2 122/3/2
f 123/5/2 124/5/2 125/5/2
f 125/5/2 124/5/2 126/5/2
f 125/6/2 126/6/2 127/6/2
f 127/6/2 126/6/2 128/6/2
f 129/5/2 130/5/2 131/5/2
f 129/5/2 131/5/2 133/5/2
f 131/5/2 132/5/2 133/5/2
f 133/5/2 132/5/2 134/5/2
f 133/6/2 134/6/2 135/6/2
f 135/6/2 134/6/2 136/6/2
f 137/4/2 138/4/2 139/4/2
f 139/4/2 138/4/2 140/4/2
f 141/3/2 142/3/2 143/3/2
f 143/3/2 142/3/2 144/3/2
f 144/3/2 145/3/2 146/3/2
f 146/3/2 145/3/2 147/3/2
f 148/5/2 149/5/2 151/5/2
f 149/5/2 150/5/2 151/5/2
f 151/5/2 150/5/2 152/5/2
f 153/3/2 154/3/2 156/3/2
f 156/3/2 154/3/2 157/3/2
f 155/3/2 156/3/2 159/3/2
f 159/3/2 156/3/2 160/3/2
f 157/3/2 158/3/2 162/3/2
f 162/3/2 158/3/2 163/3/2
f 160/3/2 161/3/2 164/3/2
f 161/4/2 162/4/2 165/4/2
f 164/3/2 161/3/2 165/3/2
f 165/4/2 162/4/2 166/4/2
f 167/5/2 168/5/2 169/5/2
f 169/5/2 168/5/2 170/5/2
f 169/6/2 170/6/2 171/6/2
f 171/6/2 170/6/2 172/6/2
f 173/3/2 174/3/2 175/3/2
f 175/3/2 174/3/2 176/3/2
f 173/3/2 175/3/2 177/3/2
f 175/4/2 176/4/2 177/4/2
f 176/3/2 174/3/2 178/3/2
f 177/4/2 176/4/2 178/4/2
f 178/3/2 174/3/2 179/3/2
f 177/3/2 178/3/2 180/3/2
f 179/3/2 174/3/2 182/3/2
f 180/4/2 181/4/2 183/4/2
f 177/3/2 180/3/2 183/3/2
f 181/3/2 182/3/2 184/3/2
f 183/4/2 181/4/2 184/4/2
f 173/3/2 177/3/2 185/3/2
f 177/3/2 183/3/2 185/3/2
f 183/3/2 184/3/2 185/3/2
f 184/3/2 182/3/2 186/3/2
f 185/3/2 184/3/2 186/3/2
f 182/3/2 174/3/2 186/3/2
f 187/5/2 188/5/2 191/5/2
f 188/6/2 189/6/2 192/6/2
f 191/5/2 188/5/2 192/5/2
f 189/5/2 190/5/2 193/5/2
f 192/6/2 189/6/2 193/6/2
f 193/5/2 190/5/2 194/5/2
f 191/6/2 192/6/2 195/6/2
f 192/6/2 193/6/2 195/6/2
f 193/6/2 194/6/2 195/6/2
f 195/6/2 194/6/2 196/6/2
f 196/6/2 194/6/2 197/6/2
f 197/6/2 194/6/2 198/6/2
f 195/5/2 196/5/2 199/5/2
f 196/6/2 197/6/2 200/6/2
f 199/5/2 196/5/2 200/5/2
f 197/5/2 198/5/2 201/5/2
f 200/6/2 197/6/2 201/6/2
f 201/5/2 198/5/2 202/5/2
f 205/3/3 204/3/3 203/3/3
f 206/3/3 204/3/3 205/3/3
f 207/3/3 204/3/3 206/3/3
f 208/3/3 204/3/3 207/3/3
f 209/3/3 205/3/3 203/3/3
f 209/4/3 206/4/3 205/4/3
f 210/3/3 207/3/3 206/3/3
f 210/4/3 206/4/3 209/4/3
f 211/3/3 207/3/3 210/3/3
f 212/3/3 204/3/3 208/3/3
f 213/3/3 211/3/3 210/3/3
f 213/3/3 212/3/3 211/3/3
f 213/3/3 209/3/3 203/3/3
f 213/3/3 210/3/3 209/3/3
f 214/3/3 212/3/3 213/3/3
f 215/3/3 212/3/3 214/3/3
f 216/3/3 204/3/3 212/3/3
f 216/3/3 212/3/3 215/3/3
f 217/3/3 213/3/3 203/3/3
f 219/4/3 216/4/3 215/4/3
f 220/4/3 216/4/3 219/4/3
f 220/4/3 219/4/3 218/4/3
f 221/3/3 204/3/3 216/3/3
f 221/4/3 216/4/3 220/4/3
f 222/4/3 220/4/3 218/4/3
f 223/3/3 204/3/3 221/3/3
f 224/4/3 222/4/3 218/4/3
f 224/4/3 223/4/3 222/4/3
f 224/3/3 218/3/3 217/3/3
f 225/3/3 204/3/3 223/3/3
f 225/4/3 223/4/3 224/4/3
f 226/3/3 224/3/3 217/3/3
f 226/3/3 217/3/3 203/3/3
f 226/3/3 225/3/3 224/3/3
f 227/3/3 204/3/3 225/3/3
f 227/3/3 225/3/3 226/3/3
f 231/3/3 229/3/3 228/3/3
f 232/3/3 229/3/3 231/3/3
f 234/3/3 233/3/3 232/3/3
f 235/3/3 233/3/3 234/3/3
f 238/7/3 237/7/3 236/7/3
f 239/7/3 237/7/3 238/7/3
f 242/1/3 241/1/3 240/1/3
f 243/1/3 241/1/3 242/1/3
f 244/4/3 235/4/3 234/4/3
f 245/4/3 235/4/3 244/4/3
f 246/1/3 241/1/3 243/1/3
f 247/2/3 243/2/3 242/2/3
f 248/1/3 246/1/3 243/1/3
f 248/2/3 243/2/3 247/2/3
f 249/1/3 246/1/3 248/1/3
f 254/3/3 251/3/3 250/3/3
f 255/3/3 251/3/3 254/3/3
f 256/7/3 253/7/3 252/7/3
f 257/7/3 253/7/3 256/7/3
f 258/3/3 231/3/3 230/3/3
f 259/3/3 231/3/3 258/3/3
f 260/3/3 245/3/3 244/3/3
f 261/3/3 245/3/3 260/3/3
f 262/3/3 260/3/3 259/3/3
f 263/3/3 260/3/3 262/3/3
f 268/5/3 265/5/3 264/5/3
f 268/6/3 266/6/3 265/6/3
f 269/5/3 267/5/3 266/5/3
f 269/6/3 266/6/3 268/6/3
f 270/5/3 268/5/3 264/5/3
f 270/5/3 269/5/3 268/5/3
f 271/5/3 269/5/3 270/5/3
f 272/5/3 267/5/3 269/5/3
f 272/5/3 269/5/3 271/5/3
f 275/5/3 274/5/3 273/5/3
f 276/5/3 274/5/3 275/5/3
f 277/5/3 274/5/3 276/5/3
f 278/5/3 274/5/3 277/5/3
f 279/5/3 277/5/3 276/5/3
f 280/6/3 278/6/3 277/6/3
f 280/5/3 277/5/3 279/5/3
f 281/5/3 279/5/3 276/5/3
f 282/6/3 280/6/3 279/6/3
f 282/5/3 279/5/3 281/5/3
f 283/6/3 278/6/3 280/6/3
f 283/6/3 280/6/3 282/6/3
f 286/3/3 285/3/3 284/3/3
f 287/3/3 285/3/3 286/3/3
f 290/5/3 289/5/3 288/5/3
f 291/5/3 289/5/3 290/5/3
f 292/5/3 290/5/3 288/5/3
f 293/6/3 291/6/3 290/6/3
f 293/5/3 290/5/3 292/5/3
f 294/5/3 289/5/3 291/5/3
f 294/6/3 291/6/3 293/6/3
f 295/5/3 289/5/3 294/5/3
f 299/5/3 297/5/3 296/5/3
f 304/5/3 297/5/3 299/5/3
f 304/5/3 299/5/3 298/5/3
f 305/5/3 297/5/3 304/5/3
f 306/3/3 301/3/3 300/3/3
f 307/3/3 301/3/3 306/3/3
f 308/3/3 303/3/3 302/3/3
f 309/3/3 303/3/3 308/3/3
f 310/5/3 304/5/3 298/5/3
f 311/6/3 305/6/3 304/6/3
f 311/5/3 304/5/3 310/5/3
f 312/6/3 305/6/3 311/6/3
f 313/5/3 310/5/3 298/5/3
f 314/6/3 311/6/3 310/6/3
f 314/5/3 310/5/3 313/5/3
f 315/6/3 311/6/3 314/6/3
f 318/5/3 317/5/3 316/5/3
f 320/5/3 318/5/3 316/5/3
f 320/5/3 319/5/3 318/5/3
f 321/5/3 319/5/3 320/5/3
f 322/5/3 320/5/3 316/5/3
f 323/5/3 320/5/3 322/5/3
f 324/5/3 320/5/3 323/5/3
f 325/6/3 321/6/3 320/6/3
f 325/5/3 320/5/3 324/5/3
f 326/5/3 324/5/3 323/5/3
f 327/6/3 325/6/3 324/6/3
f 327/5/3 324/5/3 326/5/3
f 328/6/3 321/6/3 325/6/3
f 328/6/3 325/6/3 327/6/3
f 331/3/3 330/3/3 329/3/3
f 332/3/3 330/3/3 331/3/3
f 333/3/4 334/3/4 335/3/4
f 335/3/4 334/3/4 336/3/4
f 337/3/4 338/3/4 339/3/4
f 339/3/4 338/3/4 340/3/4
f 341/5/4 342/5/4 345/5/4
f 343/5/4 344/5/4 345/5/4
f 342/5/4 343/5/4 345/5/4
f 345/5/4 344/5/4 346/5/4
f 341/5/4 345/5/4 347/5/4
f 345/6/4 346/6/4 348/6/4
f 347/5/4 345/5/4 348/5/4
f 341/5/4 347/5/4 349/5/4
f 349/5/4 347/5/4 350/5/4
f 347/6/4 348/6/4 351/6/4
f 350/5/4 347/5/4 351/5/4
f 348/6/4 346/6/4 352/6/4
f 351/6/4 348/6/4 352/6/4
f 353/3/4 354/3/4 355/3/4
f 355/3/4 354/3/4 356/3/4
f 357/5/4 358/5/4 361/5/4
f 358/6/4 359/6/4 361/6/4
f 359/5/4 360/5/4 362/5/4
f 361/6/4 359/6/4 362/6/4
f 357/5/4 361/5/4 363/5/4
f 361/5/4 362/5/4 363/5/4
f 363/5/4 362/5/4 364/5/4
f 362/5/4 360/5/4 365/5/4
f 364/5/4 362/5/4 365/5/4
f 366/5/4 367/5/4 369/5/4
f 369/5/4 367/5/4 372/5/4
f 368/5/4 369/5/4 372/5/4
f 372/5/4 367/5/4 373/5/4
f 370/3/4 371/3/4 374/3/4
f 374/3/4 371/3/4 375/3/4
f 368/5/4 372/5/4 376/5/4
f 372/6/4 373/6/4 377/6/4
f 376/5/4 372/5/4 377/5/4
f 377/6/4 373/6/4 378/6/4
f 368/5/4 376/5/4 379/5/4
f 376/6/4 377/6/4 380/6/4
f 379/5/4 376/5/4 380/5/4
f 380/6/4 377/6/4 381/6/4
f 382/5/4 383/5/4 384/5/4
f 384/5/4 383/5/4 385/5/4
f 384/5/4 385/5/4 387/5/4
f 385/5/4 386/5/4 387/5/4
f 387/5/4 386/5/4 388/5/4
f 384/5/4 387/5/4 389/5/4
f 389/5/4 387/5/4 390/5/4
f 390/5/4 387/5/4 391/5/4
f 387/6/4 388/6/4 392/6/4
f 391/5/4 387/5/4 392/5/4
f 390/5/4 391/5/4 393/5/4
f 391/6/4 392/6/4 394/6/4
f 393/5/4 391/5/4 394/5/4
f 392/6/4 388/6/4 395/6/4
f 394/6/4 392/6/4 395/6/4
f 396/5/4 397/5/4 398/5/4
f 398/5/4 397/5/4 399/5/4
f 396/5/4 398/5/4 400/5/4
f 398/6/4 399/6/4 401/6/4
f 400/5/4 398/5/4 401/5/4
f 399/5/4 397/5/4 402/5/4
f 401/6/4 399/6/4 402/6/4
f 402/5/4 397/5/4 403/5/4
f 404/3/4 405/3/4 409/3/4
f 405/4/4 406/4/4 410/4/4
f 409/3/4 405/3/4 410/3/4
f 406/3/4 407/3/4 411/3/4
f 410/4/4 406/4/4 411/4/4
f 411/3/4 407/3/4 412/3/4
f 408/3/4 409/3/4 414/3/4
f 408/3/4 414/3/4 415/3/4
f 412/3/4 413/3/4 416/3/4
f 416/3/4 413/3/4 417/3/4
f 408/3/4 415/3/4 418/3/4
f 418/3/4 415/3/4 419/3/4
f 416/4/4 417/4/4 420/4/4
f 420/4/4 417/4/4 421/4/4
f 419/3/4 420/3/4 422/3/4
f 422/3/4 420/3/4 423/3/4
f 424/3/4 425/3/4 426/3/4
f 426/3/4 425/3/4 427/3/4
f 424/3/4 426/3/4 428/3/4
f 428/3/4 426/3/4 429/3/4
f 426/4/4 427/4/4 430/4/4
f 429/3/4 426/3/4 430/3/4
f 427/3/4 425/3/4 431/3/4
f 430/4/4 427/4/4 431/4/4
f 428/4/4 429/4/4 432/4/4
f 429/3/4 430/3/4 433/3/4
f 432/4/4 429/4/4 433/4/4
f 430/3/4 431/3/4 433/3/4
f 432/3/4 433/3/4 434/3/4
f 433/3/4 431/3/4 435/3/4
f 434/3/4 433/3/4 435/3/4
f 432/3/4 434/3/4 436/3/4
f 434/4/4 435/4/4 436/4/4
f 435/3/4 431/3/4 437/3/4
f 436/4/4 435/4/4 437/4/4
f 432/3/4 436/3/4 438/3/4
f 436/3/4 437/3/4 438/3/4
f 431/3/4 425/3/4 439/3/4
f 438/3/4 437/3/4 439/3/4
f 437/3/4 431/3/4 439/3/4
f 442/3/5 441/3/5 440/3/5
f 443/3/5 441/3/5 442/3/5
f 446/3/5 445/3/5 444/3/5
f 447/3/5 445/3/5 446/3/5
f 452/3/5 451/3/5 450/3/5
f 453/3/5 451/3/5 452/3/5
f 454/3/5 449/3/5 448/3/5
f 455/3/5 449/3/5 454/3/5
f 458/3/5 457/3/5 456/3/5
f 459/3/5 457/3/5 458/3/5
f 460/3/5 458/3/5 456/3/5
f 461/3/5 458/3/5 460/3/5
f 462/4/5 459/4/5 458/4/5
f 462/3/5 458/3/5 461/3/5
f 463/3/5 457/3/5 459/3/5
f 463/4/5 459/4/5 462/4/5
f 464/3/5 457/3/5 463/3/5
f 465/3/5 457/3/5 464/3/5
f 466/4/5 461/4/5 460/4/5
f 467/4/5 461/4/5 466/4/5
f 468/4/5 466/4/5 460/4/5
f 469/4/5 461/4/5 467/4/5
f 470/3/5 462/3/5 461/3/5
f 470/3/5 463/3/5 462/3/5
f 470/3/5 464/3/5 463/3/5
f 471/3/5 464/3/5 470/3/5
f 472/3/5 457/3/5 465/3/5
f 473/4/5 469/4/5 468/4/5
f 473/3/5 460/3/5 456/3/5
f 473/4/5 468/4/5 460/4/5
f 474/4/5 461/4/5 469/4/5
f 474/4/5 469/4/5 473/4/5
f 474/3/5 470/3/5 461/3/5
f 475/4/5 471/4/5 470/4/5
f 475/3/5 470/3/5 474/3/5
f 475/3/5 474/3/5 473/3/5
f 476/3/5 472/3/5 471/3/5
f 476/4/5 471/4/5 475/4/5
f 477/3/5 475/3/5 473/3/5
f 477/3/5 473/3/5 456/3/5
f 477/3/5 476/3/5 475/3/5
f 478/3/5 472/3/5 476/3/5
f 478/3/5 476/3/5 477/3/5
f 478/3/5 457/3/5 472/3/5
f 482/3/5 480/3/5 479/3/5
f 483/3/5 480/3/5 482/3/5
f 485/3/5 482/3/5 481/3/5
f 486/3/5 482/3/5 485/3/5
f 489/3/5 484/3/5 483/3/5
f 490/3/5 484/3/5 489/3/5
f 491/3/5 487/3/5 486/3/5
f 492/4/5 488/4/5 487/4/5
f 492/3/5 487/3/5 491/3/5
f 493/3/5 489/3/5 488/3/5
f 493/4/5 488/4/5 492/4/5
f 494/3/5 489/3/5 493/3/5
f 499/5/5 496/5/5 495/5/5
f 500/5/5 496/5/5 499/5/5
f 501/5/5 498/5/5 497/5/5
f 502/5/5 498/5/5 501/5/5
f 503/6/5 500/6/5 499/6/5
f 504/5/5 496/5/5 500/5/5
f 504/6/5 500/6/5 503/6/5
f 505/5/5 501/5/5 497/5/5
f 505/6/5 502/6/5 501/6/5
f 506/6/5 502/6/5 505/6/5
f 507/5/5 504/5/5 503/5/5
f 508/5/5 496/5/5 504/5/5
f 508/5/5 504/5/5 507/5/5
f 509/5/5 505/5/5 497/5/5
f 509/5/5 506/5/5 505/5/5
f 510/5/5 506/5/5 509/5/5
f 514/3/5 512/3/5 511/3/5
f 515/4/5 513/4/5 512/4/5
f 515/3/5 512/3/5 514/3/5
f 516/4/5 513/4/5 515/4/5
f 521/3/5 518/3/5 517/3/5
f 522/3/5 518/3/5 521/3/5
f 523/3/5 520/3/5 519/3/5
f 524/3/5 520/3/5 523/3/5
f 527/5/5 526/5/5 525/5/5
f 528/5/5 526/5/5 527/5/5
f 531/5/5 530/5/5 529/5/5
f 532/5/5 530/5/5 531/5/5
f 533/3/6 534/3/6 535/3/6
f 535/3/6 534/3/6 536/3/6
f 537/3/6 538/3/6 539/3/6
f 539/3/6 538/3/6 540/3/6
f 541/3/6 542/3/6 543/3/6
f 543/3/6 542/3/6 544/3/6
f 545/3/6 546/3/6 547/3/6
f 547/3/6 546/3/6 548/3/6
f 548/3/6 546/3/6 549/3/6
f 550/3/6 551/3/6 554/3/6
f 554/3/6 551/3/6 555/3/6
f 552/4/6 553/4/6 556/4/6
f 556/4/6 553/4/6 557/4/6
f 558/5/6 559/5/6 562/5/6
f 562/5/6 559/5/6 563/5/6
f 560/5/6 561/5/6 564/5/6
f 564/5/6 561/5/6 565/5/6
f 562/6/6 563/6/6 566/6/6
f 563/5/6 559/5/6 567/5/6
f 566/6/6 563/6/6 567/6/6
f 560/5/6 564/5/6 568/5/6
f 564/6/6 565/6/6 569/6/6
f 568/5/6 564/5/6 569/5/6
f 569/6/6 565/6/6 570/6/6
f 566/5/6 567/5/6 571/5/6
f 567/5/6 559/5/6 572/5/6
f 571/5/6 567/5/6 572/5/6
f 568/5/6 569/5/6 573/5/6
f 569/5/6 570/5/6 573/5/6
f 573/5/6 570/5/6 574/5/6
f 575/3/6 576/3/6 578/3/6
f 578/3/6 576/3/6 579/3/6
f 579/3/6 576/3/6 580/3/6
f 580/3/6 576/3/6 581/3/6
f 577/3/6 578/3/6 583/3/6
f 583/3/6 578/3/6 584/3/6
f 581/3/6 582/3/6 585/3/6
f 583/4/6 584/4/6 586/4/6
f 586/4/6 584/4/6 587/4/6
f 586/3/6 587/3/6 588/3/6
f 588/3/6 587/3/6 589/3/6
f 585/3/6 582/3/6 591/3/6
f 591/3/6 582/3/6 592/3/6
f 589/3/6 590/3/6 593/3/6
f 590/3/6 591/3/6 593/3/6
f 593/3/6 591/3/6 594/3/6
f 597/3/6 598/3/6 599/3/6
f 599/3/6 598/3/6 600/3/6
f 596/4/6 597/4/6 601/4/6
f 597/3/6 599/3/6 602/3/6
f 601/4/6 597/4/6 602/4/6
f 599/4/6 600/4/6 603/4/6
f 602/3/6 599/3/6 603/3/6
f 600/3/6 598/3/6 604/3/6
f 603/4/6 600/4/6 604/4/6
f 595/3/6 596/3/6 605/3/6
f 596/4/6 601/4/6 605/4/6
f 605/4/6 601/4/6 606/4/6
f 604/3/6 598/3/6 607/3/6
f 607/3/6 598/3/6 608/3/6
f 608/3/6 598/3/6 611/3/6
f 611/3/6 598/3/6 612/3/6
f 595/3/6 605/3/6 613/3/6
f 609/3/6 610/3/6 614/3/6
f 614/3/6 610/3/6 615/3/6
f 611/4/6 612/4/6 617/4/6
f 595/3/6 613/3/6 618/3/6
f 615/3/6 616/3/6 618/3/6
f 613/3/6 614/3/6 618/3/6
f 614/3/6 615/3/6 618/3/6
f 616/4/6 617/4/6 619/4/6
f 618/3/6 616/3/6 619/3/6
f 617/4/6 612/4/6 620/4/6
f 619/4/6 617/4/6 620/4/6
f 621/5/6 622/5/6 623/5/6
f 623/5/6 622/5/6 624/5/6
f 624/5/6 622/5/6 625/5/6
f 626/6/6 627/6/6 631/6/6
f 626/6/6 631/6/6 632/6/6
f 632/6/6 631/6/6 633/6/6
f 628/5/6 629/5/6 634/5/6
f 629/6/6 630/6/6 635/6/6
f 634/5/6 629/5/6 635/5/6
f 635/6/6 630/6/6 636/6/6
f 637/5/6 638/5/6 640/5/6
f 638/6/6 639/6/6 641/6/6
f 640/5/6 638/5/6 641/5/6
f 641/6/6 639/6/6 642/6/6
f 643/5/6 644/5/6 646/5/6
f 644/6/6 645/6/6 647/6/6
f 646/5/6 644/5/6 647/5/6
f 647/6/6 645/6/6 648/6/6
