# MagicaVoxel @ Ephtracy

# group
g Voxels-14

# material
mtllib Voxels-14.mtl
usemtl palette

# normals
vn -1 0 0
vn 1 0 0
vn 0 0 1
vn 0 0 -1
vn 0 -1 0
vn 0 1 0

# texcoords
vt 0.126953 0.5
vt 0.130859 0.5
vt 0.158203 0.5
vt 0.162109 0.5
vt 0.166016 0.5
vt 0.169922 0.5
vt 0.173828 0.5

# verts
v -9 6 1.5
v -9 6 0.5
v -9 6 -0.5
v -9 6 -1.5
v -9 7 1.5
v -9 7 0.5
v -9 7 -0.5
v -9 7 -1.5
v -9 8 1.5
v -9 8 0.5
v -9 8 -0.5
v -9 8 -1.5
v -9 9 1.5
v -9 9 0.5
v -9 9 -0.5
v -9 9 -1.5
v -7 4 3.5
v -7 4 -3.5
v -7 5 -1.5
v -7 5 -3.5
v -7 6 1.5
v -7 6 -1.5
v -7 7 2.5
v -7 7 1.5
v -7 7 -1.5
v -7 7 -3.5
v -7 9 1.5
v -7 9 -1.5
v -7 11 3.5
v -7 11 2.5
v -7 11 -1.5
v -7 11 -3.5
v -6 3 3.5
v -6 3 -3.5
v -6 4 4.5
v -6 4 3.5
v -6 4 -3.5
v -6 4 -4.5
v -6 5 -3.5
v -6 7 -3.5
v -6 11 4.5
v -6 11 3.5
v -6 11 2.5
v -6 11 -1.5
v -6 11 -3.5
v -6 11 -4.5
v -6 12 3.5
v -6 12 -3.5
v -6 15 0.5
v -6 15 -1.5
v -6 18 0.5
v -6 18 -1.5
v -5 12 0.5
v -5 12 -1.5
v -5 15 0.5
v -5 15 -1.5
v -4 1 -0.5
v -4 1 -2.5
v -4 2 0.5
v -4 2 -0.5
v -4 2 -1.5
v -4 2 -2.5
v -4 3 0.5
v -4 3 -1.5
v -3 8 4.5
v -3 8 3.5
v -3 10 4.5
v -3 10 3.5
v -2 12 1.5
v -2 12 0.5
v -2 16 0.5
v -2 17 0.5
v -2 17 -0.5
v -2 19 1.5
v -2 19 -0.5
v 2 5 4.5
v 2 5 3.5
v 2 6 4.5
v 2 6 3.5
v 2 7 4.5
v 2 7 3.5
v 2 12 -0.5
v 2 12 -1.5
v 2 16 -0.5
v 2 16 -1.5
v 3 0 2.5
v 3 0 0.5
v 3 1 2.5
v 3 1 1.5
v 3 2 1.5
v 3 2 0.5
v 3 2 -0.5
v 3 3 0.5
v 3 3 -0.5
v 3 16 0.5
v 3 16 -1.5
v 3 17 0.5
v 3 17 -1.5
v 4 8 4.5
v 4 8 3.5
v 4 10 4.5
v 4 10 3.5
v -4 8 4.5
v -4 8 3.5
v -4 10 4.5
v -4 10 3.5
v -3 1 -0.5
v -3 1 -2.5
v -3 2 0.5
v -3 2 -0.5
v -3 2 -1.5
v -3 2 -2.5
v -3 3 0.5
v -3 3 -1.5
v -3 17 0.5
v -3 17 -1.5
v -3 18 0.5
v -3 18 -1.5
v -2 5 4.5
v -2 5 3.5
v -2 7 4.5
v -2 7 3.5
v -2 12 -0.5
v -2 12 -1.5
v -2 16 -0.5
v -2 16 -1.5
v -2 17 -0.5
v -2 17 -1.5
v 2 12 1.5
v 2 12 0.5
v 2 16 0.5
v 2 16 -0.5
v 2 17 1.5
v 2 17 -0.5
v 2 19 1.5
v 2 19 -0.5
v 3 8 4.5
v 3 8 3.5
v 3 10 4.5
v 3 10 3.5
v 4 0 2.5
v 4 0 0.5
v 4 1 2.5
v 4 1 1.5
v 4 2 1.5
v 4 2 0.5
v 4 2 -0.5
v 4 3 0.5
v 4 3 -0.5
v 5 12 0.5
v 5 12 -0.5
v 5 12 -1.5
v 5 14 0.5
v 5 14 -1.5
v 6 3 3.5
v 6 3 -3.5
v 6 4 4.5
v 6 4 3.5
v 6 4 -3.5
v 6 4 -4.5
v 6 11 4.5
v 6 11 3.5
v 6 11 -0.5
v 6 11 -3.5
v 6 11 -4.5
v 6 12 3.5
v 6 12 -0.5
v 6 12 -3.5
v 6 14 0.5
v 6 14 -1.5
v 6 15 0.5
v 6 15 -1.5
v 6 17 0.5
v 6 17 -1.5
v 7 4 3.5
v 7 4 -3.5
v 7 5 2.5
v 7 5 1.5
v 7 6 2.5
v 7 6 1.5
v 7 6 -1.5
v 7 9 1.5
v 7 9 -0.5
v 7 9 -1.5
v 7 10 1.5
v 7 10 -0.5
v 7 11 3.5
v 7 11 -3.5
v 9 6 1.5
v 9 6 0.5
v 9 6 -0.5
v 9 6 -1.5
v 9 7 1.5
v 9 7 0.5
v 9 7 -0.5
v 9 7 -1.5
v 9 8 1.5
v 9 8 0.5
v 9 8 -0.5
v 9 8 -1.5
v 9 9 1.5
v 9 9 0.5
v 9 9 -0.5
v 9 9 -1.5
v -6 4 4.5
v -6 11 4.5
v -5 5 4.5
v -5 7 4.5
v -4 8 4.5
v -4 10 4.5
v -3 5 4.5
v -3 7 4.5
v -3 8 4.5
v -3 10 4.5
v -2 5 4.5
v -2 7 4.5
v 1 7 4.5
v 1 10 4.5
v 2 5 4.5
v 2 6 4.5
v 2 7 4.5
v 3 8 4.5
v 3 10 4.5
v 4 8 4.5
v 4 10 4.5
v 5 6 4.5
v 5 10 4.5
v 6 4 4.5
v 6 11 4.5
v -7 4 3.5
v -7 11 3.5
v -6 3 3.5
v -6 4 3.5
v -6 11 3.5
v -6 12 3.5
v -5 11 3.5
v -5 12 3.5
v -4 8 3.5
v -4 10 3.5
v -3 8 3.5
v -3 10 3.5
v -2 5 3.5
v -2 7 3.5
v -1 5 3.5
v -1 6 3.5
v -1 11 3.5
v -1 12 3.5
v 1 7 3.5
v 2 5 3.5
v 2 6 3.5
v 2 7 3.5
v 3 8 3.5
v 3 10 3.5
v 4 8 3.5
v 4 10 3.5
v 6 3 3.5
v 6 4 3.5
v 6 11 3.5
v 6 12 3.5
v 7 4 3.5
v 7 11 3.5
v 3 0 2.5
v 3 1 2.5
v 4 0 2.5
v 4 1 2.5
v -9 6 1.5
v -9 7 1.5
v -9 8 1.5
v -9 9 1.5
v -8 7 1.5
v -8 8 1.5
v -7 6 1.5
v -7 7 1.5
v -7 9 1.5
v -2 12 1.5
v -2 19 1.5
v -1 12 1.5
v 0 12 1.5
v 0 18 1.5
v 0 19 1.5
v 1 17 1.5
v 1 18 1.5
v 2 12 1.5
v 2 17 1.5
v 2 19 1.5
v 3 1 1.5
v 3 2 1.5
v 4 1 1.5
v 4 2 1.5
v 7 6 1.5
v 7 9 1.5
v 8 7 1.5
v 8 8 1.5
v 9 6 1.5
v 9 7 1.5
v 9 8 1.5
v 9 9 1.5
v -6 15 0.5
v -6 18 0.5
v -5 12 0.5
v -5 15 0.5
v -4 2 0.5
v -4 3 0.5
v -4 17 0.5
v -4 18 0.5
v -3 2 0.5
v -3 3 0.5
v -3 16 0.5
v -3 17 0.5
v -3 18 0.5
v -2 12 0.5
v -2 16 0.5
v -2 17 0.5
v 2 12 0.5
v 2 16 0.5
v 3 2 0.5
v 3 3 0.5
v 3 16 0.5
v 3 17 0.5
v 4 2 0.5
v 4 3 0.5
v 4 16 0.5
v 4 17 0.5
v 5 12 0.5
v 5 14 0.5
v 5 15 0.5
v 5 16 0.5
v 6 14 0.5
v 6 15 0.5
v 6 17 0.5
v -4 1 -0.5
v -4 2 -0.5
v -3 1 -0.5
v -3 2 -0.5
v 3 0 0.5
v 3 2 0.5
v 4 0 0.5
v 4 2 0.5
v -2 12 -0.5
v -2 16 -0.5
v -2 17 -0.5
v -2 19 -0.5
v 0 18 -0.5
v 0 19 -0.5
v 1 17 -0.5
v 1 18 -0.5
v 2 12 -0.5
v 2 16 -0.5
v 2 17 -0.5
v 2 19 -0.5
v 3 2 -0.5
v 3 3 -0.5
v 4 2 -0.5
v 4 3 -0.5
v -9 6 -1.5
v -9 7 -1.5
v -9 8 -1.5
v -9 9 -1.5
v -8 7 -1.5
v -8 8 -1.5
v -7 6 -1.5
v -7 7 -1.5
v -7 9 -1.5
v -6 15 -1.5
v -6 18 -1.5
v -5 12 -1.5
v -5 15 -1.5
v -4 2 -1.5
v -4 3 -1.5
v -4 17 -1.5
v -4 18 -1.5
v -3 2 -1.5
v -3 3 -1.5
v -3 16 -1.5
v -3 17 -1.5
v -3 18 -1.5
v -2 12 -1.5
v -2 16 -1.5
v -2 17 -1.5
v 2 12 -1.5
v 2 16 -1.5
v 3 12 -1.5
v 3 16 -1.5
v 3 17 -1.5
v 4 16 -1.5
v 4 17 -1.5
v 5 12 -1.5
v 5 14 -1.5
v 5 15 -1.5
v 5 16 -1.5
v 6 14 -1.5
v 6 15 -1.5
v 6 17 -1.5
v 7 6 -1.5
v 7 9 -1.5
v 8 7 -1.5
v 8 8 -1.5
v 9 6 -1.5
v 9 7 -1.5
v 9 8 -1.5
v 9 9 -1.5
v -4 1 -2.5
v -4 2 -2.5
v -3 1 -2.5
v -3 2 -2.5
v -7 4 -3.5
v -7 5 -3.5
v -7 7 -3.5
v -7 11 -3.5
v -6 3 -3.5
v -6 4 -3.5
v -6 5 -3.5
v -6 7 -3.5
v -6 11 -3.5
v -6 12 -3.5
v -4 4 -3.5
v -2 4 -3.5
v 3 11 -3.5
v 3 12 -3.5
v 6 3 -3.5
v 6 4 -3.5
v 6 11 -3.5
v 6 12 -3.5
v 7 4 -3.5
v 7 11 -3.5
v -6 4 -4.5
v -6 11 -4.5
v -5 9 -4.5
v -5 10 -4.5
v -4 4 -4.5
v -4 6 -4.5
v -4 9 -4.5
v -4 10 -4.5
v -2 4 -4.5
v -2 6 -4.5
v 1 5 -4.5
v 1 8 -4.5
v 4 5 -4.5
v 4 8 -4.5
v 6 4 -4.5
v 6 11 -4.5
v 3 0 2.5
v 4 0 2.5
v 3 0 0.5
v 4 0 0.5
v -4 1 -0.5
v -3 1 -0.5
v -4 1 -2.5
v -3 1 -2.5
v -4 2 0.5
v -3 2 0.5
v 3 2 0.5
v 4 2 0.5
v -4 2 -0.5
v -3 2 -0.5
v 3 2 -0.5
v 4 2 -0.5
v -6 3 3.5
v 6 3 3.5
v 0 3 2.5
v 1 3 2.5
v -5 3 1.5
v -2 3 1.5
v 0 3 1.5
v 1 3 1.5
v -4 3 0.5
v -3 3 0.5
v 3 3 0.5
v 4 3 0.5
v 1 3 -0.5
v 3 3 -0.5
v 4 3 -0.5
v -5 3 -1.5
v -4 3 -1.5
v -3 3 -1.5
v -2 3 -1.5
v 1 3 -2.5
v 3 3 -2.5
v -6 3 -3.5
v 6 3 -3.5
v -6 4 4.5
v 6 4 4.5
v -7 4 3.5
v -6 4 3.5
v 6 4 3.5
v 7 4 3.5
v -7 4 -3.5
v -6 4 -3.5
v -4 4 -3.5
v -2 4 -3.5
v 6 4 -3.5
v 7 4 -3.5
v -6 4 -4.5
v -4 4 -4.5
v -2 4 -4.5
v 6 4 -4.5
v -9 6 1.5
v -7 6 1.5
v 7 6 1.5
v 9 6 1.5
v -9 6 0.5
v -8 6 0.5
v 8 6 0.5
v 9 6 0.5
v -9 6 -0.5
v -8 6 -0.5
v 8 6 -0.5
v 9 6 -0.5
v -9 6 -1.5
v -7 6 -1.5
v 7 6 -1.5
v 9 6 -1.5
v -2 7 4.5
v 1 7 4.5
v 2 7 4.5
v -2 7 3.5
v 1 7 3.5
v 2 7 3.5
v -4 10 4.5
v -3 10 4.5
v 3 10 4.5
v 4 10 4.5
v -4 10 3.5
v -3 10 3.5
v 3 10 3.5
v 4 10 3.5
v 5 14 0.5
v 6 14 0.5
v 5 14 -1.5
v 6 14 -1.5
v -6 15 0.5
v -5 15 0.5
v -6 15 -1.5
v -5 15 -1.5
v 3 1 2.5
v 4 1 2.5
v 3 1 1.5
v 4 1 1.5
v 3 2 1.5
v 4 2 1.5
v 3 2 0.5
v 4 2 0.5
v -4 2 -1.5
v -3 2 -1.5
v -4 2 -2.5
v -3 2 -2.5
v -2 5 4.5
v 2 5 4.5
v -2 5 3.5
v -1 5 3.5
v 2 5 3.5
v -4 8 4.5
v -3 8 4.5
v 3 8 4.5
v 4 8 4.5
v -4 8 3.5
v -3 8 3.5
v 3 8 3.5
v 4 8 3.5
v -9 9 1.5
v -7 9 1.5
v 7 9 1.5
v 9 9 1.5
v -9 9 0.5
v -8 9 0.5
v 8 9 0.5
v 9 9 0.5
v -9 9 -0.5
v -8 9 -0.5
v 7 9 -0.5
v 8 9 -0.5
v 9 9 -0.5
v -9 9 -1.5
v -7 9 -1.5
v 7 9 -1.5
v 9 9 -1.5
v -6 11 4.5
v 6 11 4.5
v -7 11 3.5
v -6 11 3.5
v -5 11 3.5
v -1 11 3.5
v 6 11 3.5
v 7 11 3.5
v -7 11 2.5
v -6 11 2.5
v 6 11 -0.5
v -7 11 -1.5
v -6 11 -1.5
v -7 11 -3.5
v -6 11 -3.5
v 3 11 -3.5
v 6 11 -3.5
v 7 11 -3.5
v -6 11 -4.5
v 6 11 -4.5
v -6 12 3.5
v -5 12 3.5
v -1 12 3.5
v 6 12 3.5
v 0 12 2.5
v 2 12 2.5
v -2 12 1.5
v -1 12 1.5
v 0 12 1.5
v 2 12 1.5
v -5 12 0.5
v -2 12 0.5
v 2 12 0.5
v 5 12 0.5
v -2 12 -0.5
v 2 12 -0.5
v 5 12 -0.5
v 6 12 -0.5
v -5 12 -1.5
v -2 12 -1.5
v 2 12 -1.5
v 3 12 -1.5
v 5 12 -1.5
v -6 12 -3.5
v 3 12 -3.5
v 6 12 -3.5
v 2 16 0.5
v 3 16 0.5
v 2 16 -0.5
v 2 16 -1.5
v 3 16 -1.5
v -3 17 0.5
v -2 17 0.5
v 3 17 0.5
v 4 17 0.5
v 6 17 0.5
v -2 17 -0.5
v -3 17 -1.5
v -2 17 -1.5
v 3 17 -1.5
v 4 17 -1.5
v 6 17 -1.5
v -6 18 0.5
v -4 18 0.5
v -3 18 0.5
v -6 18 -1.5
v -4 18 -1.5
v -3 18 -1.5
v -2 19 1.5
v 0 19 1.5
v 2 19 1.5
v -2 19 -0.5
v 0 19 -0.5
v 2 19 -0.5

# faces
f 5/5/1 2/5/1 1/5/1
f 6/6/1 3/6/1 2/6/1
f 6/5/1 2/5/1 5/5/1
f 7/5/1 4/5/1 3/5/1
f 7/6/1 3/6/1 6/6/1
f 8/5/1 4/5/1 7/5/1
f 9/6/1 6/6/1 5/6/1
f 9/6/1 7/6/1 6/6/1
f 9/6/1 8/6/1 7/6/1
f 10/6/1 8/6/1 9/6/1
f 11/6/1 8/6/1 10/6/1
f 12/6/1 8/6/1 11/6/1
f 13/5/1 10/5/1 9/5/1
f 14/6/1 11/6/1 10/6/1
f 14/5/1 10/5/1 13/5/1
f 15/5/1 12/5/1 11/5/1
f 15/6/1 11/6/1 14/6/1
f 16/5/1 12/5/1 15/5/1
f 19/3/1 18/3/1 17/3/1
f 20/3/1 18/3/1 19/3/1
f 21/3/1 19/3/1 17/3/1
f 22/4/1 20/4/1 19/4/1
f 22/3/1 19/3/1 21/3/1
f 23/3/1 21/3/1 17/3/1
f 24/3/1 21/3/1 23/3/1
f 25/4/1 20/4/1 22/4/1
f 26/4/1 20/4/1 25/4/1
f 27/4/1 24/4/1 23/4/1
f 28/3/1 26/3/1 25/3/1
f 29/3/1 23/3/1 17/3/1
f 30/4/1 28/4/1 27/4/1
f 30/3/1 23/3/1 29/3/1
f 30/4/1 27/4/1 23/4/1
f 31/3/1 26/3/1 28/3/1
f 31/4/1 28/4/1 30/4/1
f 32/3/1 26/3/1 31/3/1
f 36/3/1 34/3/1 33/3/1
f 37/3/1 34/3/1 36/3/1
f 39/3/1 38/3/1 37/3/1
f 40/3/1 38/3/1 39/3/1
f 41/3/1 36/3/1 35/3/1
f 42/3/1 36/3/1 41/3/1
f 45/3/1 38/3/1 40/3/1
f 46/3/1 38/3/1 45/3/1
f 47/3/1 44/3/1 43/3/1
f 47/3/1 45/3/1 44/3/1
f 47/3/1 43/3/1 42/3/1
f 48/3/1 45/3/1 47/3/1
f 51/5/1 50/5/1 49/5/1
f 52/5/1 50/5/1 51/5/1
f 55/5/1 54/5/1 53/5/1
f 56/5/1 54/5/1 55/5/1
f 60/3/1 58/3/1 57/3/1
f 61/3/1 58/3/1 60/3/1
f 62/3/1 58/3/1 61/3/1
f 63/3/1 60/3/1 59/3/1
f 63/3/1 61/3/1 60/3/1
f 64/3/1 61/3/1 63/3/1
f 67/3/1 66/3/1 65/3/1
f 68/3/1 66/3/1 67/3/1
f 71/5/1 70/5/1 69/5/1
f 72/5/1 71/5/1 69/5/1
f 74/5/1 72/5/1 69/5/1
f 74/5/1 73/5/1 72/5/1
f 75/5/1 73/5/1 74/5/1
f 78/3/1 77/3/1 76/3/1
f 79/3/1 77/3/1 78/3/1
f 80/4/1 79/4/1 78/4/1
f 81/4/1 79/4/1 80/4/1
f 84/5/1 83/5/1 82/5/1
f 85/5/1 83/5/1 84/5/1
f 88/3/1 87/3/1 86/3/1
f 89/3/1 87/3/1 88/3/1
f 90/3/1 87/3/1 89/3/1
f 91/3/1 87/3/1 90/3/1
f 93/3/1 92/3/1 91/3/1
f 94/3/1 92/3/1 93/3/1
f 97/5/1 96/5/1 95/5/1
f 98/5/1 96/5/1 97/5/1
f 101/4/1 100/4/1 99/4/1
f 102/4/1 100/4/1 101/4/1
f 103/3/2 104/3/2 105/3/2
f 105/3/2 104/3/2 106/3/2
f 107/3/2 108/3/2 110/3/2
f 110/3/2 108/3/2 111/3/2
f 111/3/2 108/3/2 112/3/2
f 109/3/2 110/3/2 113/3/2
f 110/3/2 111/3/2 113/3/2
f 113/3/2 111/3/2 114/3/2
f 115/6/2 116/6/2 117/6/2
f 117/6/2 116/6/2 118/6/2
f 119/3/2 120/3/2 121/3/2
f 121/3/2 120/3/2 122/3/2
f 123/5/2 124/5/2 125/5/2
f 125/5/2 124/5/2 126/5/2
f 125/6/2 126/6/2 127/6/2
f 127/6/2 126/6/2 128/6/2
f 129/5/2 130/5/2 131/5/2
f 129/5/2 131/5/2 133/5/2
f 131/5/2 132/5/2 133/5/2
f 133/5/2 132/5/2 134/5/2
f 133/6/2 134/6/2 135/6/2
f 135/6/2 134/6/2 136/6/2
f 137/4/2 138/4/2 139/4/2
f 139/4/2 138/4/2 140/4/2
f 141/3/2 142/3/2 143/3/2
f 143/3/2 142/3/2 144/3/2
f 144/3/2 142/3/2 145/3/2
f 145/3/2 142/3/2 146/3/2
f 146/3/2 147/3/2 148/3/2
f 148/3/2 147/3/2 149/3/2
f 150/5/2 151/5/2 153/5/2
f 151/5/2 152/5/2 153/5/2
f 153/5/2 152/5/2 154/5/2
f 155/3/2 156/3/2 158/3/2
f 158/3/2 156/3/2 159/3/2
f 157/3/2 158/3/2 161/3/2
f 161/3/2 158/3/2 162/3/2
f 159/3/2 160/3/2 164/3/2
f 164/3/2 160/3/2 165/3/2
f 162/3/2 163/3/2 166/3/2
f 163/4/2 164/4/2 167/4/2
f 166/3/2 163/3/2 167/3/2
f 167/4/2 164/4/2 168/4/2
f 169/5/2 170/5/2 171/5/2
f 171/5/2 170/5/2 172/5/2
f 171/6/2 172/6/2 173/6/2
f 173/6/2 172/6/2 174/6/2
f 175/3/2 176/3/2 177/3/2
f 177/3/2 176/3/2 178/3/2
f 175/3/2 177/3/2 179/3/2
f 177/4/2 178/4/2 179/4/2
f 178/3/2 176/3/2 180/3/2
f 179/4/2 178/4/2 180/4/2
f 180/3/2 176/3/2 181/3/2
f 179/3/2 180/3/2 182/3/2
f 181/3/2 176/3/2 184/3/2
f 182/4/2 183/4/2 185/4/2
f 179/3/2 182/3/2 185/3/2
f 183/3/2 184/3/2 186/3/2
f 185/4/2 183/4/2 186/4/2
f 175/3/2 179/3/2 187/3/2
f 179/3/2 185/3/2 187/3/2
f 185/3/2 186/3/2 187/3/2
f 186/3/2 184/3/2 188/3/2
f 187/3/2 186/3/2 188/3/2
f 184/3/2 176/3/2 188/3/2
f 189/5/2 190/5/2 193/5/2
f 190/6/2 191/6/2 194/6/2
f 193/5/2 190/5/2 194/5/2
f 191/5/2 192/5/2 195/5/2
f 194/6/2 191/6/2 195/6/2
f 195/5/2 192/5/2 196/5/2
f 193/6/2 194/6/2 197/6/2
f 194/6/2 195/6/2 197/6/2
f 195/6/2 196/6/2 197/6/2
f 197/6/2 196/6/2 198/6/2
f 198/6/2 196/6/2 199/6/2
f 199/6/2 196/6/2 200/6/2
f 197/5/2 198/5/2 201/5/2
f 198/6/2 199/6/2 202/6/2
f 201/5/2 198/5/2 202/5/2
f 199/5/2 200/5/2 203/5/2
f 202/6/2 199/6/2 203/6/2
f 203/5/2 200/5/2 204/5/2
f 207/3/3 206/3/3 205/3/3
f 208/3/3 206/3/3 207/3/3
f 209/3/3 206/3/3 208/3/3
f 210/3/3 206/3/3 209/3/3
f 211/3/3 207/3/3 205/3/3
f 211/4/3 208/4/3 207/4/3
f 212/3/3 209/3/3 208/3/3
f 212/4/3 208/4/3 211/4/3
f 213/3/3 209/3/3 212/3/3
f 214/3/3 206/3/3 210/3/3
f 215/3/3 213/3/3 212/3/3
f 215/3/3 214/3/3 213/3/3
f 215/3/3 211/3/3 205/3/3
f 215/3/3 212/3/3 211/3/3
f 216/3/3 214/3/3 215/3/3
f 217/3/3 214/3/3 216/3/3
f 218/3/3 206/3/3 214/3/3
f 218/3/3 214/3/3 217/3/3
f 219/3/3 215/3/3 205/3/3
f 221/4/3 218/4/3 217/4/3
f 222/4/3 218/4/3 221/4/3
f 222/4/3 221/4/3 220/4/3
f 223/3/3 206/3/3 218/3/3
f 223/4/3 218/4/3 222/4/3
f 224/4/3 222/4/3 220/4/3
f 225/3/3 206/3/3 223/3/3
f 226/4/3 224/4/3 220/4/3
f 226/4/3 225/4/3 224/4/3
f 226/3/3 220/3/3 219/3/3
f 227/3/3 206/3/3 225/3/3
f 227/4/3 225/4/3 226/4/3
f 228/3/3 226/3/3 219/3/3
f 228/3/3 219/3/3 205/3/3
f 228/3/3 227/3/3 226/3/3
f 229/3/3 206/3/3 227/3/3
f 229/3/3 227/3/3 228/3/3
f 233/3/3 231/3/3 230/3/3
f 234/3/3 231/3/3 233/3/3
f 236/3/3 235/3/3 234/3/3
f 237/3/3 235/3/3 236/3/3
f 240/7/3 239/7/3 238/7/3
f 241/7/3 239/7/3 240/7/3
f 244/1/3 243/1/3 242/1/3
f 245/1/3 243/1/3 244/1/3
f 246/4/3 237/4/3 236/4/3
f 247/4/3 237/4/3 246/4/3
f 248/1/3 243/1/3 245/1/3
f 249/2/3 245/2/3 244/2/3
f 250/1/3 248/1/3 245/1/3
f 250/2/3 245/2/3 249/2/3
f 251/1/3 248/1/3 250/1/3
f 254/7/3 253/7/3 252/7/3
f 255/7/3 253/7/3 254/7/3
f 256/3/3 233/3/3 232/3/3
f 257/3/3 233/3/3 256/3/3
f 258/3/3 247/3/3 246/3/3
f 259/3/3 247/3/3 258/3/3
f 260/3/3 258/3/3 257/3/3
f 261/3/3 258/3/3 260/3/3
f 264/3/3 263/3/3 262/3/3
f 265/3/3 263/3/3 264/3/3
f 270/5/3 267/5/3 266/5/3
f 270/6/3 268/6/3 267/6/3
f 271/5/3 269/5/3 268/5/3
f 271/6/3 268/6/3 270/6/3
f 272/5/3 270/5/3 266/5/3
f 272/5/3 271/5/3 270/5/3
f 273/5/3 271/5/3 272/5/3
f 274/5/3 269/5/3 271/5/3
f 274/5/3 271/5/3 273/5/3
f 277/5/3 276/5/3 275/5/3
f 278/5/3 276/5/3 277/5/3
f 279/5/3 276/5/3 278/5/3
f 280/5/3 276/5/3 279/5/3
f 281/5/3 279/5/3 278/5/3
f 282/6/3 280/6/3 279/6/3
f 282/5/3 279/5/3 281/5/3
f 283/5/3 281/5/3 278/5/3
f 284/6/3 282/6/3 281/6/3
f 284/5/3 281/5/3 283/5/3
f 285/6/3 280/6/3 282/6/3
f 285/6/3 282/6/3 284/6/3
f 288/3/3 287/3/3 286/3/3
f 289/3/3 287/3/3 288/3/3
f 292/5/3 291/5/3 290/5/3
f 293/5/3 291/5/3 292/5/3
f 294/5/3 292/5/3 290/5/3
f 295/6/3 293/6/3 292/6/3
f 295/5/3 292/5/3 294/5/3
f 296/5/3 291/5/3 293/5/3
f 296/6/3 293/6/3 295/6/3
f 297/5/3 291/5/3 296/5/3
f 301/5/3 299/5/3 298/5/3
f 304/5/3 299/5/3 301/5/3
f 304/5/3 301/5/3 300/5/3
f 305/5/3 299/5/3 304/5/3
f 306/3/3 303/3/3 302/3/3
f 307/3/3 303/3/3 306/3/3
f 308/5/3 304/5/3 300/5/3
f 309/6/3 305/6/3 304/6/3
f 309/5/3 304/5/3 308/5/3
f 310/6/3 305/6/3 309/6/3
f 311/5/3 308/5/3 300/5/3
f 312/6/3 309/6/3 308/6/3
f 312/5/3 308/5/3 311/5/3
f 313/6/3 309/6/3 312/6/3
f 318/5/3 315/5/3 314/5/3
f 320/3/3 317/3/3 316/3/3
f 321/3/3 317/3/3 320/3/3
f 322/5/3 319/5/3 318/5/3
f 322/5/3 318/5/3 314/5/3
f 323/5/3 319/5/3 322/5/3
f 324/5/3 322/5/3 314/5/3
f 325/5/3 322/5/3 324/5/3
f 326/5/3 322/5/3 325/5/3
f 327/6/3 323/6/3 322/6/3
f 327/5/3 322/5/3 326/5/3
f 328/5/3 326/5/3 325/5/3
f 329/6/3 327/6/3 326/6/3
f 329/5/3 326/5/3 328/5/3
f 330/6/3 323/6/3 327/6/3
f 330/6/3 327/6/3 329/6/3
f 333/3/3 332/3/3 331/3/3
f 334/3/3 332/3/3 333/3/3
f 335/3/4 336/3/4 337/3/4
f 337/3/4 336/3/4 338/3/4
f 339/5/4 340/5/4 343/5/4
f 341/5/4 342/5/4 343/5/4
f 340/5/4 341/5/4 343/5/4
f 343/5/4 342/5/4 344/5/4
f 339/5/4 343/5/4 345/5/4
f 343/6/4 344/6/4 346/6/4
f 345/5/4 343/5/4 346/5/4
f 339/5/4 345/5/4 347/5/4
f 347/5/4 345/5/4 348/5/4
f 345/6/4 346/6/4 349/6/4
f 348/5/4 345/5/4 349/5/4
f 346/6/4 344/6/4 350/6/4
f 349/6/4 346/6/4 350/6/4
f 351/3/4 352/3/4 353/3/4
f 353/3/4 352/3/4 354/3/4
f 355/5/4 356/5/4 359/5/4
f 356/6/4 357/6/4 359/6/4
f 357/5/4 358/5/4 360/5/4
f 359/6/4 357/6/4 360/6/4
f 355/5/4 359/5/4 361/5/4
f 359/5/4 360/5/4 361/5/4
f 361/5/4 360/5/4 362/5/4
f 360/5/4 358/5/4 363/5/4
f 362/5/4 360/5/4 363/5/4
f 364/5/4 365/5/4 367/5/4
f 367/5/4 365/5/4 370/5/4
f 366/5/4 367/5/4 370/5/4
f 370/5/4 365/5/4 371/5/4
f 368/3/4 369/3/4 372/3/4
f 372/3/4 369/3/4 373/3/4
f 366/5/4 370/5/4 374/5/4
f 370/6/4 371/6/4 375/6/4
f 374/5/4 370/5/4 375/5/4
f 375/6/4 371/6/4 376/6/4
f 366/5/4 374/5/4 377/5/4
f 374/6/4 375/6/4 378/6/4
f 377/5/4 374/5/4 378/5/4
f 378/6/4 375/6/4 379/6/4
f 380/5/4 381/5/4 382/5/4
f 382/5/4 381/5/4 383/5/4
f 382/5/4 383/5/4 385/5/4
f 383/5/4 384/5/4 385/5/4
f 385/5/4 384/5/4 386/5/4
f 382/5/4 385/5/4 387/5/4
f 387/5/4 385/5/4 388/5/4
f 388/5/4 385/5/4 389/5/4
f 385/6/4 386/6/4 390/6/4
f 389/5/4 385/5/4 390/5/4
f 388/5/4 389/5/4 391/5/4
f 389/6/4 390/6/4 392/6/4
f 391/5/4 389/5/4 392/5/4
f 390/6/4 386/6/4 393/6/4
f 392/6/4 390/6/4 393/6/4
f 394/5/4 395/5/4 396/5/4
f 396/5/4 395/5/4 397/5/4
f 394/5/4 396/5/4 398/5/4
f 396/6/4 397/6/4 399/6/4
f 398/5/4 396/5/4 399/5/4
f 397/5/4 395/5/4 400/5/4
f 399/6/4 397/6/4 400/6/4
f 400/5/4 395/5/4 401/5/4
f 402/3/4 403/3/4 404/3/4
f 404/3/4 403/3/4 405/3/4
f 406/3/4 407/3/4 411/3/4
f 407/4/4 408/4/4 412/4/4
f 411/3/4 407/3/4 412/3/4
f 408/3/4 409/3/4 413/3/4
f 412/4/4 408/4/4 413/4/4
f 413/3/4 409/3/4 414/3/4
f 410/3/4 411/3/4 416/3/4
f 410/3/4 416/3/4 417/3/4
f 414/3/4 415/3/4 418/3/4
f 418/3/4 415/3/4 419/3/4
f 410/3/4 417/3/4 420/3/4
f 420/3/4 417/3/4 421/3/4
f 418/4/4 419/4/4 422/4/4
f 422/4/4 419/4/4 423/4/4
f 421/3/4 422/3/4 424/3/4
f 424/3/4 422/3/4 425/3/4
f 426/3/4 427/3/4 428/3/4
f 428/3/4 427/3/4 429/3/4
f 426/3/4 428/3/4 430/3/4
f 430/3/4 428/3/4 431/3/4
f 428/4/4 429/4/4 432/4/4
f 431/3/4 428/3/4 432/3/4
f 429/3/4 427/3/4 433/3/4
f 432/4/4 429/4/4 433/4/4
f 430/4/4 431/4/4 434/4/4
f 431/3/4 432/3/4 435/3/4
f 434/4/4 431/4/4 435/4/4
f 432/3/4 433/3/4 435/3/4
f 434/3/4 435/3/4 436/3/4
f 435/3/4 433/3/4 437/3/4
f 436/3/4 435/3/4 437/3/4
f 434/3/4 436/3/4 438/3/4
f 436/4/4 437/4/4 438/4/4
f 437/3/4 433/3/4 439/3/4
f 438/4/4 437/4/4 439/4/4
f 434/3/4 438/3/4 440/3/4
f 438/3/4 439/3/4 440/3/4
f 433/3/4 427/3/4 441/3/4
f 440/3/4 439/3/4 441/3/4
f 439/3/4 433/3/4 441/3/4
f 444/3/5 443/3/5 442/3/5
f 445/3/5 443/3/5 444/3/5
f 448/3/5 447/3/5 446/3/5
f 449/3/5 447/3/5 448/3/5
f 454/3/5 451/3/5 450/3/5
f 455/3/5 451/3/5 454/3/5
f 456/3/5 453/3/5 452/3/5
f 457/3/5 453/3/5 456/3/5
f 460/3/5 459/3/5 458/3/5
f 461/3/5 459/3/5 460/3/5
f 462/3/5 460/3/5 458/3/5
f 463/3/5 460/3/5 462/3/5
f 464/4/5 461/4/5 460/4/5
f 464/3/5 460/3/5 463/3/5
f 465/3/5 459/3/5 461/3/5
f 465/4/5 461/4/5 464/4/5
f 466/4/5 463/4/5 462/4/5
f 467/4/5 463/4/5 466/4/5
f 468/3/5 464/3/5 463/3/5
f 468/3/5 459/3/5 465/3/5
f 468/3/5 465/3/5 464/3/5
f 469/3/5 459/3/5 468/3/5
f 470/3/5 468/3/5 463/3/5
f 471/3/5 468/3/5 470/3/5
f 472/3/5 459/3/5 469/3/5
f 473/3/5 462/3/5 458/3/5
f 473/4/5 466/4/5 462/4/5
f 474/4/5 466/4/5 473/4/5
f 475/4/5 463/4/5 467/4/5
f 476/3/5 470/3/5 463/3/5
f 476/4/5 463/4/5 475/4/5
f 477/3/5 474/3/5 473/3/5
f 477/3/5 470/3/5 476/3/5
f 477/3/5 476/3/5 475/3/5
f 477/4/5 471/4/5 470/4/5
f 477/3/5 475/3/5 474/3/5
f 478/3/5 472/3/5 471/3/5
f 478/4/5 471/4/5 477/4/5
f 479/3/5 473/3/5 458/3/5
f 479/3/5 477/3/5 473/3/5
f 479/3/5 478/3/5 477/3/5
f 480/3/5 472/3/5 478/3/5
f 480/3/5 478/3/5 479/3/5
f 480/3/5 459/3/5 472/3/5
f 484/3/5 482/3/5 481/3/5
f 485/3/5 482/3/5 484/3/5
f 487/3/5 484/3/5 483/3/5
f 488/3/5 484/3/5 487/3/5
f 491/3/5 486/3/5 485/3/5
f 492/3/5 486/3/5 491/3/5
f 493/3/5 489/3/5 488/3/5
f 494/4/5 490/4/5 489/4/5
f 494/3/5 489/3/5 493/3/5
f 495/3/5 491/3/5 490/3/5
f 495/4/5 490/4/5 494/4/5
f 496/3/5 491/3/5 495/3/5
f 501/5/5 498/5/5 497/5/5
f 502/5/5 498/5/5 501/5/5
f 503/5/5 500/5/5 499/5/5
f 504/5/5 500/5/5 503/5/5
f 505/6/5 502/6/5 501/6/5
f 506/5/5 498/5/5 502/5/5
f 506/6/5 502/6/5 505/6/5
f 507/5/5 503/5/5 499/5/5
f 507/6/5 504/6/5 503/6/5
f 508/6/5 504/6/5 507/6/5
f 509/5/5 506/5/5 505/5/5
f 510/5/5 498/5/5 506/5/5
f 510/5/5 506/5/5 509/5/5
f 511/5/5 507/5/5 499/5/5
f 511/5/5 508/5/5 507/5/5
f 512/5/5 508/5/5 511/5/5
f 516/3/5 514/3/5 513/3/5
f 517/4/5 515/4/5 514/4/5
f 517/3/5 514/3/5 516/3/5
f 518/4/5 515/4/5 517/4/5
f 523/3/5 520/3/5 519/3/5
f 524/3/5 520/3/5 523/3/5
f 525/3/5 522/3/5 521/3/5
f 526/3/5 522/3/5 525/3/5
f 529/5/5 528/5/5 527/5/5
f 530/5/5 528/5/5 529/5/5
f 533/5/5 532/5/5 531/5/5
f 534/5/5 532/5/5 533/5/5
f 535/3/6 536/3/6 537/3/6
f 537/3/6 536/3/6 538/3/6
f 539/3/6 540/3/6 541/3/6
f 541/3/6 540/3/6 542/3/6
f 543/3/6 544/3/6 545/3/6
f 545/3/6 544/3/6 546/3/6
f 547/3/6 548/3/6 549/3/6
f 549/3/6 548/3/6 550/3/6
f 550/3/6 548/3/6 551/3/6
f 552/3/6 553/3/6 556/3/6
f 556/3/6 553/3/6 557/3/6
f 554/4/6 555/4/6 558/4/6
f 558/4/6 555/4/6 559/4/6
f 560/5/6 561/5/6 564/5/6
f 564/5/6 561/5/6 565/5/6
f 562/5/6 563/5/6 566/5/6
f 566/5/6 563/5/6 567/5/6
f 564/6/6 565/6/6 568/6/6
f 565/5/6 561/5/6 569/5/6
f 568/6/6 565/6/6 569/6/6
f 562/5/6 566/5/6 570/5/6
f 566/6/6 567/6/6 571/6/6
f 570/5/6 566/5/6 571/5/6
f 571/6/6 567/6/6 572/6/6
f 568/5/6 569/5/6 573/5/6
f 569/5/6 561/5/6 574/5/6
f 573/5/6 569/5/6 574/5/6
f 570/5/6 571/5/6 575/5/6
f 571/5/6 572/5/6 575/5/6
f 575/5/6 572/5/6 576/5/6
f 577/3/6 578/3/6 580/3/6
f 580/3/6 578/3/6 581/3/6
f 581/3/6 578/3/6 582/3/6
f 582/3/6 578/3/6 583/3/6
f 579/3/6 580/3/6 585/3/6
f 585/3/6 580/3/6 586/3/6
f 583/3/6 584/3/6 587/3/6
f 585/4/6 586/4/6 588/4/6
f 588/4/6 586/4/6 589/4/6
f 588/3/6 589/3/6 590/3/6
f 590/3/6 589/3/6 591/3/6
f 587/3/6 584/3/6 593/3/6
f 593/3/6 584/3/6 594/3/6
f 591/3/6 592/3/6 595/3/6
f 592/3/6 593/3/6 595/3/6
f 595/3/6 593/3/6 596/3/6
f 599/3/6 600/3/6 601/3/6
f 601/3/6 600/3/6 602/3/6
f 598/4/6 599/4/6 603/4/6
f 599/3/6 601/3/6 604/3/6
f 603/4/6 599/4/6 604/4/6
f 601/4/6 602/4/6 605/4/6
f 604/3/6 601/3/6 605/3/6
f 602/3/6 600/3/6 606/3/6
f 605/4/6 602/4/6 606/4/6
f 597/3/6 598/3/6 607/3/6
f 598/4/6 603/4/6 607/4/6
f 607/4/6 603/4/6 608/4/6
f 606/3/6 600/3/6 609/3/6
f 609/3/6 600/3/6 610/3/6
f 610/3/6 600/3/6 613/3/6
f 613/3/6 600/3/6 614/3/6
f 597/3/6 607/3/6 615/3/6
f 611/3/6 612/3/6 616/3/6
f 616/3/6 612/3/6 617/3/6
f 613/4/6 614/4/6 619/4/6
f 597/3/6 615/3/6 620/3/6
f 617/3/6 618/3/6 620/3/6
f 615/3/6 616/3/6 620/3/6
f 616/3/6 617/3/6 620/3/6
f 618/4/6 619/4/6 621/4/6
f 620/3/6 618/3/6 621/3/6
f 619/4/6 614/4/6 622/4/6
f 621/4/6 619/4/6 622/4/6
f 623/5/6 624/5/6 625/5/6
f 625/5/6 624/5/6 626/5/6
f 626/5/6 624/5/6 627/5/6
f 628/6/6 629/6/6 633/6/6
f 628/6/6 633/6/6 634/6/6
f 634/6/6 633/6/6 635/6/6
f 630/5/6 631/5/6 636/5/6
f 631/6/6 632/6/6 637/6/6
f 636/5/6 631/5/6 637/5/6
f 637/6/6 632/6/6 638/6/6
f 639/5/6 640/5/6 642/5/6
f 640/6/6 641/6/6 643/6/6
f 642/5/6 640/5/6 643/5/6
f 643/6/6 641/6/6 644/6/6
f 645/5/6 646/5/6 648/5/6
f 646/6/6 647/6/6 649/6/6
f 648/5/6 646/5/6 649/5/6
f 649/6/6 647/6/6 650/6/6
