# MagicaVoxel @ Ephtracy

# group
g PotionsPickUps-2

# material
mtllib PotionsPickUps-2.mtl
usemtl palette

# normals
vn -1 0 0
vn 1 0 0
vn 0 0 1
vn 0 0 -1
vn 0 -1 0
vn 0 1 0

# texcoords
vt 0.357422 0.5
vt 0.361328 0.5
vt 0.705078 0.5
vt 0.708984 0.5
vt 0.712891 0.5
vt 0.849609 0.5
vt 0.857422 0.5
vt 0.919922 0.5
vt 0.923828 0.5

# verts
v -3 1 1
v -3 1 -0
v -3 1 -1
v -3 2 2
v -3 2 1
v -3 2 -1
v -3 2 -2
v -3 4 2
v -3 4 1
v -3 4 -1
v -3 4 -2
v -3 5 1
v -3 5 -0
v -3 5 -1
v -2 0 1
v -2 0 -1
v -2 1 2
v -2 1 1
v -2 1 -0
v -2 1 -1
v -2 1 -2
v -2 2 3
v -2 2 2
v -2 2 1
v -2 2 -1
v -2 2 -2
v -2 2 -3
v -2 3 -2
v -2 3 -3
v -2 4 3
v -2 4 2
v -2 4 1
v -2 4 -1
v -2 4 -2
v -2 4 -3
v -2 5 2
v -2 5 1
v -2 5 -0
v -2 5 -1
v -2 5 -2
v -2 6 1
v -2 6 -0
v -2 6 -1
v -2 7 1
v -2 7 -1
v -2 8 1
v -2 8 -1
v -1 0 2
v -1 0 1
v -1 0 -1
v -1 0 -2
v -1 1 3
v -1 1 2
v -1 1 1
v -1 1 -1
v -1 1 -2
v -1 1 -3
v -1 2 3
v -1 2 2
v -1 2 -2
v -1 2 -3
v -1 4 3
v -1 4 2
v -1 4 -2
v -1 4 -3
v -1 5 3
v -1 5 2
v -1 5 1
v -1 5 -1
v -1 5 -2
v -1 5 -3
v -1 6 2
v -1 6 1
v -1 6 -0
v -1 6 -1
v -1 6 -2
v -1 7 2
v -1 7 1
v -1 7 -0
v -1 7 -1
v -1 7 -2
v -1 8 2
v -1 8 1
v -1 8 -1
v -1 8 -2
v -1 9 1
v -1 9 -1
v 1 0 2
v 1 0 1
v 1 0 -1
v 1 0 -2
v 1 1 3
v 1 1 2
v 1 1 1
v 1 1 -1
v 1 1 -2
v 1 1 -3
v 1 2 3
v 1 2 2
v 1 2 -2
v 1 2 -3
v 1 4 3
v 1 4 2
v 1 4 -2
v 1 4 -3
v 1 5 3
v 1 5 2
v 1 5 1
v 1 5 -1
v 1 5 -2
v 1 5 -3
v 1 6 2
v 1 6 1
v 1 6 -0
v 1 6 -1
v 1 6 -2
v 1 7 2
v 1 7 1
v 1 7 -0
v 1 7 -1
v 1 7 -2
v 1 8 2
v 1 8 1
v 1 8 -0
v 1 8 -1
v 1 8 -2
v 1 9 1
v 1 9 -0
v 1 9 -1
v 2 0 1
v 2 0 -0
v 2 0 -1
v 2 1 2
v 2 1 1
v 2 1 -0
v 2 1 -1
v 2 1 -2
v 2 2 3
v 2 2 2
v 2 2 1
v 2 2 -1
v 2 2 -2
v 2 2 -3
v 2 4 3
v 2 4 2
v 2 4 1
v 2 4 -1
v 2 4 -2
v 2 4 -3
v 2 5 2
v 2 5 1
v 2 5 -0
v 2 5 -1
v 2 5 -2
v 2 6 1
v 2 6 -0
v 2 6 -1
v 2 7 1
v 2 7 -0
v 2 7 -1
v 2 8 1
v 2 8 -0
v 2 8 -1
v 3 1 1
v 3 1 -0
v 3 1 -1
v 3 2 2
v 3 2 1
v 3 2 -0
v 3 2 -1
v 3 2 -2
v 3 4 2
v 3 4 1
v 3 4 -0
v 3 4 -1
v 3 4 -2
v 3 5 1
v 3 5 -0
v 3 5 -1
v -2 2 3
v -2 4 3
v -1 1 3
v -1 2 3
v -1 4 3
v -1 5 3
v 0 4 3
v 0 5 3
v 1 1 3
v 1 2 3
v 1 4 3
v 1 5 3
v 2 2 3
v 2 4 3
v -3 2 2
v -3 4 2
v -2 1 2
v -2 2 2
v -2 4 2
v -2 5 2
v -1 0 2
v -1 1 2
v -1 2 2
v -1 4 2
v -1 5 2
v -1 6 2
v -1 7 2
v -1 8 2
v 0 5 2
v 0 6 2
v 1 0 2
v 1 1 2
v 1 2 2
v 1 4 2
v 1 5 2
v 1 6 2
v 1 7 2
v 1 8 2
v 2 1 2
v 2 2 2
v 2 4 2
v 2 5 2
v 3 2 2
v 3 4 2
v -3 1 1
v -3 2 1
v -3 4 1
v -3 5 1
v -2 0 1
v -2 1 1
v -2 2 1
v -2 4 1
v -2 5 1
v -2 6 1
v -2 7 1
v -2 8 1
v -1 0 1
v -1 1 1
v -1 5 1
v -1 6 1
v -1 7 1
v -1 8 1
v -1 9 1
v 0 6 1
v 0 7 1
v 0 8 1
v 0 9 1
v 1 0 1
v 1 1 1
v 1 5 1
v 1 6 1
v 1 7 1
v 1 8 1
v 1 9 1
v 2 0 1
v 2 1 1
v 2 2 1
v 2 4 1
v 2 5 1
v 2 6 1
v 2 7 1
v 2 8 1
v 3 1 1
v 3 2 1
v 3 4 1
v 3 5 1
v -3 1 -1
v -3 2 -1
v -3 4 -1
v -3 5 -1
v -2 0 -1
v -2 1 -1
v -2 2 -1
v -2 4 -1
v -2 5 -1
v -2 6 -1
v -2 7 -1
v -2 8 -1
v -1 0 -1
v -1 1 -1
v -1 5 -1
v -1 6 -1
v -1 7 -1
v -1 8 -1
v -1 9 -1
v 0 6 -1
v 0 7 -1
v 0 8 -1
v 1 0 -1
v 1 1 -1
v 1 5 -1
v 1 6 -1
v 1 7 -1
v 1 8 -1
v 1 9 -1
v 2 0 -1
v 2 1 -1
v 2 2 -1
v 2 4 -1
v 2 5 -1
v 2 6 -1
v 2 7 -1
v 2 8 -1
v 3 1 -1
v 3 2 -1
v 3 4 -1
v 3 5 -1
v -3 2 -2
v -3 4 -2
v -2 1 -2
v -2 2 -2
v -2 3 -2
v -2 4 -2
v -2 5 -2
v -1 0 -2
v -1 1 -2
v -1 2 -2
v -1 4 -2
v -1 5 -2
v -1 6 -2
v -1 7 -2
v -1 8 -2
v 0 0 -2
v 0 1 -2
v 0 5 -2
v 0 6 -2
v 0 7 -2
v 0 8 -2
v 1 0 -2
v 1 1 -2
v 1 2 -2
v 1 4 -2
v 1 5 -2
v 1 6 -2
v 1 7 -2
v 1 8 -2
v 2 1 -2
v 2 2 -2
v 2 4 -2
v 2 5 -2
v 3 2 -2
v 3 4 -2
v -2 2 -3
v -2 3 -3
v -2 4 -3
v -1 1 -3
v -1 2 -3
v -1 3 -3
v -1 4 -3
v -1 5 -3
v 0 1 -3
v 0 2 -3
v 0 3 -3
v 0 5 -3
v 1 1 -3
v 1 2 -3
v 1 3 -3
v 1 4 -3
v 1 5 -3
v 2 2 -3
v 2 4 -3
v -1 0 2
v 1 0 2
v -2 0 1
v -1 0 1
v 1 0 1
v 2 0 1
v 1 0 -0
v 2 0 -0
v -2 0 -1
v -1 0 -1
v 0 0 -1
v 1 0 -1
v 2 0 -1
v -1 0 -2
v 0 0 -2
v 1 0 -2
v -1 1 3
v 1 1 3
v -2 1 2
v -1 1 2
v 1 1 2
v 2 1 2
v -3 1 1
v -2 1 1
v -1 1 1
v 1 1 1
v 2 1 1
v 3 1 1
v -3 1 -0
v -2 1 -0
v 2 1 -0
v 3 1 -0
v -3 1 -1
v -2 1 -1
v -1 1 -1
v 1 1 -1
v 2 1 -1
v 3 1 -1
v -2 1 -2
v -1 1 -2
v 0 1 -2
v 1 1 -2
v 2 1 -2
v -1 1 -3
v 0 1 -3
v 1 1 -3
v -2 2 3
v -1 2 3
v 1 2 3
v 2 2 3
v -3 2 2
v -2 2 2
v -1 2 2
v 1 2 2
v 2 2 2
v 3 2 2
v -3 2 1
v -2 2 1
v 2 2 1
v 3 2 1
v -3 2 -1
v -2 2 -1
v 2 2 -1
v 3 2 -1
v -3 2 -2
v -2 2 -2
v -1 2 -2
v 1 2 -2
v 2 2 -2
v 3 2 -2
v -2 2 -3
v -1 2 -3
v 1 2 -3
v 2 2 -3
v -1 7 2
v 1 7 2
v -2 7 1
v -1 7 1
v 0 7 1
v 1 7 1
v 2 7 1
v -1 7 -0
v 1 7 -0
v 2 7 -0
v -2 7 -1
v -1 7 -1
v 0 7 -1
v 1 7 -1
v 2 7 -1
v -1 7 -2
v 0 7 -2
v 1 7 -2
v -2 4 3
v -1 4 3
v 1 4 3
v 2 4 3
v -3 4 2
v -2 4 2
v -1 4 2
v 1 4 2
v 2 4 2
v 3 4 2
v -3 4 1
v -2 4 1
v 2 4 1
v 3 4 1
v -3 4 -1
v -2 4 -1
v 2 4 -1
v 3 4 -1
v -3 4 -2
v -2 4 -2
v -1 4 -2
v 1 4 -2
v 2 4 -2
v 3 4 -2
v -2 4 -3
v -1 4 -3
v 1 4 -3
v 2 4 -3
v -1 5 3
v 0 5 3
v 1 5 3
v -2 5 2
v -1 5 2
v 0 5 2
v 1 5 2
v 2 5 2
v -3 5 1
v -2 5 1
v -1 5 1
v 1 5 1
v 2 5 1
v 3 5 1
v -3 5 -0
v -2 5 -0
v 2 5 -0
v 3 5 -0
v -3 5 -1
v -2 5 -1
v -1 5 -1
v 1 5 -1
v 2 5 -1
v 3 5 -1
v -2 5 -2
v -1 5 -2
v 0 5 -2
v 1 5 -2
v 2 5 -2
v -1 5 -3
v 0 5 -3
v 1 5 -3
v -1 6 2
v 0 6 2
v 1 6 2
v -2 6 1
v -1 6 1
v 0 6 1
v 1 6 1
v 2 6 1
v -2 6 -0
v -1 6 -0
v 1 6 -0
v 2 6 -0
v -2 6 -1
v -1 6 -1
v 0 6 -1
v 1 6 -1
v 2 6 -1
v -1 6 -2
v 0 6 -2
v 1 6 -2
v -1 8 2
v 1 8 2
v -2 8 1
v -1 8 1
v 0 8 1
v 1 8 1
v 2 8 1
v 1 8 -0
v 2 8 -0
v -2 8 -1
v -1 8 -1
v 0 8 -1
v 1 8 -1
v 2 8 -1
v -1 8 -2
v 0 8 -2
v 1 8 -2
v -1 9 1
v 0 9 1
v 1 9 1
v 0 9 -0
v 1 9 -0
v -1 9 -1
v 1 9 -1

# faces
f 5/4/1 2/4/1 1/4/1
f 6/3/1 3/3/1 2/3/1
f 8/4/1 5/4/1 4/4/1
f 9/4/1 2/4/1 5/4/1
f 9/4/1 5/4/1 8/4/1
f 10/3/1 7/3/1 6/3/1
f 10/3/1 6/3/1 2/3/1
f 11/3/1 7/3/1 10/3/1
f 12/4/1 2/4/1 9/4/1
f 13/3/1 10/3/1 2/3/1
f 13/4/1 2/4/1 12/4/1
f 14/3/1 10/3/1 13/3/1
f 18/4/1 16/4/1 15/4/1
f 19/4/1 16/4/1 18/4/1
f 20/4/1 16/4/1 19/4/1
f 23/5/1 18/5/1 17/5/1
f 24/5/1 18/5/1 23/5/1
f 25/3/1 21/3/1 20/3/1
f 26/3/1 21/3/1 25/3/1
f 28/3/1 27/3/1 26/3/1
f 29/3/1 27/3/1 28/3/1
f 30/5/1 23/5/1 22/5/1
f 31/5/1 23/5/1 30/5/1
f 34/5/1 29/5/1 28/5/1
f 35/5/1 29/5/1 34/5/1
f 36/4/1 32/4/1 31/4/1
f 37/4/1 32/4/1 36/4/1
f 39/5/1 34/5/1 33/5/1
f 40/5/1 34/5/1 39/5/1
f 41/5/1 38/5/1 37/5/1
f 42/3/1 39/3/1 38/3/1
f 42/5/1 38/5/1 41/5/1
f 43/3/1 39/3/1 42/3/1
f 46/8/1 45/8/1 44/8/1
f 47/8/1 45/8/1 46/8/1
f 53/5/1 49/5/1 48/5/1
f 54/5/1 49/5/1 53/5/1
f 55/5/1 51/5/1 50/5/1
f 56/5/1 51/5/1 55/5/1
f 58/5/1 53/5/1 52/5/1
f 59/5/1 53/5/1 58/5/1
f 60/5/1 57/5/1 56/5/1
f 61/5/1 57/5/1 60/5/1
f 66/5/1 63/5/1 62/5/1
f 67/5/1 63/5/1 66/5/1
f 70/5/1 65/5/1 64/5/1
f 71/5/1 65/5/1 70/5/1
f 72/5/1 68/5/1 67/5/1
f 73/5/1 68/5/1 72/5/1
f 75/5/1 70/5/1 69/5/1
f 76/5/1 70/5/1 75/5/1
f 78/5/1 74/5/1 73/5/1
f 79/3/1 75/3/1 74/3/1
f 79/5/1 74/5/1 78/5/1
f 80/3/1 75/3/1 79/3/1
f 82/9/1 78/9/1 77/9/1
f 83/9/1 78/9/1 82/9/1
f 84/9/1 81/9/1 80/9/1
f 85/9/1 81/9/1 84/9/1
f 86/1/1 84/1/1 83/1/1
f 87/1/1 84/1/1 86/1/1
f 88/5/2 89/5/2 93/5/2
f 93/5/2 89/5/2 94/5/2
f 90/3/2 91/3/2 95/3/2
f 95/3/2 91/3/2 96/3/2
f 92/5/2 93/5/2 98/5/2
f 98/5/2 93/5/2 99/5/2
f 96/3/2 97/3/2 100/3/2
f 100/3/2 97/3/2 101/3/2
f 102/3/2 103/3/2 106/3/2
f 106/3/2 103/3/2 107/3/2
f 104/3/2 105/3/2 110/3/2
f 110/3/2 105/3/2 111/3/2
f 107/3/2 108/3/2 112/3/2
f 112/3/2 108/3/2 113/3/2
f 109/3/2 110/3/2 115/3/2
f 115/3/2 110/3/2 116/3/2
f 113/3/2 114/3/2 118/3/2
f 114/5/2 115/5/2 119/5/2
f 118/3/2 114/3/2 119/3/2
f 119/5/2 115/5/2 120/5/2
f 117/9/2 118/9/2 122/9/2
f 122/9/2 118/9/2 123/9/2
f 120/8/2 121/8/2 125/8/2
f 125/8/2 121/8/2 126/8/2
f 123/2/2 124/2/2 127/2/2
f 124/1/2 125/1/2 128/1/2
f 127/2/2 124/2/2 128/2/2
f 128/1/2 125/1/2 129/1/2
f 130/4/2 131/4/2 134/4/2
f 131/3/2 132/3/2 135/3/2
f 134/4/2 131/4/2 135/4/2
f 135/3/2 132/3/2 136/3/2
f 133/3/2 134/3/2 139/3/2
f 139/3/2 134/3/2 140/3/2
f 136/3/2 137/3/2 141/3/2
f 141/3/2 137/3/2 142/3/2
f 138/3/2 139/3/2 144/3/2
f 144/3/2 139/3/2 145/3/2
f 142/3/2 143/3/2 148/3/2
f 148/3/2 143/3/2 149/3/2
f 145/3/2 146/3/2 150/3/2
f 150/3/2 146/3/2 151/3/2
f 147/4/2 148/4/2 153/4/2
f 153/4/2 148/4/2 154/4/2
f 151/3/2 152/3/2 155/3/2
f 152/4/2 153/4/2 156/4/2
f 155/3/2 152/3/2 156/3/2
f 156/4/2 153/4/2 157/4/2
f 158/9/2 159/9/2 161/9/2
f 159/8/2 160/8/2 162/8/2
f 161/9/2 159/9/2 162/9/2
f 162/8/2 160/8/2 163/8/2
f 164/4/2 165/4/2 168/4/2
f 165/3/2 166/3/2 169/3/2
f 168/4/2 165/4/2 169/4/2
f 169/3/2 166/3/2 170/3/2
f 167/3/2 168/3/2 172/3/2
f 170/4/2 171/4/2 173/4/2
f 172/3/2 168/3/2 173/3/2
f 168/4/2 169/4/2 173/4/2
f 169/4/2 170/4/2 173/4/2
f 173/4/2 171/4/2 174/4/2
f 174/4/2 171/4/2 175/4/2
f 175/4/2 171/4/2 176/4/2
f 173/3/2 174/3/2 177/3/2
f 174/4/2 175/4/2 178/4/2
f 177/3/2 174/3/2 178/3/2
f 178/4/2 175/4/2 179/4/2
f 183/5/3 181/5/3 180/5/3
f 184/5/3 181/5/3 183/5/3
f 186/5/3 183/5/3 182/5/3
f 186/5/3 185/5/3 184/5/3
f 186/5/3 184/5/3 183/5/3
f 187/5/3 185/5/3 186/5/3
f 188/5/3 186/5/3 182/5/3
f 189/5/3 186/5/3 188/5/3
f 190/3/3 187/3/3 186/3/3
f 190/5/3 186/5/3 189/5/3
f 191/3/3 187/3/3 190/3/3
f 192/3/3 190/3/3 189/3/3
f 193/3/3 190/3/3 192/3/3
f 197/4/3 195/4/3 194/4/3
f 198/4/3 195/4/3 197/4/3
f 201/5/3 197/5/3 196/5/3
f 202/5/3 197/5/3 201/5/3
f 203/4/3 199/4/3 198/4/3
f 204/4/3 199/4/3 203/4/3
f 208/5/3 205/5/3 204/5/3
f 209/5/3 205/5/3 208/5/3
f 210/5/3 201/5/3 200/5/3
f 211/5/3 201/5/3 210/5/3
f 214/3/3 209/3/3 208/3/3
f 215/3/3 209/3/3 214/3/3
f 216/9/3 207/9/3 206/9/3
f 217/9/3 207/9/3 216/9/3
f 218/3/3 212/3/3 211/3/3
f 219/3/3 212/3/3 218/3/3
f 220/3/3 214/3/3 213/3/3
f 221/3/3 214/3/3 220/3/3
f 222/3/3 220/3/3 219/3/3
f 223/3/3 220/3/3 222/3/3
f 229/4/3 225/4/3 224/4/3
f 230/4/3 225/4/3 229/4/3
f 231/4/3 227/4/3 226/4/3
f 232/4/3 227/4/3 231/4/3
f 236/4/3 229/4/3 228/4/3
f 237/4/3 229/4/3 236/4/3
f 238/5/3 233/5/3 232/5/3
f 239/5/3 233/5/3 238/5/3
f 240/8/3 235/8/3 234/8/3
f 241/8/3 235/8/3 240/8/3
f 243/5/3 240/5/3 239/5/3
f 244/5/3 240/5/3 243/5/3
f 245/1/3 242/1/3 241/1/3
f 246/1/3 242/1/3 245/1/3
f 250/3/3 244/3/3 243/3/3
f 251/3/3 244/3/3 250/3/3
f 252/2/3 246/2/3 245/2/3
f 253/2/3 246/2/3 252/2/3
f 254/4/3 248/4/3 247/4/3
f 255/4/3 248/4/3 254/4/3
f 258/3/3 250/3/3 249/3/3
f 259/3/3 250/3/3 258/3/3
f 260/9/3 252/9/3 251/9/3
f 261/9/3 252/9/3 260/9/3
f 262/4/3 256/4/3 255/4/3
f 263/4/3 256/4/3 262/4/3
f 264/3/3 258/3/3 257/3/3
f 265/3/3 258/3/3 264/3/3
f 266/3/4 267/3/4 271/3/4
f 271/3/4 267/3/4 272/3/4
f 268/3/4 269/3/4 273/3/4
f 273/3/4 269/3/4 274/3/4
f 270/4/4 271/4/4 278/4/4
f 278/4/4 271/4/4 279/4/4
f 274/3/4 275/3/4 280/3/4
f 280/3/4 275/3/4 281/3/4
f 276/8/4 277/8/4 282/8/4
f 282/8/4 277/8/4 283/8/4
f 281/3/4 282/3/4 285/3/4
f 285/3/4 282/3/4 286/3/4
f 283/1/4 284/1/4 287/1/4
f 285/5/4 286/5/4 291/5/4
f 291/5/4 286/5/4 292/5/4
f 287/1/4 284/1/4 293/1/4
f 293/1/4 284/1/4 294/1/4
f 288/3/4 289/3/4 295/3/4
f 295/3/4 289/3/4 296/3/4
f 290/4/4 291/4/4 299/4/4
f 299/4/4 291/4/4 300/4/4
f 292/8/4 293/8/4 301/8/4
f 301/8/4 293/8/4 302/8/4
f 296/3/4 297/3/4 303/3/4
f 303/3/4 297/3/4 304/3/4
f 298/4/4 299/4/4 305/4/4
f 305/4/4 299/4/4 306/4/4
f 307/3/4 308/3/4 310/3/4
f 310/3/4 308/3/4 311/3/4
f 311/3/4 308/3/4 312/3/4
f 309/3/4 310/3/4 315/3/4
f 315/3/4 310/3/4 316/3/4
f 312/5/4 313/5/4 317/5/4
f 317/5/4 313/5/4 318/5/4
f 314/5/4 315/5/4 322/5/4
f 322/5/4 315/5/4 323/5/4
f 318/5/4 319/5/4 324/5/4
f 324/5/4 319/5/4 325/5/4
f 320/9/4 321/9/4 326/9/4
f 326/9/4 321/9/4 327/9/4
f 322/3/4 323/3/4 328/3/4
f 328/3/4 323/3/4 329/3/4
f 324/3/4 325/3/4 332/3/4
f 332/3/4 325/3/4 333/3/4
f 326/8/4 327/8/4 334/8/4
f 334/8/4 327/8/4 335/8/4
f 329/3/4 330/3/4 336/3/4
f 336/3/4 330/3/4 337/3/4
f 331/4/4 332/4/4 338/4/4
f 338/4/4 332/4/4 339/4/4
f 337/4/4 338/4/4 340/4/4
f 340/4/4 338/4/4 341/4/4
f 342/3/4 343/3/4 346/3/4
f 343/5/4 344/5/4 347/5/4
f 346/3/4 343/3/4 347/3/4
f 347/5/4 344/5/4 348/5/4
f 345/5/4 346/5/4 350/5/4
f 348/5/4 349/5/4 350/5/4
f 347/5/4 348/5/4 350/5/4
f 346/5/4 347/5/4 350/5/4
f 350/5/4 349/5/4 351/5/4
f 351/5/4 349/5/4 352/5/4
f 352/5/4 349/5/4 353/5/4
f 350/3/4 351/3/4 354/3/4
f 351/5/4 352/5/4 355/5/4
f 354/3/4 351/3/4 355/3/4
f 352/3/4 353/3/4 356/3/4
f 355/5/4 352/5/4 356/5/4
f 356/3/4 353/3/4 357/3/4
f 357/3/4 353/3/4 358/3/4
f 355/3/4 356/3/4 359/3/4
f 356/3/4 357/3/4 359/3/4
f 359/3/4 357/3/4 360/3/4
f 364/5/5 362/5/5 361/5/5
f 365/5/5 362/5/5 364/5/5
f 367/3/5 365/3/5 364/3/5
f 367/4/5 366/4/5 365/4/5
f 368/4/5 366/4/5 367/4/5
f 369/4/5 364/4/5 363/4/5
f 370/3/5 367/3/5 364/3/5
f 370/4/5 364/4/5 369/4/5
f 370/3/5 368/3/5 367/3/5
f 371/3/5 368/3/5 370/3/5
f 372/3/5 368/3/5 371/3/5
f 373/3/5 368/3/5 372/3/5
f 374/5/5 371/5/5 370/5/5
f 375/3/5 372/3/5 371/3/5
f 375/5/5 371/5/5 374/5/5
f 376/3/5 372/3/5 375/3/5
f 380/5/5 378/5/5 377/5/5
f 381/5/5 378/5/5 380/5/5
f 384/5/5 380/5/5 379/5/5
f 385/5/5 380/5/5 384/5/5
f 386/3/5 382/3/5 381/3/5
f 387/3/5 382/3/5 386/3/5
f 389/4/5 384/4/5 383/4/5
f 390/4/5 384/4/5 389/4/5
f 391/4/5 388/4/5 387/4/5
f 392/4/5 388/4/5 391/4/5
f 393/3/5 390/3/5 389/3/5
f 394/3/5 390/3/5 393/3/5
f 397/3/5 392/3/5 391/3/5
f 398/3/5 392/3/5 397/3/5
f 399/3/5 395/3/5 394/3/5
f 400/3/5 395/3/5 399/3/5
f 402/3/5 397/3/5 396/3/5
f 403/3/5 397/3/5 402/3/5
f 404/5/5 401/5/5 400/5/5
f 405/3/5 402/3/5 401/3/5
f 405/5/5 401/5/5 404/5/5
f 406/3/5 402/3/5 405/3/5
f 412/5/5 408/5/5 407/5/5
f 413/5/5 408/5/5 412/5/5
f 414/3/5 410/3/5 409/3/5
f 415/3/5 410/3/5 414/3/5
f 417/4/5 412/4/5 411/4/5
f 418/4/5 412/4/5 417/4/5
f 419/3/5 416/3/5 415/3/5
f 420/3/5 416/3/5 419/3/5
f 425/3/5 422/3/5 421/3/5
f 426/3/5 422/3/5 425/3/5
f 429/4/5 424/4/5 423/4/5
f 430/4/5 424/4/5 429/4/5
f 431/3/5 427/3/5 426/3/5
f 432/3/5 427/3/5 431/3/5
f 433/3/5 429/3/5 428/3/5
f 434/3/5 429/3/5 433/3/5
f 438/9/5 436/9/5 435/9/5
f 439/9/5 436/9/5 438/9/5
f 440/9/5 436/9/5 439/9/5
f 442/8/5 438/8/5 437/8/5
f 443/9/5 441/9/5 440/9/5
f 444/9/5 441/9/5 443/9/5
f 445/8/5 442/8/5 437/8/5
f 446/8/5 442/8/5 445/8/5
f 448/8/5 444/8/5 443/8/5
f 449/8/5 444/8/5 448/8/5
f 450/9/5 447/9/5 446/9/5
f 451/8/5 448/8/5 447/8/5
f 451/9/5 447/9/5 450/9/5
f 452/8/5 448/8/5 451/8/5
f 453/5/6 454/5/6 458/5/6
f 458/5/6 454/5/6 459/5/6
f 455/3/6 456/3/6 460/3/6
f 460/3/6 456/3/6 461/3/6
f 457/4/6 458/4/6 463/4/6
f 463/4/6 458/4/6 464/4/6
f 461/3/6 462/3/6 465/3/6
f 465/3/6 462/3/6 466/3/6
f 467/3/6 468/3/6 471/3/6
f 471/3/6 468/3/6 472/3/6
f 469/4/6 470/4/6 475/4/6
f 475/4/6 470/4/6 476/4/6
f 472/5/6 473/5/6 477/5/6
f 477/5/6 473/5/6 478/5/6
f 474/3/6 475/3/6 479/3/6
f 479/3/6 475/3/6 480/3/6
f 481/5/6 482/5/6 485/5/6
f 482/3/6 483/3/6 486/3/6
f 485/5/6 482/5/6 486/5/6
f 486/3/6 483/3/6 487/3/6
f 484/4/6 485/4/6 490/4/6
f 490/4/6 485/4/6 491/4/6
f 487/3/6 488/3/6 492/3/6
f 492/3/6 488/3/6 493/3/6
f 489/4/6 490/4/6 495/4/6
f 495/4/6 490/4/6 496/4/6
f 493/3/6 494/3/6 497/3/6
f 497/3/6 494/3/6 498/3/6
f 495/3/6 496/3/6 499/3/6
f 499/3/6 496/3/6 500/3/6
f 497/4/6 498/4/6 503/4/6
f 503/4/6 498/4/6 504/4/6
f 500/5/6 501/5/6 505/5/6
f 505/5/6 501/5/6 506/5/6
f 502/4/6 503/4/6 508/4/6
f 508/4/6 503/4/6 509/4/6
f 506/5/6 507/5/6 510/5/6
f 507/3/6 508/3/6 511/3/6
f 510/5/6 507/5/6 511/5/6
f 511/3/6 508/3/6 512/3/6
f 513/5/6 514/5/6 517/5/6
f 514/3/6 515/3/6 518/3/6
f 517/5/6 514/5/6 518/5/6
f 518/3/6 515/3/6 519/3/6
f 516/5/6 517/5/6 521/5/6
f 521/5/6 517/5/6 522/5/6
f 519/3/6 520/3/6 523/3/6
f 523/3/6 520/3/6 524/3/6
f 521/3/6 522/3/6 525/3/6
f 525/3/6 522/3/6 526/3/6
f 523/4/6 524/4/6 528/4/6
f 528/4/6 524/4/6 529/4/6
f 526/5/6 527/5/6 530/5/6
f 527/3/6 528/3/6 531/3/6
f 530/5/6 527/5/6 531/5/6
f 531/3/6 528/3/6 532/3/6
f 533/9/6 534/9/6 536/9/6
f 536/9/6 534/9/6 537/9/6
f 537/9/6 534/9/6 538/9/6
f 538/9/6 539/9/6 540/9/6
f 540/9/6 539/9/6 541/9/6
f 535/8/6 536/8/6 542/8/6
f 542/8/6 536/8/6 543/8/6
f 540/8/6 541/8/6 545/8/6
f 545/8/6 541/8/6 546/8/6
f 543/9/6 544/9/6 547/9/6
f 544/8/6 545/8/6 548/8/6
f 547/9/6 544/9/6 548/9/6
f 548/8/6 545/8/6 549/8/6
f 550/1/6 551/1/6 553/1/6
f 551/2/6 552/2/6 553/2/6
f 553/2/6 552/2/6 554/2/6
f 550/1/6 553/1/6 555/1/6
f 553/1/6 554/1/6 555/1/6
f 555/1/6 554/1/6 556/1/6
