# MagicaVoxel @ Ephtracy

# group
g PotionsPickUps-1

# material
mtllib PotionsPickUps-1.mtl
usemtl palette

# normals
vn -1 0 0
vn 1 0 0
vn 0 0 1
vn 0 0 -1
vn 0 -1 0
vn 0 1 0

# texcoords
vt 0.146484 0.5
vt 0.150391 0.5
vt 0.154297 0.5
vt 0.357422 0.5
vt 0.361328 0.5
vt 0.849609 0.5
vt 0.857422 0.5
vt 0.919922 0.5
vt 0.923828 0.5

# verts
v -3 1 1
v -3 1 -0
v -3 1 -1
v -3 2 2
v -3 2 1
v -3 2 -1
v -3 2 -2
v -3 4 2
v -3 4 1
v -3 4 -1
v -3 4 -2
v -3 5 1
v -3 5 -0
v -3 5 -1
v -2 0 1
v -2 0 -1
v -2 1 2
v -2 1 1
v -2 1 -0
v -2 1 -1
v -2 1 -2
v -2 2 3
v -2 2 2
v -2 2 1
v -2 2 -1
v -2 2 -2
v -2 2 -3
v -2 4 3
v -2 4 2
v -2 4 1
v -2 4 -1
v -2 4 -2
v -2 4 -3
v -2 5 2
v -2 5 1
v -2 5 -0
v -2 5 -1
v -2 5 -2
v -2 6 1
v -2 6 -1
v -2 7 1
v -2 7 -1
v -2 8 1
v -2 8 -1
v -1 0 2
v -1 0 1
v -1 0 -1
v -1 0 -2
v -1 1 3
v -1 1 2
v -1 1 1
v -1 1 -1
v -1 1 -2
v -1 1 -3
v -1 2 3
v -1 2 2
v -1 2 -2
v -1 2 -3
v -1 4 3
v -1 4 2
v -1 4 -2
v -1 4 -3
v -1 5 3
v -1 5 2
v -1 5 1
v -1 5 -1
v -1 5 -2
v -1 5 -3
v -1 6 2
v -1 6 1
v -1 6 -0
v -1 6 -1
v -1 6 -2
v -1 7 2
v -1 7 1
v -1 7 -0
v -1 7 -1
v -1 7 -2
v -1 8 2
v -1 8 1
v -1 8 -1
v -1 8 -2
v -1 9 1
v -1 9 -1
v 1 0 2
v 1 0 1
v 1 0 -1
v 1 0 -2
v 1 1 3
v 1 1 2
v 1 1 1
v 1 1 -1
v 1 1 -2
v 1 1 -3
v 1 2 3
v 1 2 2
v 1 2 -2
v 1 2 -3
v 1 4 3
v 1 4 2
v 1 4 -2
v 1 4 -3
v 1 5 3
v 1 5 2
v 1 5 1
v 1 5 -1
v 1 5 -2
v 1 5 -3
v 1 6 2
v 1 6 1
v 1 6 -0
v 1 6 -1
v 1 6 -2
v 1 7 2
v 1 7 1
v 1 7 -0
v 1 7 -1
v 1 7 -2
v 1 8 2
v 1 8 1
v 1 8 -0
v 1 8 -1
v 1 8 -2
v 1 9 1
v 1 9 -0
v 1 9 -1
v 2 0 1
v 2 0 -0
v 2 0 -1
v 2 1 2
v 2 1 1
v 2 1 -0
v 2 1 -1
v 2 1 -2
v 2 2 3
v 2 2 2
v 2 2 1
v 2 2 -1
v 2 2 -2
v 2 2 -3
v 2 4 3
v 2 4 2
v 2 4 1
v 2 4 -1
v 2 4 -2
v 2 4 -3
v 2 5 2
v 2 5 1
v 2 5 -0
v 2 5 -1
v 2 5 -2
v 2 6 1
v 2 6 -0
v 2 6 -1
v 2 7 1
v 2 7 -0
v 2 7 -1
v 2 8 1
v 2 8 -0
v 2 8 -1
v 3 1 1
v 3 1 -0
v 3 1 -1
v 3 2 2
v 3 2 1
v 3 2 -0
v 3 2 -1
v 3 2 -2
v 3 4 2
v 3 4 1
v 3 4 -0
v 3 4 -1
v 3 4 -2
v 3 5 1
v 3 5 -0
v 3 5 -1
v -2 2 3
v -2 4 3
v -1 1 3
v -1 2 3
v -1 4 3
v -1 5 3
v 0 4 3
v 0 5 3
v 1 1 3
v 1 2 3
v 1 4 3
v 1 5 3
v 2 2 3
v 2 4 3
v -3 2 2
v -3 4 2
v -2 1 2
v -2 2 2
v -2 4 2
v -2 5 2
v -1 0 2
v -1 1 2
v -1 2 2
v -1 4 2
v -1 5 2
v -1 6 2
v -1 7 2
v -1 8 2
v 0 5 2
v 0 6 2
v 1 0 2
v 1 1 2
v 1 2 2
v 1 4 2
v 1 5 2
v 1 6 2
v 1 7 2
v 1 8 2
v 2 1 2
v 2 2 2
v 2 4 2
v 2 5 2
v 3 2 2
v 3 4 2
v -3 1 1
v -3 2 1
v -3 4 1
v -3 5 1
v -2 0 1
v -2 1 1
v -2 2 1
v -2 4 1
v -2 5 1
v -2 6 1
v -2 7 1
v -2 8 1
v -1 0 1
v -1 1 1
v -1 5 1
v -1 6 1
v -1 7 1
v -1 8 1
v -1 9 1
v 0 6 1
v 0 7 1
v 0 8 1
v 0 9 1
v 1 0 1
v 1 1 1
v 1 5 1
v 1 6 1
v 1 7 1
v 1 8 1
v 1 9 1
v 2 0 1
v 2 1 1
v 2 2 1
v 2 4 1
v 2 5 1
v 2 6 1
v 2 7 1
v 2 8 1
v 3 1 1
v 3 2 1
v 3 4 1
v 3 5 1
v -3 1 -1
v -3 2 -1
v -3 4 -1
v -3 5 -1
v -2 0 -1
v -2 1 -1
v -2 2 -1
v -2 4 -1
v -2 5 -1
v -2 6 -1
v -2 7 -1
v -2 8 -1
v -1 0 -1
v -1 1 -1
v -1 5 -1
v -1 6 -1
v -1 7 -1
v -1 8 -1
v -1 9 -1
v 0 6 -1
v 0 7 -1
v 0 8 -1
v 1 0 -1
v 1 1 -1
v 1 5 -1
v 1 6 -1
v 1 7 -1
v 1 8 -1
v 1 9 -1
v 2 0 -1
v 2 1 -1
v 2 2 -1
v 2 4 -1
v 2 5 -1
v 2 6 -1
v 2 7 -1
v 2 8 -1
v 3 1 -1
v 3 2 -1
v 3 4 -1
v 3 5 -1
v -3 2 -2
v -3 4 -2
v -2 1 -2
v -2 2 -2
v -2 4 -2
v -2 5 -2
v -1 0 -2
v -1 1 -2
v -1 2 -2
v -1 4 -2
v -1 5 -2
v -1 6 -2
v -1 7 -2
v -1 8 -2
v 0 0 -2
v 0 1 -2
v 0 5 -2
v 0 6 -2
v 0 7 -2
v 0 8 -2
v 1 0 -2
v 1 1 -2
v 1 2 -2
v 1 4 -2
v 1 5 -2
v 1 6 -2
v 1 7 -2
v 1 8 -2
v 2 1 -2
v 2 2 -2
v 2 4 -2
v 2 5 -2
v 3 2 -2
v 3 4 -2
v -2 2 -3
v -2 4 -3
v -1 1 -3
v -1 2 -3
v -1 4 -3
v -1 5 -3
v 0 1 -3
v 0 5 -3
v 1 1 -3
v 1 2 -3
v 1 4 -3
v 1 5 -3
v 2 2 -3
v 2 4 -3
v -1 0 2
v 1 0 2
v -2 0 1
v -1 0 1
v 1 0 1
v 2 0 1
v 1 0 -0
v 2 0 -0
v -2 0 -1
v -1 0 -1
v 0 0 -1
v 1 0 -1
v 2 0 -1
v -1 0 -2
v 0 0 -2
v 1 0 -2
v -1 1 3
v 1 1 3
v -2 1 2
v -1 1 2
v 1 1 2
v 2 1 2
v -3 1 1
v -2 1 1
v -1 1 1
v 1 1 1
v 2 1 1
v 3 1 1
v -3 1 -0
v -2 1 -0
v 2 1 -0
v 3 1 -0
v -3 1 -1
v -2 1 -1
v -1 1 -1
v 1 1 -1
v 2 1 -1
v 3 1 -1
v -2 1 -2
v -1 1 -2
v 0 1 -2
v 1 1 -2
v 2 1 -2
v -1 1 -3
v 0 1 -3
v 1 1 -3
v -2 2 3
v -1 2 3
v 1 2 3
v 2 2 3
v -3 2 2
v -2 2 2
v -1 2 2
v 1 2 2
v 2 2 2
v 3 2 2
v -3 2 1
v -2 2 1
v 2 2 1
v 3 2 1
v -3 2 -1
v -2 2 -1
v 2 2 -1
v 3 2 -1
v -3 2 -2
v -2 2 -2
v -1 2 -2
v 1 2 -2
v 2 2 -2
v 3 2 -2
v -2 2 -3
v -1 2 -3
v 1 2 -3
v 2 2 -3
v -1 7 2
v 1 7 2
v -2 7 1
v -1 7 1
v 0 7 1
v 1 7 1
v 2 7 1
v -1 7 -0
v 1 7 -0
v 2 7 -0
v -2 7 -1
v -1 7 -1
v 0 7 -1
v 1 7 -1
v 2 7 -1
v -1 7 -2
v 0 7 -2
v 1 7 -2
v -2 4 3
v -1 4 3
v 1 4 3
v 2 4 3
v -3 4 2
v -2 4 2
v -1 4 2
v 1 4 2
v 2 4 2
v 3 4 2
v -3 4 1
v -2 4 1
v 2 4 1
v 3 4 1
v -3 4 -1
v -2 4 -1
v 2 4 -1
v 3 4 -1
v -3 4 -2
v -2 4 -2
v -1 4 -2
v 1 4 -2
v 2 4 -2
v 3 4 -2
v -2 4 -3
v -1 4 -3
v 1 4 -3
v 2 4 -3
v -1 5 3
v 0 5 3
v 1 5 3
v -2 5 2
v -1 5 2
v 0 5 2
v 1 5 2
v 2 5 2
v -3 5 1
v -2 5 1
v -1 5 1
v 1 5 1
v 2 5 1
v 3 5 1
v -3 5 -0
v -2 5 -0
v 2 5 -0
v 3 5 -0
v -3 5 -1
v -2 5 -1
v -1 5 -1
v 1 5 -1
v 2 5 -1
v 3 5 -1
v -2 5 -2
v -1 5 -2
v 0 5 -2
v 1 5 -2
v 2 5 -2
v -1 5 -3
v 0 5 -3
v 1 5 -3
v -1 6 2
v 0 6 2
v 1 6 2
v -2 6 1
v -1 6 1
v 0 6 1
v 1 6 1
v 2 6 1
v -1 6 -0
v 1 6 -0
v 2 6 -0
v -2 6 -1
v -1 6 -1
v 0 6 -1
v 1 6 -1
v 2 6 -1
v -1 6 -2
v 0 6 -2
v 1 6 -2
v -1 8 2
v 1 8 2
v -2 8 1
v -1 8 1
v 0 8 1
v 1 8 1
v 2 8 1
v 1 8 -0
v 2 8 -0
v -2 8 -1
v -1 8 -1
v 0 8 -1
v 1 8 -1
v 2 8 -1
v -1 8 -2
v 0 8 -2
v 1 8 -2
v -1 9 1
v 0 9 1
v 1 9 1
v 0 9 -0
v 1 9 -0
v -1 9 -1
v 1 9 -1

# faces
f 5/3/1 2/3/1 1/3/1
f 6/1/1 3/1/1 2/1/1
f 8/3/1 5/3/1 4/3/1
f 9/3/1 2/3/1 5/3/1
f 9/3/1 5/3/1 8/3/1
f 10/1/1 7/1/1 6/1/1
f 10/1/1 6/1/1 2/1/1
f 11/1/1 7/1/1 10/1/1
f 12/3/1 2/3/1 9/3/1
f 13/1/1 10/1/1 2/1/1
f 13/3/1 2/3/1 12/3/1
f 14/1/1 10/1/1 13/1/1
f 18/3/1 16/3/1 15/3/1
f 19/3/1 16/3/1 18/3/1
f 20/3/1 16/3/1 19/3/1
f 23/2/1 18/2/1 17/2/1
f 24/2/1 18/2/1 23/2/1
f 25/1/1 21/1/1 20/1/1
f 26/1/1 21/1/1 25/1/1
f 28/2/1 23/2/1 22/2/1
f 29/2/1 23/2/1 28/2/1
f 32/1/1 27/1/1 26/1/1
f 33/1/1 27/1/1 32/1/1
f 34/3/1 30/3/1 29/3/1
f 35/3/1 30/3/1 34/3/1
f 37/1/1 32/1/1 31/1/1
f 38/1/1 32/1/1 37/1/1
f 39/1/1 36/1/1 35/1/1
f 39/1/1 37/1/1 36/1/1
f 40/1/1 37/1/1 39/1/1
f 43/8/1 42/8/1 41/8/1
f 44/8/1 42/8/1 43/8/1
f 50/2/1 46/2/1 45/2/1
f 51/2/1 46/2/1 50/2/1
f 52/3/1 48/3/1 47/3/1
f 53/3/1 48/3/1 52/3/1
f 55/2/1 50/2/1 49/2/1
f 56/2/1 50/2/1 55/2/1
f 57/3/1 54/3/1 53/3/1
f 58/3/1 54/3/1 57/3/1
f 63/2/1 60/2/1 59/2/1
f 64/2/1 60/2/1 63/2/1
f 67/3/1 62/3/1 61/3/1
f 68/3/1 62/3/1 67/3/1
f 69/2/1 65/2/1 64/2/1
f 70/2/1 65/2/1 69/2/1
f 72/3/1 67/3/1 66/3/1
f 73/3/1 67/3/1 72/3/1
f 75/2/1 71/2/1 70/2/1
f 76/1/1 72/1/1 71/1/1
f 76/2/1 71/2/1 75/2/1
f 77/1/1 72/1/1 76/1/1
f 79/9/1 75/9/1 74/9/1
f 80/9/1 75/9/1 79/9/1
f 81/9/1 78/9/1 77/9/1
f 82/9/1 78/9/1 81/9/1
f 83/4/1 81/4/1 80/4/1
f 84/4/1 81/4/1 83/4/1
f 85/2/2 86/2/2 90/2/2
f 90/2/2 86/2/2 91/2/2
f 87/2/2 88/2/2 92/2/2
f 92/2/2 88/2/2 93/2/2
f 89/2/2 90/2/2 95/2/2
f 95/2/2 90/2/2 96/2/2
f 93/2/2 94/2/2 97/2/2
f 97/2/2 94/2/2 98/2/2
f 99/1/2 100/1/2 103/1/2
f 103/1/2 100/1/2 104/1/2
f 101/2/2 102/2/2 107/2/2
f 107/2/2 102/2/2 108/2/2
f 104/1/2 105/1/2 109/1/2
f 109/1/2 105/1/2 110/1/2
f 106/2/2 107/2/2 112/2/2
f 112/2/2 107/2/2 113/2/2
f 110/1/2 111/1/2 115/1/2
f 111/2/2 112/2/2 116/2/2
f 115/1/2 111/1/2 116/1/2
f 116/2/2 112/2/2 117/2/2
f 114/9/2 115/9/2 119/9/2
f 119/9/2 115/9/2 120/9/2
f 117/8/2 118/8/2 122/8/2
f 122/8/2 118/8/2 123/8/2
f 120/5/2 121/5/2 124/5/2
f 121/4/2 122/4/2 125/4/2
f 124/5/2 121/5/2 125/5/2
f 125/4/2 122/4/2 126/4/2
f 127/3/2 128/3/2 131/3/2
f 128/2/2 129/2/2 132/2/2
f 131/3/2 128/3/2 132/3/2
f 132/2/2 129/2/2 133/2/2
f 130/1/2 131/1/2 136/1/2
f 136/1/2 131/1/2 137/1/2
f 133/2/2 134/2/2 138/2/2
f 138/2/2 134/2/2 139/2/2
f 135/1/2 136/1/2 141/1/2
f 141/1/2 136/1/2 142/1/2
f 139/2/2 140/2/2 145/2/2
f 145/2/2 140/2/2 146/2/2
f 142/1/2 143/1/2 147/1/2
f 147/1/2 143/1/2 148/1/2
f 144/3/2 145/3/2 150/3/2
f 150/3/2 145/3/2 151/3/2
f 148/1/2 149/1/2 152/1/2
f 149/3/2 150/3/2 153/3/2
f 152/1/2 149/1/2 153/1/2
f 153/3/2 150/3/2 154/3/2
f 155/9/2 156/9/2 158/9/2
f 156/8/2 157/8/2 159/8/2
f 158/9/2 156/9/2 159/9/2
f 159/8/2 157/8/2 160/8/2
f 161/3/2 162/3/2 165/3/2
f 162/2/2 163/2/2 166/2/2
f 165/3/2 162/3/2 166/3/2
f 166/2/2 163/2/2 167/2/2
f 164/1/2 165/1/2 169/1/2
f 167/3/2 168/3/2 170/3/2
f 169/1/2 165/1/2 170/1/2
f 165/3/2 166/3/2 170/3/2
f 166/3/2 167/3/2 170/3/2
f 170/3/2 168/3/2 171/3/2
f 171/3/2 168/3/2 172/3/2
f 172/3/2 168/3/2 173/3/2
f 170/1/2 171/1/2 174/1/2
f 171/3/2 172/3/2 175/3/2
f 174/1/2 171/1/2 175/1/2
f 175/3/2 172/3/2 176/3/2
f 180/2/3 178/2/3 177/2/3
f 181/2/3 178/2/3 180/2/3
f 183/2/3 180/2/3 179/2/3
f 183/2/3 182/2/3 181/2/3
f 183/2/3 181/2/3 180/2/3
f 184/2/3 182/2/3 183/2/3
f 185/2/3 183/2/3 179/2/3
f 186/2/3 183/2/3 185/2/3
f 187/1/3 184/1/3 183/1/3
f 187/2/3 183/2/3 186/2/3
f 188/1/3 184/1/3 187/1/3
f 189/1/3 187/1/3 186/1/3
f 190/1/3 187/1/3 189/1/3
f 194/3/3 192/3/3 191/3/3
f 195/3/3 192/3/3 194/3/3
f 198/2/3 194/2/3 193/2/3
f 199/2/3 194/2/3 198/2/3
f 200/3/3 196/3/3 195/3/3
f 201/3/3 196/3/3 200/3/3
f 205/2/3 202/2/3 201/2/3
f 206/2/3 202/2/3 205/2/3
f 207/2/3 198/2/3 197/2/3
f 208/2/3 198/2/3 207/2/3
f 211/1/3 206/1/3 205/1/3
f 212/1/3 206/1/3 211/1/3
f 213/9/3 204/9/3 203/9/3
f 214/9/3 204/9/3 213/9/3
f 215/1/3 209/1/3 208/1/3
f 216/1/3 209/1/3 215/1/3
f 217/1/3 211/1/3 210/1/3
f 218/1/3 211/1/3 217/1/3
f 219/1/3 217/1/3 216/1/3
f 220/1/3 217/1/3 219/1/3
f 226/3/3 222/3/3 221/3/3
f 227/3/3 222/3/3 226/3/3
f 228/3/3 224/3/3 223/3/3
f 229/3/3 224/3/3 228/3/3
f 233/3/3 226/3/3 225/3/3
f 234/3/3 226/3/3 233/3/3
f 235/1/3 230/1/3 229/1/3
f 236/1/3 230/1/3 235/1/3
f 237/8/3 232/8/3 231/8/3
f 238/8/3 232/8/3 237/8/3
f 240/2/3 237/2/3 236/2/3
f 241/2/3 237/2/3 240/2/3
f 242/4/3 239/4/3 238/4/3
f 243/4/3 239/4/3 242/4/3
f 247/1/3 241/1/3 240/1/3
f 248/1/3 241/1/3 247/1/3
f 249/5/3 243/5/3 242/5/3
f 250/5/3 243/5/3 249/5/3
f 251/3/3 245/3/3 244/3/3
f 252/3/3 245/3/3 251/3/3
f 255/1/3 247/1/3 246/1/3
f 256/1/3 247/1/3 255/1/3
f 257/9/3 249/9/3 248/9/3
f 258/9/3 249/9/3 257/9/3
f 259/3/3 253/3/3 252/3/3
f 260/3/3 253/3/3 259/3/3
f 261/1/3 255/1/3 254/1/3
f 262/1/3 255/1/3 261/1/3
f 263/1/4 264/1/4 268/1/4
f 268/1/4 264/1/4 269/1/4
f 265/1/4 266/1/4 270/1/4
f 270/1/4 266/1/4 271/1/4
f 267/3/4 268/3/4 275/3/4
f 275/3/4 268/3/4 276/3/4
f 271/1/4 272/1/4 277/1/4
f 277/1/4 272/1/4 278/1/4
f 273/8/4 274/8/4 279/8/4
f 279/8/4 274/8/4 280/8/4
f 278/1/4 279/1/4 282/1/4
f 282/1/4 279/1/4 283/1/4
f 280/4/4 281/4/4 284/4/4
f 282/2/4 283/2/4 288/2/4
f 288/2/4 283/2/4 289/2/4
f 284/4/4 281/4/4 290/4/4
f 290/4/4 281/4/4 291/4/4
f 285/2/4 286/2/4 292/2/4
f 292/2/4 286/2/4 293/2/4
f 287/3/4 288/3/4 296/3/4
f 296/3/4 288/3/4 297/3/4
f 289/8/4 290/8/4 298/8/4
f 298/8/4 290/8/4 299/8/4
f 293/2/4 294/2/4 300/2/4
f 300/2/4 294/2/4 301/2/4
f 295/3/4 296/3/4 302/3/4
f 302/3/4 296/3/4 303/3/4
f 304/1/4 305/1/4 307/1/4
f 307/1/4 305/1/4 308/1/4
f 306/1/4 307/1/4 311/1/4
f 311/1/4 307/1/4 312/1/4
f 308/1/4 309/1/4 313/1/4
f 313/1/4 309/1/4 314/1/4
f 310/3/4 311/3/4 318/3/4
f 318/3/4 311/3/4 319/3/4
f 314/3/4 315/3/4 320/3/4
f 320/3/4 315/3/4 321/3/4
f 316/9/4 317/9/4 322/9/4
f 322/9/4 317/9/4 323/9/4
f 318/2/4 319/2/4 324/2/4
f 324/2/4 319/2/4 325/2/4
f 320/2/4 321/2/4 328/2/4
f 328/2/4 321/2/4 329/2/4
f 322/8/4 323/8/4 330/8/4
f 330/8/4 323/8/4 331/8/4
f 325/2/4 326/2/4 332/2/4
f 332/2/4 326/2/4 333/2/4
f 327/3/4 328/3/4 334/3/4
f 334/3/4 328/3/4 335/3/4
f 333/3/4 334/3/4 336/3/4
f 336/3/4 334/3/4 337/3/4
f 338/1/4 339/1/4 341/1/4
f 341/1/4 339/1/4 342/1/4
f 340/3/4 341/3/4 344/3/4
f 342/3/4 343/3/4 344/3/4
f 341/3/4 342/3/4 344/3/4
f 344/3/4 343/3/4 345/3/4
f 344/2/4 345/2/4 346/2/4
f 346/2/4 345/2/4 347/2/4
f 347/2/4 345/2/4 348/2/4
f 348/2/4 345/2/4 349/2/4
f 347/2/4 348/2/4 350/2/4
f 350/2/4 348/2/4 351/2/4
f 355/2/5 353/2/5 352/2/5
f 356/2/5 353/2/5 355/2/5
f 358/6/5 356/6/5 355/6/5
f 358/3/5 357/3/5 356/3/5
f 359/3/5 357/3/5 358/3/5
f 360/3/5 355/3/5 354/3/5
f 361/6/5 358/6/5 355/6/5
f 361/3/5 355/3/5 360/3/5
f 362/6/5 358/6/5 361/6/5
f 363/2/5 359/2/5 358/2/5
f 363/6/5 358/6/5 362/6/5
f 364/2/5 359/2/5 363/2/5
f 365/3/5 362/3/5 361/3/5
f 366/2/5 363/2/5 362/2/5
f 366/3/5 362/3/5 365/3/5
f 367/2/5 363/2/5 366/2/5
f 371/2/5 369/2/5 368/2/5
f 372/2/5 369/2/5 371/2/5
f 375/2/5 371/2/5 370/2/5
f 376/2/5 371/2/5 375/2/5
f 377/1/5 373/1/5 372/1/5
f 378/1/5 373/1/5 377/1/5
f 380/3/5 375/3/5 374/3/5
f 381/3/5 375/3/5 380/3/5
f 382/3/5 379/3/5 378/3/5
f 383/3/5 379/3/5 382/3/5
f 384/1/5 381/1/5 380/1/5
f 385/1/5 381/1/5 384/1/5
f 388/2/5 383/2/5 382/2/5
f 389/2/5 383/2/5 388/2/5
f 390/1/5 386/1/5 385/1/5
f 391/1/5 386/1/5 390/1/5
f 393/2/5 388/2/5 387/2/5
f 394/2/5 388/2/5 393/2/5
f 395/3/5 392/3/5 391/3/5
f 396/2/5 393/2/5 392/2/5
f 396/3/5 392/3/5 395/3/5
f 397/2/5 393/2/5 396/2/5
f 403/2/5 399/2/5 398/2/5
f 404/2/5 399/2/5 403/2/5
f 405/1/5 401/1/5 400/1/5
f 406/1/5 401/1/5 405/1/5
f 408/3/5 403/3/5 402/3/5
f 409/3/5 403/3/5 408/3/5
f 410/1/5 407/1/5 406/1/5
f 411/1/5 407/1/5 410/1/5
f 416/1/5 413/1/5 412/1/5
f 417/1/5 413/1/5 416/1/5
f 420/3/5 415/3/5 414/3/5
f 421/3/5 415/3/5 420/3/5
f 422/1/5 418/1/5 417/1/5
f 423/1/5 418/1/5 422/1/5
f 424/2/5 420/2/5 419/2/5
f 425/2/5 420/2/5 424/2/5
f 429/9/5 427/9/5 426/9/5
f 430/9/5 427/9/5 429/9/5
f 431/9/5 427/9/5 430/9/5
f 433/8/5 429/8/5 428/8/5
f 434/9/5 432/9/5 431/9/5
f 435/9/5 432/9/5 434/9/5
f 436/8/5 433/8/5 428/8/5
f 437/8/5 433/8/5 436/8/5
f 439/8/5 435/8/5 434/8/5
f 440/8/5 435/8/5 439/8/5
f 441/9/5 438/9/5 437/9/5
f 442/8/5 439/8/5 438/8/5
f 442/9/5 438/9/5 441/9/5
f 443/8/5 439/8/5 442/8/5
f 444/2/6 445/2/6 449/2/6
f 449/2/6 445/2/6 450/2/6
f 446/1/6 447/1/6 451/1/6
f 451/1/6 447/1/6 452/1/6
f 448/3/6 449/3/6 454/3/6
f 454/3/6 449/3/6 455/3/6
f 452/1/6 453/1/6 456/1/6
f 456/1/6 453/1/6 457/1/6
f 458/1/6 459/1/6 462/1/6
f 462/1/6 459/1/6 463/1/6
f 460/3/6 461/3/6 466/3/6
f 466/3/6 461/3/6 467/3/6
f 463/1/6 464/1/6 468/1/6
f 468/1/6 464/1/6 469/1/6
f 465/2/6 466/2/6 470/2/6
f 470/2/6 466/2/6 471/2/6
f 472/2/6 473/2/6 476/2/6
f 473/1/6 474/1/6 477/1/6
f 476/2/6 473/2/6 477/2/6
f 477/1/6 474/1/6 478/1/6
f 475/3/6 476/3/6 481/3/6
f 481/3/6 476/3/6 482/3/6
f 478/1/6 479/1/6 483/1/6
f 483/1/6 479/1/6 484/1/6
f 480/3/6 481/3/6 486/3/6
f 486/3/6 481/3/6 487/3/6
f 484/1/6 485/1/6 488/1/6
f 488/1/6 485/1/6 489/1/6
f 486/1/6 487/1/6 490/1/6
f 490/1/6 487/1/6 491/1/6
f 488/3/6 489/3/6 494/3/6
f 494/3/6 489/3/6 495/3/6
f 491/1/6 492/1/6 496/1/6
f 496/1/6 492/1/6 497/1/6
f 493/3/6 494/3/6 499/3/6
f 499/3/6 494/3/6 500/3/6
f 497/3/6 498/3/6 501/3/6
f 498/2/6 499/2/6 502/2/6
f 501/3/6 498/3/6 502/3/6
f 502/2/6 499/2/6 503/2/6
f 504/2/6 505/2/6 508/2/6
f 505/1/6 506/1/6 509/1/6
f 508/2/6 505/2/6 509/2/6
f 509/1/6 506/1/6 510/1/6
f 507/1/6 508/1/6 512/1/6
f 510/1/6 511/1/6 513/1/6
f 513/1/6 511/1/6 514/1/6
f 507/1/6 512/1/6 515/1/6
f 515/1/6 512/1/6 516/1/6
f 513/3/6 514/3/6 518/3/6
f 518/3/6 514/3/6 519/3/6
f 516/3/6 517/3/6 520/3/6
f 517/2/6 518/2/6 521/2/6
f 520/3/6 517/3/6 521/3/6
f 521/2/6 518/2/6 522/2/6
f 523/9/6 524/9/6 526/9/6
f 526/9/6 524/9/6 527/9/6
f 527/9/6 524/9/6 528/9/6
f 528/9/6 529/9/6 530/9/6
f 530/9/6 529/9/6 531/9/6
f 525/8/6 526/8/6 532/8/6
f 532/8/6 526/8/6 533/8/6
f 530/8/6 531/8/6 535/8/6
f 535/8/6 531/8/6 536/8/6
f 533/9/6 534/9/6 537/9/6
f 534/8/6 535/8/6 538/8/6
f 537/9/6 534/9/6 538/9/6
f 538/8/6 535/8/6 539/8/6
f 540/4/6 541/4/6 543/4/6
f 541/5/6 542/5/6 543/5/6
f 543/5/6 542/5/6 544/5/6
f 540/4/6 543/4/6 545/4/6
f 543/4/6 544/4/6 545/4/6
f 545/4/6 544/4/6 546/4/6
