# MagicaVoxel @ Ephtracy

# group
g PotionsPickUps-0

# material
mtllib PotionsPickUps-0.mtl
usemtl palette

# normals
vn -1 0 0
vn 1 0 0
vn 0 0 1
vn 0 0 -1
vn 0 -1 0
vn 0 1 0

# texcoords
vt 0.357422 0.5
vt 0.361328 0.5
vt 0.849609 0.5
vt 0.853516 0.5
vt 0.857422 0.5
vt 0.919922 0.5
vt 0.923828 0.5

# verts
v -3 1 1
v -3 1 -0
v -3 1 -1
v -3 2 2
v -3 2 1
v -3 2 -1
v -3 2 -2
v -3 4 2
v -3 4 1
v -3 4 -1
v -3 4 -2
v -3 5 1
v -3 5 -0
v -3 5 -1
v -2 0 1
v -2 0 -1
v -2 1 2
v -2 1 1
v -2 1 -0
v -2 1 -1
v -2 1 -2
v -2 2 3
v -2 2 2
v -2 2 1
v -2 2 -1
v -2 2 -2
v -2 2 -3
v -2 4 3
v -2 4 2
v -2 4 1
v -2 4 -1
v -2 4 -2
v -2 4 -3
v -2 5 2
v -2 5 1
v -2 5 -0
v -2 5 -1
v -2 5 -2
v -2 6 1
v -2 6 -1
v -2 7 1
v -2 7 -1
v -2 8 1
v -2 8 -1
v -1 0 2
v -1 0 1
v -1 0 -1
v -1 0 -2
v -1 1 3
v -1 1 2
v -1 1 1
v -1 1 -1
v -1 1 -2
v -1 1 -3
v -1 2 3
v -1 2 2
v -1 2 -2
v -1 2 -3
v -1 4 3
v -1 4 2
v -1 4 -2
v -1 4 -3
v -1 5 3
v -1 5 2
v -1 5 1
v -1 5 -1
v -1 5 -2
v -1 5 -3
v -1 6 2
v -1 6 1
v -1 6 -0
v -1 6 -1
v -1 6 -2
v -1 7 2
v -1 7 1
v -1 7 -0
v -1 7 -1
v -1 7 -2
v -1 8 2
v -1 8 1
v -1 8 -1
v -1 8 -2
v -1 9 1
v -1 9 -1
v 1 0 2
v 1 0 1
v 1 0 -1
v 1 0 -2
v 1 1 3
v 1 1 2
v 1 1 1
v 1 1 -1
v 1 1 -2
v 1 1 -3
v 1 2 3
v 1 2 2
v 1 2 -2
v 1 2 -3
v 1 4 3
v 1 4 2
v 1 4 -2
v 1 4 -3
v 1 5 3
v 1 5 2
v 1 5 1
v 1 5 -1
v 1 5 -2
v 1 5 -3
v 1 6 2
v 1 6 1
v 1 6 -0
v 1 6 -1
v 1 6 -2
v 1 7 2
v 1 7 1
v 1 7 -0
v 1 7 -1
v 1 7 -2
v 1 8 2
v 1 8 1
v 1 8 -0
v 1 8 -1
v 1 8 -2
v 1 9 1
v 1 9 -0
v 1 9 -1
v 2 0 1
v 2 0 -0
v 2 0 -1
v 2 1 2
v 2 1 1
v 2 1 -0
v 2 1 -1
v 2 1 -2
v 2 2 3
v 2 2 2
v 2 2 1
v 2 2 -1
v 2 2 -2
v 2 2 -3
v 2 4 3
v 2 4 2
v 2 4 1
v 2 4 -1
v 2 4 -2
v 2 4 -3
v 2 5 2
v 2 5 1
v 2 5 -0
v 2 5 -1
v 2 5 -2
v 2 6 1
v 2 6 -0
v 2 6 -1
v 2 7 1
v 2 7 -0
v 2 7 -1
v 2 8 1
v 2 8 -0
v 2 8 -1
v 3 1 1
v 3 1 -0
v 3 1 -1
v 3 2 2
v 3 2 1
v 3 2 -0
v 3 2 -1
v 3 2 -2
v 3 4 2
v 3 4 1
v 3 4 -0
v 3 4 -1
v 3 4 -2
v 3 5 1
v 3 5 -0
v 3 5 -1
v -2 2 3
v -2 4 3
v -1 1 3
v -1 2 3
v -1 4 3
v -1 5 3
v 0 4 3
v 0 5 3
v 1 1 3
v 1 2 3
v 1 4 3
v 1 5 3
v 2 2 3
v 2 4 3
v -3 2 2
v -3 4 2
v -2 1 2
v -2 2 2
v -2 4 2
v -2 5 2
v -1 0 2
v -1 1 2
v -1 2 2
v -1 4 2
v -1 5 2
v -1 6 2
v -1 7 2
v -1 8 2
v 0 5 2
v 0 6 2
v 1 0 2
v 1 1 2
v 1 2 2
v 1 4 2
v 1 5 2
v 1 6 2
v 1 7 2
v 1 8 2
v 2 1 2
v 2 2 2
v 2 4 2
v 2 5 2
v 3 2 2
v 3 4 2
v -3 1 1
v -3 2 1
v -3 4 1
v -3 5 1
v -2 0 1
v -2 1 1
v -2 2 1
v -2 4 1
v -2 5 1
v -2 6 1
v -2 7 1
v -2 8 1
v -1 0 1
v -1 1 1
v -1 5 1
v -1 6 1
v -1 7 1
v -1 8 1
v -1 9 1
v 0 6 1
v 0 7 1
v 0 8 1
v 0 9 1
v 1 0 1
v 1 1 1
v 1 5 1
v 1 6 1
v 1 7 1
v 1 8 1
v 1 9 1
v 2 0 1
v 2 1 1
v 2 2 1
v 2 4 1
v 2 5 1
v 2 6 1
v 2 7 1
v 2 8 1
v 3 1 1
v 3 2 1
v 3 4 1
v 3 5 1
v -3 1 -1
v -3 2 -1
v -3 4 -1
v -3 5 -1
v -2 0 -1
v -2 1 -1
v -2 2 -1
v -2 4 -1
v -2 5 -1
v -2 6 -1
v -2 7 -1
v -2 8 -1
v -1 0 -1
v -1 1 -1
v -1 5 -1
v -1 6 -1
v -1 7 -1
v -1 8 -1
v -1 9 -1
v 0 6 -1
v 0 7 -1
v 0 8 -1
v 1 0 -1
v 1 1 -1
v 1 5 -1
v 1 6 -1
v 1 7 -1
v 1 8 -1
v 1 9 -1
v 2 0 -1
v 2 1 -1
v 2 2 -1
v 2 4 -1
v 2 5 -1
v 2 6 -1
v 2 7 -1
v 2 8 -1
v 3 1 -1
v 3 2 -1
v 3 4 -1
v 3 5 -1
v -3 2 -2
v -3 4 -2
v -2 1 -2
v -2 2 -2
v -2 4 -2
v -2 5 -2
v -1 0 -2
v -1 1 -2
v -1 2 -2
v -1 4 -2
v -1 5 -2
v -1 6 -2
v -1 7 -2
v -1 8 -2
v 0 0 -2
v 0 1 -2
v 0 5 -2
v 0 7 -2
v 0 8 -2
v 1 0 -2
v 1 1 -2
v 1 2 -2
v 1 4 -2
v 1 5 -2
v 1 6 -2
v 1 7 -2
v 1 8 -2
v 2 1 -2
v 2 2 -2
v 2 4 -2
v 2 5 -2
v 3 2 -2
v 3 4 -2
v -2 2 -3
v -2 4 -3
v -1 1 -3
v -1 2 -3
v -1 4 -3
v -1 5 -3
v 0 1 -3
v 0 5 -3
v 1 1 -3
v 1 2 -3
v 1 4 -3
v 1 5 -3
v 2 2 -3
v 2 4 -3
v -1 0 2
v 1 0 2
v -2 0 1
v -1 0 1
v 1 0 1
v 2 0 1
v 1 0 -0
v 2 0 -0
v -2 0 -1
v -1 0 -1
v 0 0 -1
v 1 0 -1
v 2 0 -1
v -1 0 -2
v 0 0 -2
v 1 0 -2
v -1 1 3
v 1 1 3
v -2 1 2
v -1 1 2
v 1 1 2
v 2 1 2
v -3 1 1
v -2 1 1
v -1 1 1
v 1 1 1
v 2 1 1
v 3 1 1
v -3 1 -0
v -2 1 -0
v 2 1 -0
v 3 1 -0
v -3 1 -1
v -2 1 -1
v -1 1 -1
v 1 1 -1
v 2 1 -1
v 3 1 -1
v -2 1 -2
v -1 1 -2
v 0 1 -2
v 1 1 -2
v 2 1 -2
v -1 1 -3
v 0 1 -3
v 1 1 -3
v -2 2 3
v -1 2 3
v 1 2 3
v 2 2 3
v -3 2 2
v -2 2 2
v -1 2 2
v 1 2 2
v 2 2 2
v 3 2 2
v -3 2 1
v -2 2 1
v 2 2 1
v 3 2 1
v -3 2 -1
v -2 2 -1
v 2 2 -1
v 3 2 -1
v -3 2 -2
v -2 2 -2
v -1 2 -2
v 1 2 -2
v 2 2 -2
v 3 2 -2
v -2 2 -3
v -1 2 -3
v 1 2 -3
v 2 2 -3
v -1 7 2
v 1 7 2
v -2 7 1
v -1 7 1
v 0 7 1
v 1 7 1
v 2 7 1
v -1 7 -0
v 1 7 -0
v 2 7 -0
v -2 7 -1
v -1 7 -1
v 0 7 -1
v 1 7 -1
v 2 7 -1
v -1 7 -2
v 0 7 -2
v 1 7 -2
v -2 4 3
v -1 4 3
v 1 4 3
v 2 4 3
v -3 4 2
v -2 4 2
v -1 4 2
v 1 4 2
v 2 4 2
v 3 4 2
v -3 4 1
v -2 4 1
v 2 4 1
v 3 4 1
v -3 4 -1
v -2 4 -1
v 2 4 -1
v 3 4 -1
v -3 4 -2
v -2 4 -2
v -1 4 -2
v 1 4 -2
v 2 4 -2
v 3 4 -2
v -2 4 -3
v -1 4 -3
v 1 4 -3
v 2 4 -3
v -1 5 3
v 0 5 3
v 1 5 3
v -2 5 2
v -1 5 2
v 0 5 2
v 1 5 2
v 2 5 2
v -3 5 1
v -2 5 1
v -1 5 1
v 1 5 1
v 2 5 1
v 3 5 1
v -3 5 -0
v -2 5 -0
v 2 5 -0
v 3 5 -0
v -3 5 -1
v -2 5 -1
v -1 5 -1
v 1 5 -1
v 2 5 -1
v 3 5 -1
v -2 5 -2
v -1 5 -2
v 0 5 -2
v 1 5 -2
v 2 5 -2
v -1 5 -3
v 0 5 -3
v 1 5 -3
v -1 6 2
v 0 6 2
v 1 6 2
v -2 6 1
v -1 6 1
v 0 6 1
v 1 6 1
v 2 6 1
v -1 6 -0
v 1 6 -0
v 2 6 -0
v -2 6 -1
v -1 6 -1
v 0 6 -1
v 1 6 -1
v 2 6 -1
v -1 6 -2
v 1 6 -2
v -1 8 2
v 1 8 2
v -2 8 1
v -1 8 1
v 0 8 1
v 1 8 1
v 2 8 1
v 1 8 -0
v 2 8 -0
v -2 8 -1
v -1 8 -1
v 0 8 -1
v 1 8 -1
v 2 8 -1
v -1 8 -2
v 0 8 -2
v 1 8 -2
v -1 9 1
v 0 9 1
v 1 9 1
v 0 9 -0
v 1 9 -0
v -1 9 -1
v 1 9 -1

# faces
f 5/5/1 2/5/1 1/5/1
f 6/4/1 3/4/1 2/4/1
f 8/5/1 5/5/1 4/5/1
f 9/5/1 2/5/1 5/5/1
f 9/5/1 5/5/1 8/5/1
f 10/4/1 7/4/1 6/4/1
f 10/4/1 6/4/1 2/4/1
f 11/4/1 7/4/1 10/4/1
f 12/5/1 2/5/1 9/5/1
f 13/4/1 10/4/1 2/4/1
f 13/5/1 2/5/1 12/5/1
f 14/4/1 10/4/1 13/4/1
f 18/5/1 16/5/1 15/5/1
f 19/5/1 16/5/1 18/5/1
f 20/5/1 16/5/1 19/5/1
f 23/3/1 18/3/1 17/3/1
f 24/3/1 18/3/1 23/3/1
f 25/4/1 21/4/1 20/4/1
f 26/4/1 21/4/1 25/4/1
f 28/3/1 23/3/1 22/3/1
f 29/3/1 23/3/1 28/3/1
f 32/4/1 27/4/1 26/4/1
f 33/4/1 27/4/1 32/4/1
f 34/5/1 30/5/1 29/5/1
f 35/5/1 30/5/1 34/5/1
f 37/4/1 32/4/1 31/4/1
f 38/4/1 32/4/1 37/4/1
f 39/4/1 36/4/1 35/4/1
f 39/4/1 37/4/1 36/4/1
f 40/4/1 37/4/1 39/4/1
f 43/6/1 42/6/1 41/6/1
f 44/6/1 42/6/1 43/6/1
f 50/3/1 46/3/1 45/3/1
f 51/3/1 46/3/1 50/3/1
f 52/5/1 48/5/1 47/5/1
f 53/5/1 48/5/1 52/5/1
f 55/3/1 50/3/1 49/3/1
f 56/3/1 50/3/1 55/3/1
f 57/5/1 54/5/1 53/5/1
f 58/5/1 54/5/1 57/5/1
f 63/3/1 60/3/1 59/3/1
f 64/3/1 60/3/1 63/3/1
f 67/5/1 62/5/1 61/5/1
f 68/5/1 62/5/1 67/5/1
f 69/5/1 65/5/1 64/5/1
f 70/5/1 65/5/1 69/5/1
f 72/5/1 67/5/1 66/5/1
f 73/5/1 67/5/1 72/5/1
f 75/5/1 71/5/1 70/5/1
f 76/4/1 72/4/1 71/4/1
f 76/5/1 71/5/1 75/5/1
f 77/4/1 72/4/1 76/4/1
f 79/7/1 75/7/1 74/7/1
f 80/7/1 75/7/1 79/7/1
f 81/7/1 78/7/1 77/7/1
f 82/7/1 78/7/1 81/7/1
f 83/1/1 81/1/1 80/1/1
f 84/1/1 81/1/1 83/1/1
f 85/3/2 86/3/2 90/3/2
f 90/3/2 86/3/2 91/3/2
f 87/3/2 88/3/2 92/3/2
f 92/3/2 88/3/2 93/3/2
f 89/3/2 90/3/2 95/3/2
f 95/3/2 90/3/2 96/3/2
f 93/3/2 94/3/2 97/3/2
f 97/3/2 94/3/2 98/3/2
f 99/4/2 100/4/2 103/4/2
f 103/4/2 100/4/2 104/4/2
f 101/3/2 102/3/2 107/3/2
f 107/3/2 102/3/2 108/3/2
f 104/4/2 105/4/2 109/4/2
f 109/4/2 105/4/2 110/4/2
f 106/5/2 107/5/2 112/5/2
f 112/5/2 107/5/2 113/5/2
f 110/4/2 111/4/2 115/4/2
f 111/5/2 112/5/2 116/5/2
f 115/4/2 111/4/2 116/4/2
f 116/5/2 112/5/2 117/5/2
f 114/7/2 115/7/2 119/7/2
f 119/7/2 115/7/2 120/7/2
f 117/6/2 118/6/2 122/6/2
f 122/6/2 118/6/2 123/6/2
f 120/2/2 121/2/2 124/2/2
f 121/1/2 122/1/2 125/1/2
f 124/2/2 121/2/2 125/2/2
f 125/1/2 122/1/2 126/1/2
f 127/5/2 128/5/2 131/5/2
f 128/3/2 129/3/2 132/3/2
f 131/5/2 128/5/2 132/5/2
f 132/3/2 129/3/2 133/3/2
f 130/3/2 131/3/2 136/3/2
f 136/3/2 131/3/2 137/3/2
f 133/3/2 134/3/2 138/3/2
f 138/3/2 134/3/2 139/3/2
f 135/4/2 136/4/2 141/4/2
f 141/4/2 136/4/2 142/4/2
f 139/3/2 140/3/2 145/3/2
f 145/3/2 140/3/2 146/3/2
f 142/4/2 143/4/2 147/4/2
f 147/4/2 143/4/2 148/4/2
f 144/5/2 145/5/2 150/5/2
f 150/5/2 145/5/2 151/5/2
f 148/4/2 149/4/2 152/4/2
f 149/5/2 150/5/2 153/5/2
f 152/4/2 149/4/2 153/4/2
f 153/5/2 150/5/2 154/5/2
f 155/7/2 156/7/2 158/7/2
f 156/6/2 157/6/2 159/6/2
f 158/7/2 156/7/2 159/7/2
f 159/6/2 157/6/2 160/6/2
f 161/5/2 162/5/2 165/5/2
f 162/3/2 163/3/2 166/3/2
f 165/5/2 162/5/2 166/5/2
f 166/3/2 163/3/2 167/3/2
f 164/4/2 165/4/2 169/4/2
f 167/5/2 168/5/2 170/5/2
f 169/4/2 165/4/2 170/4/2
f 165/5/2 166/5/2 170/5/2
f 166/5/2 167/5/2 170/5/2
f 170/5/2 168/5/2 171/5/2
f 171/5/2 168/5/2 172/5/2
f 172/5/2 168/5/2 173/5/2
f 170/4/2 171/4/2 174/4/2
f 171/5/2 172/5/2 175/5/2
f 174/4/2 171/4/2 175/4/2
f 175/5/2 172/5/2 176/5/2
f 180/3/3 178/3/3 177/3/3
f 181/3/3 178/3/3 180/3/3
f 183/3/3 180/3/3 179/3/3
f 183/3/3 182/3/3 181/3/3
f 183/3/3 181/3/3 180/3/3
f 184/3/3 182/3/3 183/3/3
f 185/3/3 183/3/3 179/3/3
f 186/3/3 183/3/3 185/3/3
f 187/4/3 184/4/3 183/4/3
f 187/3/3 183/3/3 186/3/3
f 188/4/3 184/4/3 187/4/3
f 189/4/3 187/4/3 186/4/3
f 190/4/3 187/4/3 189/4/3
f 194/5/3 192/5/3 191/5/3
f 195/5/3 192/5/3 194/5/3
f 198/3/3 194/3/3 193/3/3
f 199/3/3 194/3/3 198/3/3
f 200/5/3 196/5/3 195/5/3
f 201/5/3 196/5/3 200/5/3
f 205/5/3 202/5/3 201/5/3
f 206/5/3 202/5/3 205/5/3
f 207/3/3 198/3/3 197/3/3
f 208/3/3 198/3/3 207/3/3
f 211/4/3 206/4/3 205/4/3
f 212/4/3 206/4/3 211/4/3
f 213/7/3 204/7/3 203/7/3
f 214/7/3 204/7/3 213/7/3
f 215/3/3 209/3/3 208/3/3
f 216/3/3 209/3/3 215/3/3
f 217/4/3 211/4/3 210/4/3
f 218/4/3 211/4/3 217/4/3
f 219/4/3 217/4/3 216/4/3
f 220/4/3 217/4/3 219/4/3
f 226/5/3 222/5/3 221/5/3
f 227/5/3 222/5/3 226/5/3
f 228/5/3 224/5/3 223/5/3
f 229/5/3 224/5/3 228/5/3
f 233/5/3 226/5/3 225/5/3
f 234/5/3 226/5/3 233/5/3
f 235/4/3 230/4/3 229/4/3
f 236/4/3 230/4/3 235/4/3
f 237/6/3 232/6/3 231/6/3
f 238/6/3 232/6/3 237/6/3
f 240/5/3 237/5/3 236/5/3
f 241/5/3 237/5/3 240/5/3
f 242/1/3 239/1/3 238/1/3
f 243/1/3 239/1/3 242/1/3
f 247/4/3 241/4/3 240/4/3
f 248/4/3 241/4/3 247/4/3
f 249/2/3 243/2/3 242/2/3
f 250/2/3 243/2/3 249/2/3
f 251/5/3 245/5/3 244/5/3
f 252/5/3 245/5/3 251/5/3
f 255/4/3 247/4/3 246/4/3
f 256/4/3 247/4/3 255/4/3
f 257/7/3 249/7/3 248/7/3
f 258/7/3 249/7/3 257/7/3
f 259/5/3 253/5/3 252/5/3
f 260/5/3 253/5/3 259/5/3
f 261/4/3 255/4/3 254/4/3
f 262/4/3 255/4/3 261/4/3
f 263/4/4 264/4/4 268/4/4
f 268/4/4 264/4/4 269/4/4
f 265/4/4 266/4/4 270/4/4
f 270/4/4 266/4/4 271/4/4
f 267/5/4 268/5/4 275/5/4
f 275/5/4 268/5/4 276/5/4
f 271/4/4 272/4/4 277/4/4
f 277/4/4 272/4/4 278/4/4
f 273/6/4 274/6/4 279/6/4
f 279/6/4 274/6/4 280/6/4
f 278/4/4 279/4/4 282/4/4
f 282/4/4 279/4/4 283/4/4
f 280/1/4 281/1/4 284/1/4
f 282/5/4 283/5/4 288/5/4
f 288/5/4 283/5/4 289/5/4
f 284/1/4 281/1/4 290/1/4
f 290/1/4 281/1/4 291/1/4
f 285/3/4 286/3/4 292/3/4
f 292/3/4 286/3/4 293/3/4
f 287/5/4 288/5/4 296/5/4
f 296/5/4 288/5/4 297/5/4
f 289/6/4 290/6/4 298/6/4
f 298/6/4 290/6/4 299/6/4
f 293/3/4 294/3/4 300/3/4
f 300/3/4 294/3/4 301/3/4
f 295/5/4 296/5/4 302/5/4
f 302/5/4 296/5/4 303/5/4
f 304/4/4 305/4/4 307/4/4
f 307/4/4 305/4/4 308/4/4
f 306/4/4 307/4/4 311/4/4
f 311/4/4 307/4/4 312/4/4
f 308/4/4 309/4/4 313/4/4
f 313/4/4 309/4/4 314/4/4
f 310/5/4 311/5/4 318/5/4
f 318/5/4 311/5/4 319/5/4
f 314/5/4 315/5/4 320/5/4
f 316/7/4 317/7/4 321/7/4
f 321/7/4 317/7/4 322/7/4
f 318/3/4 319/3/4 323/3/4
f 323/3/4 319/3/4 324/3/4
f 320/5/4 315/5/4 327/5/4
f 327/5/4 315/5/4 328/5/4
f 321/6/4 322/6/4 329/6/4
f 329/6/4 322/6/4 330/6/4
f 324/3/4 325/3/4 331/3/4
f 331/3/4 325/3/4 332/3/4
f 326/5/4 327/5/4 333/5/4
f 333/5/4 327/5/4 334/5/4
f 332/5/4 333/5/4 335/5/4
f 335/5/4 333/5/4 336/5/4
f 337/4/4 338/4/4 340/4/4
f 340/4/4 338/4/4 341/4/4
f 339/5/4 340/5/4 343/5/4
f 341/5/4 342/5/4 343/5/4
f 340/5/4 341/5/4 343/5/4
f 343/5/4 342/5/4 344/5/4
f 343/3/4 344/3/4 345/3/4
f 345/3/4 344/3/4 346/3/4
f 346/3/4 344/3/4 347/3/4
f 347/3/4 344/3/4 348/3/4
f 346/3/4 347/3/4 349/3/4
f 349/3/4 347/3/4 350/3/4
f 354/3/5 352/3/5 351/3/5
f 355/3/5 352/3/5 354/3/5
f 357/3/5 355/3/5 354/3/5
f 357/5/5 356/5/5 355/5/5
f 358/5/5 356/5/5 357/5/5
f 359/5/5 354/5/5 353/5/5
f 360/3/5 357/3/5 354/3/5
f 360/5/5 354/5/5 359/5/5
f 360/3/5 358/3/5 357/3/5
f 361/3/5 358/3/5 360/3/5
f 362/3/5 358/3/5 361/3/5
f 363/3/5 358/3/5 362/3/5
f 364/5/5 361/5/5 360/5/5
f 365/3/5 362/3/5 361/3/5
f 365/5/5 361/5/5 364/5/5
f 366/3/5 362/3/5 365/3/5
f 370/3/5 368/3/5 367/3/5
f 371/3/5 368/3/5 370/3/5
f 374/3/5 370/3/5 369/3/5
f 375/3/5 370/3/5 374/3/5
f 376/3/5 372/3/5 371/3/5
f 377/3/5 372/3/5 376/3/5
f 379/5/5 374/5/5 373/5/5
f 380/5/5 374/5/5 379/5/5
f 381/5/5 378/5/5 377/5/5
f 382/5/5 378/5/5 381/5/5
f 383/4/5 380/4/5 379/4/5
f 384/4/5 380/4/5 383/4/5
f 387/3/5 382/3/5 381/3/5
f 388/3/5 382/3/5 387/3/5
f 389/4/5 385/4/5 384/4/5
f 390/4/5 385/4/5 389/4/5
f 392/3/5 387/3/5 386/3/5
f 393/3/5 387/3/5 392/3/5
f 394/5/5 391/5/5 390/5/5
f 395/3/5 392/3/5 391/3/5
f 395/5/5 391/5/5 394/5/5
f 396/3/5 392/3/5 395/3/5
f 402/3/5 398/3/5 397/3/5
f 403/3/5 398/3/5 402/3/5
f 404/4/5 400/4/5 399/4/5
f 405/4/5 400/4/5 404/4/5
f 407/5/5 402/5/5 401/5/5
f 408/5/5 402/5/5 407/5/5
f 409/4/5 406/4/5 405/4/5
f 410/4/5 406/4/5 409/4/5
f 415/4/5 412/4/5 411/4/5
f 416/4/5 412/4/5 415/4/5
f 419/5/5 414/5/5 413/5/5
f 420/5/5 414/5/5 419/5/5
f 421/4/5 417/4/5 416/4/5
f 422/4/5 417/4/5 421/4/5
f 423/3/5 419/3/5 418/3/5
f 424/3/5 419/3/5 423/3/5
f 428/7/5 426/7/5 425/7/5
f 429/7/5 426/7/5 428/7/5
f 430/7/5 426/7/5 429/7/5
f 432/6/5 428/6/5 427/6/5
f 433/7/5 431/7/5 430/7/5
f 434/7/5 431/7/5 433/7/5
f 435/6/5 432/6/5 427/6/5
f 436/6/5 432/6/5 435/6/5
f 438/6/5 434/6/5 433/6/5
f 439/6/5 434/6/5 438/6/5
f 440/7/5 437/7/5 436/7/5
f 441/6/5 438/6/5 437/6/5
f 441/7/5 437/7/5 440/7/5
f 442/6/5 438/6/5 441/6/5
f 443/3/6 444/3/6 448/3/6
f 448/3/6 444/3/6 449/3/6
f 445/4/6 446/4/6 450/4/6
f 450/4/6 446/4/6 451/4/6
f 447/5/6 448/5/6 453/5/6
f 453/5/6 448/5/6 454/5/6
f 451/4/6 452/4/6 455/4/6
f 455/4/6 452/4/6 456/4/6
f 457/4/6 458/4/6 461/4/6
f 461/4/6 458/4/6 462/4/6
f 459/5/6 460/5/6 465/5/6
f 465/5/6 460/5/6 466/5/6
f 462/4/6 463/4/6 467/4/6
f 467/4/6 463/4/6 468/4/6
f 464/3/6 465/3/6 469/3/6
f 469/3/6 465/3/6 470/3/6
f 471/3/6 472/3/6 475/3/6
f 472/4/6 473/4/6 476/4/6
f 475/3/6 472/3/6 476/3/6
f 476/4/6 473/4/6 477/4/6
f 474/5/6 475/5/6 480/5/6
f 480/5/6 475/5/6 481/5/6
f 477/4/6 478/4/6 482/4/6
f 482/4/6 478/4/6 483/4/6
f 479/5/6 480/5/6 485/5/6
f 485/5/6 480/5/6 486/5/6
f 483/4/6 484/4/6 487/4/6
f 487/4/6 484/4/6 488/4/6
f 485/4/6 486/4/6 489/4/6
f 489/4/6 486/4/6 490/4/6
f 487/5/6 488/5/6 493/5/6
f 493/5/6 488/5/6 494/5/6
f 490/4/6 491/4/6 495/4/6
f 495/4/6 491/4/6 496/4/6
f 492/5/6 493/5/6 498/5/6
f 498/5/6 493/5/6 499/5/6
f 496/5/6 497/5/6 500/5/6
f 497/3/6 498/3/6 501/3/6
f 500/5/6 497/5/6 501/5/6
f 501/3/6 498/3/6 502/3/6
f 503/5/6 504/5/6 507/5/6
f 504/4/6 505/4/6 508/4/6
f 507/5/6 504/5/6 508/5/6
f 508/4/6 505/4/6 509/4/6
f 506/4/6 507/4/6 511/4/6
f 509/4/6 510/4/6 512/4/6
f 512/4/6 510/4/6 513/4/6
f 506/4/6 511/4/6 514/4/6
f 514/4/6 511/4/6 515/4/6
f 512/5/6 513/5/6 517/5/6
f 517/5/6 513/5/6 518/5/6
f 515/5/6 516/5/6 519/5/6
f 516/5/6 517/5/6 519/5/6
f 519/5/6 517/5/6 520/5/6
f 521/7/6 522/7/6 524/7/6
f 524/7/6 522/7/6 525/7/6
f 525/7/6 522/7/6 526/7/6
f 526/7/6 527/7/6 528/7/6
f 528/7/6 527/7/6 529/7/6
f 523/6/6 524/6/6 530/6/6
f 530/6/6 524/6/6 531/6/6
f 528/6/6 529/6/6 533/6/6
f 533/6/6 529/6/6 534/6/6
f 531/7/6 532/7/6 535/7/6
f 532/6/6 533/6/6 536/6/6
f 535/7/6 532/7/6 536/7/6
f 536/6/6 533/6/6 537/6/6
f 538/1/6 539/1/6 541/1/6
f 539/2/6 540/2/6 541/2/6
f 541/2/6 540/2/6 542/2/6
f 538/1/6 541/1/6 543/1/6
f 541/1/6 542/1/6 543/1/6
f 543/1/6 542/1/6 544/1/6
