# MagicaVoxel @ Ephtracy

# group
g GrassTile

# material
mtllib GrassTile.mtl
usemtl palette

# normals
vn -1 0 0
vn 1 0 0
vn 0 0 1
vn 0 0 -1
vn 0 -1 0
vn 0 1 0

# texcoords
vt 0.541016 0.5
vt 0.544922 0.5
vt 0.556641 0.5

# verts
v -10 0 10
v -10 0 -10
v -10 1 3
v -10 1 -0
v -10 2 10
v -10 2 3
v -10 2 -0
v -10 2 -10
v 10 0 10
v 10 0 -10
v 10 1 4
v 10 1 2
v 10 2 10
v 10 2 4
v 10 2 2
v 10 2 -10
v -10 0 10
v -10 2 10
v -3 1 10
v -3 2 10
v -1 1 10
v -1 2 10
v 10 0 10
v 10 2 10
v -10 0 -10
v -10 2 -10
v -6 1 -10
v -6 2 -10
v -3 1 -10
v -3 2 -10
v 5 1 -10
v 5 2 -10
v 8 1 -10
v 8 2 -10
v 10 0 -10
v 10 2 -10
v -10 0 10
v 10 0 10
v -10 0 -10
v 10 0 -10
v -10 2 10
v -3 2 10
v -1 2 10
v 10 2 10
v -4 2 9
v -3 2 9
v -1 2 9
v 0 2 9
v 5 2 9
v 7 2 9
v -8 2 8
v -4 2 8
v -2 2 8
v -1 2 8
v 0 2 8
v 2 2 8
v 6 2 8
v 7 2 8
v 9 2 8
v -9 2 7
v -8 2 7
v -7 2 7
v -5 2 7
v -3 2 7
v -2 2 7
v -1 2 7
v 0 2 7
v 1 2 7
v 2 2 7
v 3 2 7
v 4 2 7
v 5 2 7
v 6 2 7
v 7 2 7
v 8 2 7
v -8 2 6
v -7 2 6
v -5 2 6
v -4 2 6
v -2 2 6
v -1 2 6
v 1 2 6
v 2 2 6
v 5 2 6
v 6 2 6
v -6 2 5
v -4 2 5
v -2 2 5
v 0 2 5
v 1 2 5
v 2 2 5
v 3 2 5
v 4 2 5
v 5 2 5
v 7 2 5
v 8 2 5
v -8 2 4
v -7 2 4
v -5 2 4
v -4 2 4
v -2 2 4
v 1 2 4
v 2 2 4
v 3 2 4
v 6 2 4
v 7 2 4
v 9 2 4
v 10 2 4
v -10 2 3
v -9 2 3
v -7 2 3
v -6 2 3
v -3 2 3
v -2 2 3
v -1 2 3
v 0 2 3
v 1 2 3
v 2 2 3
v 6 2 3
v 7 2 3
v 8 2 3
v 9 2 3
v -9 2 2
v -6 2 2
v -5 2 2
v -4 2 2
v -3 2 2
v -1 2 2
v 0 2 2
v 4 2 2
v 5 2 2
v 6 2 2
v 7 2 2
v 8 2 2
v 9 2 2
v 10 2 2
v -9 2 1
v -8 2 1
v -6 2 1
v -5 2 1
v -4 2 1
v -3 2 1
v -2 2 1
v -1 2 1
v 1 2 1
v 3 2 1
v 4 2 1
v 5 2 1
v 6 2 1
v 7 2 1
v 8 2 1
v -10 2 -0
v -9 2 -0
v -7 2 -0
v -5 2 -0
v -4 2 -0
v -3 2 -0
v -1 2 -0
v 0 2 -0
v 2 2 -0
v 3 2 -0
v 4 2 -0
v 6 2 -0
v 7 2 -0
v 9 2 -0
v -8 2 -1
v -7 2 -1
v -1 2 -1
v 0 2 -1
v 1 2 -1
v 2 2 -1
v 3 2 -1
v 5 2 -1
v 6 2 -1
v -7 2 -2
v -6 2 -2
v -5 2 -2
v -4 2 -2
v -3 2 -2
v -2 2 -2
v 2 2 -2
v 3 2 -2
v 5 2 -2
v 6 2 -2
v 7 2 -2
v -8 2 -3
v -7 2 -3
v -6 2 -3
v -5 2 -3
v -2 2 -3
v -1 2 -3
v 0 2 -3
v 1 2 -3
v 2 2 -3
v 3 2 -3
v 5 2 -3
v 6 2 -3
v 8 2 -3
v -1 2 -4
v 0 2 -4
v 1 2 -4
v 2 2 -4
v 4 2 -4
v 5 2 -4
v 7 2 -4
v -8 2 -5
v -7 2 -5
v -5 2 -5
v -4 2 -5
v -1 2 -5
v 0 2 -5
v 1 2 -5
v 4 2 -5
v 6 2 -5
v 7 2 -5
v 8 2 -5
v 9 2 -5
v -9 2 -6
v -8 2 -6
v -7 2 -6
v -6 2 -6
v -4 2 -6
v -3 2 -6
v -2 2 -6
v 2 2 -6
v 3 2 -6
v 6 2 -6
v 8 2 -6
v -7 2 -7
v -6 2 -7
v -2 2 -7
v -1 2 -7
v 3 2 -7
v 4 2 -7
v -7 2 -8
v -6 2 -8
v -4 2 -8
v -3 2 -8
v 0 2 -8
v 2 2 -8
v 4 2 -8
v 5 2 -8
v 6 2 -8
v 7 2 -8
v 8 2 -8
v -8 2 -9
v -6 2 -9
v -4 2 -9
v 1 2 -9
v 5 2 -9
v 6 2 -9
v 7 2 -9
v 8 2 -9
v 9 2 -9
v -10 2 -10
v -6 2 -10
v -3 2 -10
v 5 2 -10
v 8 2 -10
v 10 2 -10

# faces
f 3/3/1 2/3/1 1/3/1
f 4/3/1 2/3/1 3/3/1
f 5/3/1 3/3/1 1/3/1
f 6/2/1 4/2/1 3/2/1
f 6/3/1 3/3/1 5/3/1
f 7/3/1 2/3/1 4/3/1
f 7/2/1 4/2/1 6/2/1
f 8/3/1 2/3/1 7/3/1
f 9/3/2 10/3/2 11/3/2
f 11/3/2 10/3/2 12/3/2
f 9/3/2 11/3/2 13/3/2
f 11/2/2 12/2/2 14/2/2
f 13/3/2 11/3/2 14/3/2
f 12/3/2 10/3/2 15/3/2
f 14/2/2 12/2/2 15/2/2
f 15/3/2 10/3/2 16/3/2
f 19/3/3 18/3/3 17/3/3
f 20/3/3 18/3/3 19/3/3
f 21/3/3 19/3/3 17/3/3
f 21/2/3 20/2/3 19/2/3
f 22/2/3 20/2/3 21/2/3
f 23/3/3 21/3/3 17/3/3
f 23/3/3 22/3/3 21/3/3
f 24/3/3 22/3/3 23/3/3
f 25/3/4 26/3/4 27/3/4
f 27/3/4 26/3/4 28/3/4
f 25/3/4 27/3/4 29/3/4
f 27/2/4 28/2/4 29/2/4
f 29/2/4 28/2/4 30/2/4
f 25/3/4 29/3/4 31/3/4
f 29/3/4 30/3/4 31/3/4
f 31/3/4 30/3/4 32/3/4
f 25/3/4 31/3/4 33/3/4
f 31/2/4 32/2/4 33/2/4
f 33/2/4 32/2/4 34/2/4
f 25/3/4 33/3/4 35/3/4
f 33/3/4 34/3/4 35/3/4
f 35/3/4 34/3/4 36/3/4
f 39/3/5 38/3/5 37/3/5
f 40/3/5 38/3/5 39/3/5
f 41/3/6 42/3/6 45/3/6
f 42/2/6 43/2/6 46/2/6
f 45/3/6 42/3/6 46/3/6
f 43/3/6 44/3/6 47/3/6
f 46/2/6 43/2/6 47/2/6
f 47/3/6 44/3/6 48/3/6
f 48/3/6 44/3/6 49/3/6
f 49/3/6 44/3/6 50/3/6
f 41/3/6 45/3/6 51/3/6
f 45/2/6 46/2/6 52/2/6
f 51/3/6 45/3/6 52/3/6
f 46/1/6 47/1/6 53/1/6
f 47/2/6 48/2/6 54/2/6
f 53/1/6 47/1/6 54/1/6
f 48/3/6 49/3/6 55/3/6
f 54/2/6 48/2/6 55/2/6
f 55/3/6 49/3/6 56/3/6
f 49/2/6 50/2/6 57/2/6
f 50/3/6 44/3/6 58/3/6
f 57/2/6 50/2/6 58/2/6
f 58/3/6 44/3/6 59/3/6
f 41/3/6 51/3/6 60/3/6
f 51/2/6 52/2/6 61/2/6
f 60/3/6 51/3/6 61/3/6
f 61/2/6 52/2/6 62/2/6
f 62/2/6 52/2/6 63/2/6
f 52/2/6 46/2/6 64/2/6
f 63/2/6 52/2/6 64/2/6
f 46/1/6 53/1/6 64/1/6
f 53/2/6 54/2/6 65/2/6
f 64/1/6 53/1/6 65/1/6
f 54/2/6 55/2/6 65/2/6
f 55/2/6 56/2/6 65/2/6
f 65/2/6 56/2/6 66/2/6
f 66/2/6 56/2/6 67/2/6
f 67/2/6 56/2/6 68/2/6
f 56/3/6 49/3/6 69/3/6
f 68/2/6 56/2/6 69/2/6
f 69/3/6 49/3/6 70/3/6
f 70/3/6 49/3/6 71/3/6
f 49/2/6 57/2/6 72/2/6
f 71/3/6 49/3/6 72/3/6
f 57/1/6 58/1/6 73/1/6
f 72/2/6 57/2/6 73/2/6
f 58/2/6 59/2/6 74/2/6
f 73/1/6 58/1/6 74/1/6
f 74/2/6 59/2/6 75/2/6
f 61/2/6 62/2/6 76/2/6
f 60/2/6 61/2/6 76/2/6
f 62/1/6 63/1/6 77/1/6
f 76/2/6 62/2/6 77/2/6
f 63/2/6 64/2/6 78/2/6
f 77/1/6 63/1/6 78/1/6
f 64/2/6 65/2/6 78/2/6
f 78/2/6 65/2/6 79/2/6
f 65/3/6 66/3/6 80/3/6
f 79/2/6 65/2/6 80/2/6
f 66/2/6 67/2/6 81/2/6
f 80/3/6 66/3/6 81/3/6
f 67/1/6 68/1/6 82/1/6
f 68/2/6 69/2/6 82/2/6
f 69/2/6 70/2/6 82/2/6
f 82/2/6 70/2/6 83/2/6
f 74/1/6 75/1/6 84/1/6
f 72/1/6 73/1/6 84/1/6
f 71/2/6 72/2/6 84/2/6
f 73/1/6 74/1/6 84/1/6
f 84/1/6 75/1/6 85/1/6
f 76/1/6 77/1/6 86/1/6
f 77/1/6 78/1/6 86/1/6
f 78/1/6 79/1/6 86/1/6
f 79/2/6 80/2/6 87/2/6
f 86/1/6 79/1/6 87/1/6
f 80/2/6 81/2/6 87/2/6
f 87/2/6 81/2/6 88/2/6
f 81/2/6 67/2/6 89/2/6
f 88/2/6 81/2/6 89/2/6
f 82/1/6 83/1/6 89/1/6
f 67/1/6 82/1/6 89/1/6
f 89/1/6 83/1/6 90/1/6
f 83/2/6 70/2/6 91/2/6
f 90/1/6 83/1/6 91/1/6
f 70/3/6 71/3/6 92/3/6
f 91/2/6 70/2/6 92/2/6
f 84/2/6 85/2/6 93/2/6
f 92/3/6 71/3/6 93/3/6
f 71/2/6 84/2/6 93/2/6
f 93/2/6 85/2/6 94/2/6
f 85/1/6 75/1/6 95/1/6
f 75/2/6 59/2/6 96/2/6
f 95/1/6 75/1/6 96/1/6
f 60/2/6 76/2/6 97/2/6
f 76/1/6 86/1/6 97/1/6
f 97/1/6 86/1/6 98/1/6
f 87/2/6 88/2/6 99/2/6
f 86/2/6 87/2/6 99/2/6
f 99/2/6 88/2/6 100/2/6
f 89/1/6 90/1/6 101/1/6
f 100/2/6 88/2/6 101/2/6
f 88/1/6 89/1/6 101/1/6
f 90/2/6 91/2/6 102/2/6
f 101/1/6 90/1/6 102/1/6
f 91/2/6 92/2/6 102/2/6
f 92/2/6 93/2/6 102/2/6
f 102/2/6 93/2/6 103/2/6
f 103/2/6 93/2/6 104/2/6
f 85/1/6 95/1/6 105/1/6
f 94/2/6 85/2/6 105/2/6
f 95/2/6 96/2/6 106/2/6
f 105/1/6 95/1/6 106/1/6
f 59/3/6 44/3/6 107/3/6
f 106/2/6 96/2/6 107/2/6
f 96/2/6 59/2/6 107/2/6
f 107/3/6 44/3/6 108/3/6
f 41/3/6 60/3/6 109/3/6
f 97/2/6 98/2/6 110/2/6
f 109/3/6 60/3/6 110/3/6
f 60/2/6 97/2/6 110/2/6
f 98/1/6 86/1/6 111/1/6
f 110/2/6 98/2/6 111/2/6
f 86/2/6 99/2/6 112/2/6
f 111/1/6 86/1/6 112/1/6
f 100/2/6 101/2/6 113/2/6
f 102/2/6 103/2/6 113/2/6
f 101/2/6 102/2/6 113/2/6
f 113/2/6 103/2/6 114/2/6
f 114/2/6 103/2/6 115/2/6
f 115/2/6 103/2/6 116/2/6
f 116/2/6 103/2/6 117/2/6
f 103/1/6 104/1/6 118/1/6
f 117/2/6 103/2/6 118/2/6
f 105/2/6 106/2/6 119/2/6
f 94/2/6 105/2/6 119/2/6
f 107/2/6 108/2/6 119/2/6
f 106/2/6 107/2/6 119/2/6
f 119/2/6 108/2/6 120/2/6
f 120/2/6 108/2/6 121/2/6
f 121/2/6 108/2/6 122/2/6
f 111/2/6 112/2/6 123/2/6
f 109/2/6 110/2/6 123/2/6
f 110/2/6 111/2/6 123/2/6
f 112/2/6 99/2/6 124/2/6
f 123/2/6 112/2/6 124/2/6
f 99/3/6 100/3/6 125/3/6
f 124/2/6 99/2/6 125/2/6
f 100/2/6 113/2/6 126/2/6
f 125/3/6 100/3/6 126/3/6
f 113/1/6 114/1/6 127/1/6
f 126/2/6 113/2/6 127/2/6
f 115/3/6 116/3/6 128/3/6
f 114/2/6 115/2/6 128/2/6
f 116/2/6 117/2/6 129/2/6
f 128/3/6 116/3/6 129/3/6
f 104/2/6 93/2/6 130/2/6
f 93/3/6 94/3/6 130/3/6
f 94/2/6 119/2/6 131/2/6
f 130/3/6 94/3/6 131/3/6
f 119/1/6 120/1/6 132/1/6
f 131/2/6 119/2/6 132/2/6
f 120/2/6 121/2/6 133/2/6
f 132/1/6 120/1/6 133/1/6
f 121/1/6 122/1/6 134/1/6
f 133/2/6 121/2/6 134/2/6
f 122/2/6 108/2/6 135/2/6
f 134/1/6 122/1/6 135/1/6
f 135/2/6 108/2/6 136/2/6
f 109/2/6 123/2/6 137/2/6
f 123/1/6 124/1/6 137/1/6
f 137/1/6 124/1/6 138/1/6
f 124/2/6 125/2/6 139/2/6
f 138/1/6 124/1/6 139/1/6
f 125/2/6 126/2/6 139/2/6
f 139/2/6 126/2/6 140/2/6
f 126/1/6 127/1/6 141/1/6
f 140/2/6 126/2/6 141/2/6
f 127/1/6 114/1/6 142/1/6
f 141/1/6 127/1/6 142/1/6
f 114/2/6 128/2/6 143/2/6
f 142/1/6 114/1/6 143/1/6
f 128/2/6 129/2/6 143/2/6
f 143/2/6 129/2/6 144/2/6
f 129/2/6 117/2/6 145/2/6
f 144/2/6 129/2/6 145/2/6
f 117/1/6 118/1/6 145/1/6
f 118/1/6 104/1/6 146/1/6
f 145/1/6 118/1/6 146/1/6
f 132/2/6 133/2/6 146/2/6
f 131/2/6 132/2/6 146/2/6
f 130/2/6 131/2/6 146/2/6
f 104/2/6 130/2/6 146/2/6
f 146/2/6 133/2/6 147/2/6
f 147/2/6 133/2/6 148/2/6
f 148/2/6 133/2/6 149/2/6
f 133/1/6 134/1/6 150/1/6
f 149/2/6 133/2/6 150/2/6
f 134/2/6 135/2/6 151/2/6
f 150/1/6 134/1/6 151/1/6
f 109/2/6 137/2/6 152/2/6
f 137/2/6 138/2/6 152/2/6
f 152/2/6 138/2/6 153/2/6
f 138/1/6 139/1/6 154/1/6
f 139/1/6 140/1/6 154/1/6
f 141/2/6 142/2/6 155/2/6
f 154/1/6 140/1/6 155/1/6
f 140/2/6 141/2/6 155/2/6
f 155/2/6 142/2/6 156/2/6
f 143/1/6 144/1/6 157/1/6
f 156/2/6 142/2/6 157/2/6
f 142/1/6 143/1/6 157/1/6
f 144/2/6 145/2/6 158/2/6
f 157/1/6 144/1/6 158/1/6
f 145/2/6 146/2/6 158/2/6
f 146/2/6 147/2/6 158/2/6
f 158/2/6 147/2/6 159/2/6
f 159/2/6 147/2/6 160/2/6
f 160/2/6 147/2/6 161/2/6
f 147/1/6 148/1/6 162/1/6
f 161/2/6 147/2/6 162/2/6
f 148/2/6 149/2/6 163/2/6
f 149/3/6 150/3/6 163/3/6
f 150/2/6 151/2/6 164/2/6
f 163/3/6 150/3/6 164/3/6
f 135/3/6 136/3/6 165/3/6
f 164/2/6 151/2/6 165/2/6
f 151/2/6 135/2/6 165/2/6
f 138/1/6 154/1/6 166/1/6
f 153/2/6 138/2/6 166/2/6
f 154/2/6 155/2/6 167/2/6
f 166/1/6 154/1/6 167/1/6
f 156/2/6 157/2/6 168/2/6
f 157/2/6 158/2/6 168/2/6
f 158/2/6 159/2/6 168/2/6
f 159/3/6 160/3/6 169/3/6
f 168/2/6 159/2/6 169/2/6
f 169/3/6 160/3/6 170/3/6
f 160/2/6 161/2/6 171/2/6
f 170/3/6 160/3/6 171/3/6
f 161/1/6 162/1/6 172/1/6
f 171/2/6 161/2/6 172/2/6
f 162/1/6 148/1/6 173/1/6
f 172/1/6 162/1/6 173/1/6
f 163/2/6 164/2/6 173/2/6
f 148/2/6 163/2/6 173/2/6
f 173/2/6 164/2/6 174/2/6
f 167/2/6 155/2/6 175/2/6
f 166/2/6 167/2/6 175/2/6
f 175/2/6 155/2/6 176/2/6
f 155/3/6 156/3/6 177/3/6
f 176/2/6 155/2/6 177/2/6
f 156/2/6 168/2/6 178/2/6
f 177/3/6 156/3/6 178/3/6
f 178/2/6 168/2/6 179/2/6
f 179/2/6 168/2/6 180/2/6
f 171/1/6 172/1/6 181/1/6
f 170/2/6 171/2/6 181/2/6
f 173/1/6 174/1/6 181/1/6
f 172/1/6 173/1/6 181/1/6
f 181/1/6 174/1/6 182/1/6
f 182/1/6 174/1/6 183/1/6
f 174/2/6 164/2/6 184/2/6
f 183/1/6 174/1/6 184/1/6
f 164/3/6 165/3/6 185/3/6
f 184/2/6 164/2/6 185/2/6
f 153/2/6 166/2/6 186/2/6
f 166/2/6 175/2/6 186/2/6
f 175/1/6 176/1/6 187/1/6
f 186/2/6 175/2/6 187/2/6
f 176/2/6 177/2/6 188/2/6
f 187/1/6 176/1/6 188/1/6
f 178/2/6 179/2/6 188/2/6
f 177/2/6 178/2/6 188/2/6
f 188/2/6 179/2/6 189/2/6
f 180/2/6 168/2/6 190/2/6
f 179/1/6 180/1/6 190/1/6
f 168/3/6 169/3/6 191/3/6
f 190/2/6 168/2/6 191/2/6
f 169/3/6 170/3/6 191/3/6
f 191/3/6 170/3/6 192/3/6
f 181/2/6 182/2/6 193/2/6
f 192/3/6 170/3/6 193/3/6
f 170/2/6 181/2/6 193/2/6
f 193/2/6 182/2/6 194/2/6
f 182/1/6 183/1/6 195/1/6
f 194/2/6 182/2/6 195/2/6
f 183/2/6 184/2/6 196/2/6
f 195/1/6 183/1/6 196/1/6
f 184/3/6 185/3/6 197/3/6
f 196/2/6 184/2/6 197/2/6
f 185/3/6 165/3/6 198/3/6
f 197/3/6 185/3/6 198/3/6
f 191/2/6 192/2/6 199/2/6
f 190/1/6 191/1/6 199/1/6
f 193/3/6 194/3/6 200/3/6
f 199/2/6 192/2/6 200/2/6
f 192/3/6 193/3/6 200/3/6
f 200/3/6 194/3/6 201/3/6
f 196/2/6 197/2/6 202/2/6
f 201/3/6 194/3/6 202/3/6
f 194/2/6 195/2/6 202/2/6
f 197/2/6 198/2/6 202/2/6
f 195/2/6 196/2/6 202/2/6
f 202/2/6 198/2/6 203/2/6
f 203/2/6 198/2/6 204/2/6
f 204/2/6 198/2/6 205/2/6
f 153/2/6 186/2/6 206/2/6
f 188/1/6 189/1/6 206/1/6
f 186/1/6 187/1/6 206/1/6
f 187/1/6 188/1/6 206/1/6
f 206/1/6 189/1/6 207/1/6
f 189/2/6 179/2/6 208/2/6
f 207/1/6 189/1/6 208/1/6
f 208/2/6 179/2/6 209/2/6
f 190/1/6 199/1/6 210/1/6
f 199/1/6 200/1/6 210/1/6
f 200/2/6 201/2/6 211/2/6
f 210/1/6 200/1/6 211/1/6
f 202/3/6 203/3/6 212/3/6
f 211/2/6 201/2/6 212/2/6
f 201/3/6 202/3/6 212/3/6
f 203/2/6 204/2/6 213/2/6
f 212/3/6 203/3/6 213/3/6
f 204/1/6 205/1/6 214/1/6
f 205/2/6 198/2/6 215/2/6
f 214/1/6 205/1/6 215/1/6
f 198/3/6 165/3/6 216/3/6
f 215/2/6 198/2/6 216/2/6
f 165/3/6 136/3/6 217/3/6
f 216/3/6 165/3/6 217/3/6
f 206/2/6 207/2/6 218/2/6
f 152/3/6 153/3/6 218/3/6
f 153/2/6 206/2/6 218/2/6
f 218/2/6 207/2/6 219/2/6
f 208/1/6 209/1/6 220/1/6
f 219/2/6 207/2/6 220/2/6
f 207/1/6 208/1/6 220/1/6
f 220/1/6 209/1/6 221/1/6
f 209/2/6 179/2/6 222/2/6
f 221/1/6 209/1/6 222/1/6
f 179/1/6 190/1/6 223/1/6
f 222/2/6 179/2/6 223/2/6
f 190/1/6 210/1/6 223/1/6
f 223/1/6 210/1/6 224/1/6
f 212/2/6 213/2/6 225/2/6
f 225/2/6 213/2/6 226/2/6
f 204/1/6 214/1/6 227/1/6
f 215/2/6 216/2/6 227/2/6
f 216/2/6 217/2/6 227/2/6
f 214/2/6 215/2/6 227/2/6
f 227/2/6 217/2/6 228/2/6
f 220/2/6 221/2/6 229/2/6
f 219/2/6 220/2/6 229/2/6
f 221/1/6 222/1/6 230/1/6
f 229/2/6 221/2/6 230/2/6
f 222/1/6 223/1/6 230/1/6
f 223/2/6 224/2/6 231/2/6
f 224/1/6 210/1/6 231/1/6
f 210/2/6 211/2/6 232/2/6
f 231/1/6 210/1/6 232/1/6
f 226/2/6 213/2/6 233/2/6
f 225/1/6 226/1/6 233/1/6
f 213/2/6 204/2/6 234/2/6
f 233/2/6 213/2/6 234/2/6
f 219/2/6 229/2/6 235/2/6
f 229/1/6 230/1/6 235/1/6
f 230/1/6 223/1/6 236/1/6
f 235/1/6 230/1/6 236/1/6
f 236/1/6 223/1/6 237/1/6
f 231/2/6 232/2/6 238/2/6
f 237/1/6 223/1/6 238/1/6
f 223/2/6 231/2/6 238/2/6
f 232/2/6 211/2/6 239/2/6
f 238/2/6 232/2/6 239/2/6
f 211/3/6 212/3/6 239/3/6
f 225/1/6 233/1/6 240/1/6
f 212/2/6 225/2/6 240/2/6
f 233/1/6 234/1/6 240/1/6
f 234/2/6 204/2/6 241/2/6
f 240/1/6 234/1/6 241/1/6
f 227/1/6 228/1/6 242/1/6
f 241/2/6 204/2/6 242/2/6
f 204/1/6 227/1/6 242/1/6
f 242/1/6 228/1/6 243/1/6
f 243/1/6 228/1/6 244/1/6
f 228/2/6 217/2/6 245/2/6
f 244/1/6 228/1/6 245/1/6
f 218/3/6 219/3/6 246/3/6
f 219/2/6 235/2/6 246/2/6
f 235/2/6 236/2/6 246/2/6
f 236/1/6 237/1/6 247/1/6
f 246/2/6 236/2/6 247/2/6
f 237/2/6 238/2/6 248/2/6
f 247/1/6 237/1/6 248/1/6
f 239/3/6 212/3/6 249/3/6
f 212/2/6 240/2/6 249/2/6
f 240/2/6 241/2/6 249/2/6
f 241/2/6 242/2/6 249/2/6
f 242/2/6 243/2/6 249/2/6
f 238/3/6 239/3/6 249/3/6
f 249/2/6 243/2/6 250/2/6
f 243/1/6 244/1/6 251/1/6
f 250/2/6 243/2/6 251/2/6
f 244/2/6 245/2/6 252/2/6
f 251/1/6 244/1/6 252/1/6
f 245/2/6 217/2/6 253/2/6
f 252/2/6 245/2/6 253/2/6
f 217/3/6 136/3/6 254/3/6
f 253/2/6 217/2/6 254/2/6
f 246/3/6 247/3/6 255/3/6
f 218/3/6 246/3/6 255/3/6
f 152/3/6 218/3/6 255/3/6
f 247/2/6 248/2/6 256/2/6
f 255/3/6 247/3/6 256/3/6
f 249/3/6 250/3/6 257/3/6
f 256/2/6 248/2/6 257/2/6
f 248/2/6 238/2/6 257/2/6
f 238/3/6 249/3/6 257/3/6
f 252/2/6 253/2/6 258/2/6
f 257/3/6 250/3/6 258/3/6
f 251/2/6 252/2/6 258/2/6
f 250/2/6 251/2/6 258/2/6
f 253/3/6 254/3/6 259/3/6
f 258/2/6 253/2/6 259/2/6
f 254/3/6 136/3/6 260/3/6
f 259/3/6 254/3/6 260/3/6
