# MagicaVoxel @ Ephtracy

# group
g Voxels-38

# material
mtllib Voxels-38.mtl
usemtl palette

# normals
vn -1 0 0
vn 1 0 0
vn 0 0 1
vn 0 0 -1
vn 0 -1 0
vn 0 1 0

# texcoords
vt 0.970703 0.5
vt 0.974609 0.5
vt 0.978516 0.5
vt 0.982422 0.5
vt 0.986328 0.5
vt 0.990234 0.5

# verts
v -12.5 21 7.5
v -12.5 21 -12.5
v -12.5 23 7.5
v -12.5 23 6.5
v -12.5 23 -12.5
v -12.5 24 6.5
v -12.5 24 -1.5
v -12.5 25 -1.5
v -12.5 25 -12.5
v -11.5 20 10.5
v -11.5 20 -12.5
v -11.5 21 7.5
v -11.5 21 -12.5
v -11.5 23 10.5
v -11.5 23 9.5
v -11.5 23 7.5
v -11.5 23 6.5
v -11.5 24 9.5
v -11.5 24 8.5
v -11.5 24 6.5
v -11.5 24 -1.5
v -11.5 25 8.5
v -11.5 25 -1.5
v -10.5 0 10.5
v -10.5 0 -12.5
v -10.5 4 10.5
v -10.5 4 -12.5
v -10.5 11 10.5
v -10.5 11 -12.5
v -10.5 16 10.5
v -10.5 16 -12.5
v -10.5 17 10.5
v -10.5 17 -12.5
v -10.5 20 11.5
v -10.5 20 10.5
v -10.5 20 -12.5
v -10.5 23 11.5
v -10.5 23 10.5
v -10.5 23 9.5
v -10.5 24 10.5
v -10.5 24 9.5
v -10.5 24 8.5
v -10.5 25 9.5
v -10.5 25 8.5
v -9.5 23 11.5
v -9.5 23 10.5
v -9.5 24 11.5
v -9.5 24 10.5
v -9.5 24 9.5
v -9.5 25 10.5
v -9.5 25 9.5
v -6.5 21 12.5
v -6.5 21 11.5
v -6.5 23 12.5
v -6.5 23 11.5
v -5.5 23 12.5
v -5.5 23 11.5
v -5.5 24 12.5
v -5.5 24 11.5
v -5.5 24 10.5
v -5.5 25 11.5
v -5.5 25 10.5
v 1.5 24 12.5
v 1.5 24 11.5
v 1.5 25 12.5
v 1.5 25 11.5
v 12.5 0 10.5
v 12.5 0 -12.5
v 12.5 4 10.5
v 12.5 4 -12.5
v 12.5 11 10.5
v 12.5 11 -12.5
v 12.5 16 10.5
v 12.5 16 -12.5
v 12.5 17 10.5
v 12.5 17 -12.5
v 12.5 20 11.5
v 12.5 20 10.5
v 12.5 21 12.5
v 12.5 21 11.5
v 12.5 23 12.5
v 12.5 23 -12.5
v 12.5 25 12.5
v 12.5 25 -12.5
v -6.5 21 12.5
v -6.5 23 12.5
v -5.5 23 12.5
v -5.5 24 12.5
v 1.5 24 12.5
v 1.5 25 12.5
v 12.5 21 12.5
v 12.5 23 12.5
v 12.5 25 12.5
v -10.5 20 11.5
v -10.5 23 11.5
v -9.5 23 11.5
v -9.5 24 11.5
v -6.5 21 11.5
v -6.5 23 11.5
v -5.5 23 11.5
v -5.5 24 11.5
v -5.5 25 11.5
v 1.5 24 11.5
v 1.5 25 11.5
v 12.5 20 11.5
v 12.5 21 11.5
v -11.5 20 10.5
v -11.5 23 10.5
v -10.5 0 10.5
v -10.5 4 10.5
v -10.5 11 10.5
v -10.5 16 10.5
v -10.5 17 10.5
v -10.5 20 10.5
v -10.5 23 10.5
v -10.5 24 10.5
v -9.5 23 10.5
v -9.5 24 10.5
v -9.5 25 10.5
v -5.5 24 10.5
v -5.5 25 10.5
v 12.5 0 10.5
v 12.5 4 10.5
v 12.5 11 10.5
v 12.5 16 10.5
v 12.5 17 10.5
v 12.5 20 10.5
v -11.5 23 9.5
v -11.5 24 9.5
v -10.5 23 9.5
v -10.5 24 9.5
v -10.5 25 9.5
v -9.5 24 9.5
v -9.5 25 9.5
v -11.5 24 8.5
v -11.5 25 8.5
v -10.5 24 8.5
v -10.5 25 8.5
v -12.5 21 7.5
v -12.5 23 7.5
v -11.5 21 7.5
v -11.5 23 7.5
v -12.5 23 6.5
v -12.5 24 6.5
v -11.5 23 6.5
v -11.5 24 6.5
v -12.5 24 -1.5
v -12.5 25 -1.5
v -11.5 24 -1.5
v -11.5 25 -1.5
v -12.5 21 -12.5
v -12.5 23 -12.5
v -12.5 25 -12.5
v -11.5 20 -12.5
v -11.5 21 -12.5
v -10.5 0 -12.5
v -10.5 4 -12.5
v -10.5 11 -12.5
v -10.5 16 -12.5
v -10.5 17 -12.5
v -10.5 20 -12.5
v 12.5 0 -12.5
v 12.5 4 -12.5
v 12.5 11 -12.5
v 12.5 16 -12.5
v 12.5 17 -12.5
v 12.5 23 -12.5
v 12.5 25 -12.5
v -10.5 0 10.5
v 12.5 0 10.5
v -10.5 0 -12.5
v 12.5 0 -12.5
v -10.5 20 11.5
v 12.5 20 11.5
v -11.5 20 10.5
v -10.5 20 10.5
v 12.5 20 10.5
v -11.5 20 -12.5
v -10.5 20 -12.5
v -6.5 21 12.5
v 12.5 21 12.5
v -6.5 21 11.5
v 12.5 21 11.5
v -12.5 21 7.5
v -11.5 21 7.5
v -12.5 21 -12.5
v -11.5 21 -12.5
v -6.5 23 12.5
v -5.5 23 12.5
v -10.5 23 11.5
v -9.5 23 11.5
v -6.5 23 11.5
v -5.5 23 11.5
v -11.5 23 10.5
v -10.5 23 10.5
v -9.5 23 10.5
v -11.5 23 9.5
v -10.5 23 9.5
v -12.5 23 7.5
v -11.5 23 7.5
v -12.5 23 6.5
v -11.5 23 6.5
v -5.5 24 12.5
v 1.5 24 12.5
v -9.5 24 11.5
v -5.5 24 11.5
v 1.5 24 11.5
v -10.5 24 10.5
v -9.5 24 10.5
v -5.5 24 10.5
v -11.5 24 9.5
v -10.5 24 9.5
v -9.5 24 9.5
v -11.5 24 8.5
v -10.5 24 8.5
v -12.5 24 6.5
v -11.5 24 6.5
v -12.5 24 -1.5
v -11.5 24 -1.5
v 1.5 25 12.5
v 12.5 25 12.5
v -5.5 25 11.5
v 1.5 25 11.5
v -9.5 25 10.5
v -5.5 25 10.5
v -10.5 25 9.5
v -9.5 25 9.5
v -11.5 25 8.5
v -10.5 25 8.5
v -12.5 25 -1.5
v -11.5 25 -1.5
v -12.5 25 -12.5
v 12.5 25 -12.5

# faces
f 3/2/1 2/2/1 1/2/1
f 4/2/1 2/2/1 3/2/1
f 5/2/1 2/2/1 4/2/1
f 6/1/1 5/1/1 4/1/1
f 7/1/1 5/1/1 6/1/1
f 8/1/1 5/1/1 7/1/1
f 9/1/1 5/1/1 8/1/1
f 12/2/1 11/2/1 10/2/1
f 13/2/1 11/2/1 12/2/1
f 14/2/1 12/2/1 10/2/1
f 15/2/1 12/2/1 14/2/1
f 16/2/1 12/2/1 15/2/1
f 18/1/1 17/1/1 16/1/1
f 18/1/1 16/1/1 15/1/1
f 19/1/1 17/1/1 18/1/1
f 20/1/1 17/1/1 19/1/1
f 22/1/1 21/1/1 20/1/1
f 22/1/1 20/1/1 19/1/1
f 23/1/1 21/1/1 22/1/1
f 26/6/1 25/6/1 24/6/1
f 27/6/1 25/6/1 26/6/1
f 28/5/1 27/5/1 26/5/1
f 29/5/1 27/5/1 28/5/1
f 30/4/1 29/4/1 28/4/1
f 31/4/1 29/4/1 30/4/1
f 32/3/1 31/3/1 30/3/1
f 33/3/1 31/3/1 32/3/1
f 35/2/1 33/2/1 32/2/1
f 36/2/1 33/2/1 35/2/1
f 37/2/1 35/2/1 34/2/1
f 38/2/1 35/2/1 37/2/1
f 40/1/1 39/1/1 38/1/1
f 41/1/1 39/1/1 40/1/1
f 43/1/1 42/1/1 41/1/1
f 44/1/1 42/1/1 43/1/1
f 47/1/1 46/1/1 45/1/1
f 48/1/1 46/1/1 47/1/1
f 50/1/1 49/1/1 48/1/1
f 51/1/1 49/1/1 50/1/1
f 54/2/1 53/2/1 52/2/1
f 55/2/1 53/2/1 54/2/1
f 58/1/1 57/1/1 56/1/1
f 59/1/1 57/1/1 58/1/1
f 61/1/1 60/1/1 59/1/1
f 62/1/1 60/1/1 61/1/1
f 65/1/1 64/1/1 63/1/1
f 66/1/1 64/1/1 65/1/1
f 67/6/2 68/6/2 69/6/2
f 69/6/2 68/6/2 70/6/2
f 69/5/2 70/5/2 71/5/2
f 71/5/2 70/5/2 72/5/2
f 71/4/2 72/4/2 73/4/2
f 73/4/2 72/4/2 74/4/2
f 73/3/2 74/3/2 75/3/2
f 75/3/2 74/3/2 76/3/2
f 75/2/2 76/2/2 78/2/2
f 77/2/2 78/2/2 80/2/2
f 79/2/2 80/2/2 81/2/2
f 78/2/2 76/2/2 82/2/2
f 81/2/2 80/2/2 82/2/2
f 80/2/2 78/2/2 82/2/2
f 81/1/2 82/1/2 83/1/2
f 83/1/2 82/1/2 84/1/2
f 87/2/3 86/2/3 85/2/3
f 89/1/3 88/1/3 87/1/3
f 91/2/3 87/2/3 85/2/3
f 92/1/3 90/1/3 89/1/3
f 92/2/3 87/2/3 91/2/3
f 92/1/3 89/1/3 87/1/3
f 93/1/3 90/1/3 92/1/3
f 96/2/3 95/2/3 94/2/3
f 98/2/3 96/2/3 94/2/3
f 99/1/3 97/1/3 96/1/3
f 99/2/3 96/2/3 98/2/3
f 100/1/3 97/1/3 99/1/3
f 101/1/3 97/1/3 100/1/3
f 103/1/3 102/1/3 101/1/3
f 104/1/3 102/1/3 103/1/3
f 105/2/3 98/2/3 94/2/3
f 106/2/3 98/2/3 105/2/3
f 114/2/3 108/2/3 107/2/3
f 115/2/3 108/2/3 114/2/3
f 117/1/3 116/1/3 115/1/3
f 118/1/3 116/1/3 117/1/3
f 120/1/3 119/1/3 118/1/3
f 121/1/3 119/1/3 120/1/3
f 122/6/3 110/6/3 109/6/3
f 123/5/3 111/5/3 110/5/3
f 123/6/3 110/6/3 122/6/3
f 124/4/3 112/4/3 111/4/3
f 124/5/3 111/5/3 123/5/3
f 125/3/3 113/3/3 112/3/3
f 125/4/3 112/4/3 124/4/3
f 126/2/3 114/2/3 113/2/3
f 126/3/3 113/3/3 125/3/3
f 127/2/3 114/2/3 126/2/3
f 130/1/3 129/1/3 128/1/3
f 131/1/3 129/1/3 130/1/3
f 133/1/3 132/1/3 131/1/3
f 134/1/3 132/1/3 133/1/3
f 137/1/3 136/1/3 135/1/3
f 138/1/3 136/1/3 137/1/3
f 141/2/3 140/2/3 139/2/3
f 142/2/3 140/2/3 141/2/3
f 145/1/3 144/1/3 143/1/3
f 146/1/3 144/1/3 145/1/3
f 149/1/3 148/1/3 147/1/3
f 150/1/3 148/1/3 149/1/3
f 151/2/4 152/2/4 155/2/4
f 154/2/4 155/2/4 161/2/4
f 156/6/4 157/6/4 162/6/4
f 157/5/4 158/5/4 163/5/4
f 162/6/4 157/6/4 163/6/4
f 158/4/4 159/4/4 164/4/4
f 163/5/4 158/5/4 164/5/4
f 159/3/4 160/3/4 165/3/4
f 164/4/4 159/4/4 165/4/4
f 160/2/4 161/2/4 166/2/4
f 165/3/4 160/3/4 166/3/4
f 152/1/4 153/1/4 167/1/4
f 166/2/4 161/2/4 167/2/4
f 155/2/4 152/2/4 167/2/4
f 161/2/4 155/2/4 167/2/4
f 167/1/4 153/1/4 168/1/4
f 171/6/5 170/6/5 169/6/5
f 172/6/5 170/6/5 171/6/5
f 176/2/5 174/2/5 173/2/5
f 177/2/5 174/2/5 176/2/5
f 178/2/5 176/2/5 175/2/5
f 179/2/5 176/2/5 178/2/5
f 182/2/5 181/2/5 180/2/5
f 183/2/5 181/2/5 182/2/5
f 186/2/5 185/2/5 184/2/5
f 187/2/5 185/2/5 186/2/5
f 188/2/6 189/2/6 192/2/6
f 192/2/6 189/2/6 193/2/6
f 190/2/6 191/2/6 195/2/6
f 195/2/6 191/2/6 196/2/6
f 194/2/6 195/2/6 197/2/6
f 197/2/6 195/2/6 198/2/6
f 199/2/6 200/2/6 201/2/6
f 201/2/6 200/2/6 202/2/6
f 203/1/6 204/1/6 206/1/6
f 206/1/6 204/1/6 207/1/6
f 205/1/6 206/1/6 209/1/6
f 209/1/6 206/1/6 210/1/6
f 208/1/6 209/1/6 212/1/6
f 212/1/6 209/1/6 213/1/6
f 211/1/6 212/1/6 214/1/6
f 214/1/6 212/1/6 215/1/6
f 216/1/6 217/1/6 218/1/6
f 218/1/6 217/1/6 219/1/6
f 220/1/6 221/1/6 223/1/6
f 222/1/6 223/1/6 225/1/6
f 224/1/6 225/1/6 227/1/6
f 226/1/6 227/1/6 229/1/6
f 228/1/6 229/1/6 231/1/6
f 230/1/6 231/1/6 232/1/6
f 223/1/6 221/1/6 233/1/6
f 232/1/6 231/1/6 233/1/6
f 225/1/6 223/1/6 233/1/6
f 231/1/6 229/1/6 233/1/6
f 227/1/6 225/1/6 233/1/6
f 229/1/6 227/1/6 233/1/6
