# MagicaVoxel @ Ephtracy

# group
g Voxels-36

# material
mtllib Voxels-36.mtl
usemtl palette

# normals
vn -1 0 0
vn 1 0 0
vn 0 0 1
vn 0 0 -1
vn 0 -1 0
vn 0 1 0

# texcoords
vt 0.939453 0.5
vt 0.970703 0.5
vt 0.974609 0.5
vt 0.978516 0.5
vt 0.982422 0.5
vt 0.986328 0.5
vt 0.990234 0.5

# verts
v -12.5 0 12.5
v -12.5 0 -12.5
v -12.5 4 12.5
v -12.5 4 -12.5
v -12.5 11 12.5
v -12.5 11 -12.5
v -12.5 16 12.5
v -12.5 16 -12.5
v -12.5 17 12.5
v -12.5 17 -12.5
v -12.5 23 12.5
v -12.5 23 -12.5
v -12.5 25 12.5
v -12.5 25 -12.5
v 12.5 0 12.5
v 12.5 0 -12.5
v 12.5 4 12.5
v 12.5 4 -12.5
v 12.5 11 12.5
v 12.5 11 -12.5
v 12.5 16 12.5
v 12.5 16 -12.5
v 12.5 17 12.5
v 12.5 17 -12.5
v 12.5 23 12.5
v 12.5 23 -12.5
v 12.5 25 12.5
v 12.5 25 -12.5
v -12.5 0 12.5
v -12.5 4 12.5
v -12.5 11 12.5
v -12.5 16 12.5
v -12.5 17 12.5
v -12.5 23 12.5
v -12.5 25 12.5
v 12.5 0 12.5
v 12.5 4 12.5
v 12.5 11 12.5
v 12.5 16 12.5
v 12.5 17 12.5
v 12.5 23 12.5
v 12.5 25 12.5
v -12.5 0 -12.5
v -12.5 4 -12.5
v -12.5 11 -12.5
v -12.5 16 -12.5
v -12.5 17 -12.5
v -12.5 23 -12.5
v -12.5 25 -12.5
v 12.5 0 -12.5
v 12.5 4 -12.5
v 12.5 11 -12.5
v 12.5 16 -12.5
v 12.5 17 -12.5
v 12.5 23 -12.5
v 12.5 25 -12.5
v -12.5 0 12.5
v 12.5 0 12.5
v -12.5 0 -12.5
v 12.5 0 -12.5
v -12.5 25 12.5
v 12.5 25 12.5
v -6.5 25 -1.5
v -2.5 25 -1.5
v -6.5 25 -5.5
v -2.5 25 -5.5
v -12.5 25 -12.5
v 12.5 25 -12.5

# faces
f 3/7/1 2/7/1 1/7/1
f 4/7/1 2/7/1 3/7/1
f 5/6/1 4/6/1 3/6/1
f 6/6/1 4/6/1 5/6/1
f 7/5/1 6/5/1 5/5/1
f 8/5/1 6/5/1 7/5/1
f 9/4/1 8/4/1 7/4/1
f 10/4/1 8/4/1 9/4/1
f 11/3/1 10/3/1 9/3/1
f 12/3/1 10/3/1 11/3/1
f 13/2/1 12/2/1 11/2/1
f 14/2/1 12/2/1 13/2/1
f 15/7/2 16/7/2 17/7/2
f 17/7/2 16/7/2 18/7/2
f 17/6/2 18/6/2 19/6/2
f 19/6/2 18/6/2 20/6/2
f 19/5/2 20/5/2 21/5/2
f 21/5/2 20/5/2 22/5/2
f 21/4/2 22/4/2 23/4/2
f 23/4/2 22/4/2 24/4/2
f 23/3/2 24/3/2 25/3/2
f 25/3/2 24/3/2 26/3/2
f 25/2/2 26/2/2 27/2/2
f 27/2/2 26/2/2 28/2/2
f 36/7/3 30/7/3 29/7/3
f 37/6/3 31/6/3 30/6/3
f 37/7/3 30/7/3 36/7/3
f 38/5/3 32/5/3 31/5/3
f 38/6/3 31/6/3 37/6/3
f 39/4/3 33/4/3 32/4/3
f 39/5/3 32/5/3 38/5/3
f 40/3/3 34/3/3 33/3/3
f 40/4/3 33/4/3 39/4/3
f 41/2/3 35/2/3 34/2/3
f 41/3/3 34/3/3 40/3/3
f 42/2/3 35/2/3 41/2/3
f 43/7/4 44/7/4 50/7/4
f 44/6/4 45/6/4 51/6/4
f 50/7/4 44/7/4 51/7/4
f 45/5/4 46/5/4 52/5/4
f 51/6/4 45/6/4 52/6/4
f 46/4/4 47/4/4 53/4/4
f 52/5/4 46/5/4 53/5/4
f 47/3/4 48/3/4 54/3/4
f 53/4/4 47/4/4 54/4/4
f 48/2/4 49/2/4 55/2/4
f 54/3/4 48/3/4 55/3/4
f 55/2/4 49/2/4 56/2/4
f 59/7/5 58/7/5 57/7/5
f 60/7/5 58/7/5 59/7/5
f 61/2/6 62/2/6 63/2/6
f 63/2/6 62/2/6 64/2/6
f 61/2/6 63/2/6 65/2/6
f 63/1/6 64/1/6 65/1/6
f 64/2/6 62/2/6 66/2/6
f 65/1/6 64/1/6 66/1/6
f 61/2/6 65/2/6 67/2/6
f 65/2/6 66/2/6 67/2/6
f 66/2/6 62/2/6 68/2/6
f 67/2/6 66/2/6 68/2/6
