# MagicaVoxel @ Ephtracy

# group
g Cactus-40

# material
mtllib Cactus-40.mtl
usemtl palette

# normals
vn -1 0 0
vn 1 0 0
vn 0 0 1
vn 0 0 -1
vn 0 -1 0
vn 0 1 0

# texcoords
vt 0.470703 0.5
vt 0.474609 0.5
vt 0.923828 0.5
vt 0.939453 0.5
vt 0.943359 0.5
vt 0.947266 0.5
vt 0.951172 0.5

# verts
v -3 1 0.5
v -3 1 -0.5
v -3 2 0.5
v -3 2 -0.5
v -3 6 0.5
v -3 6 -0.5
v -3 7 0.5
v -3 7 -0.5
v -3 7 -1.5
v -3 7 -2.5
v -3 8 -1.5
v -3 8 -2.5
v -3 11 0.5
v -3 11 -0.5
v -3 12 0.5
v -3 12 -0.5
v -3 15 0.5
v -3 15 -0.5
v -3 16 0.5
v -3 16 -0.5
v -3 18 -0.5
v -3 18 -1.5
v -3 19 -0.5
v -3 19 -1.5
v -2 0 1.5
v -2 0 -2.5
v -2 1 0.5
v -2 1 -0.5
v -2 2 1.5
v -2 2 0.5
v -2 2 -0.5
v -2 2 -2.5
v -2 4 1.5
v -2 4 -2.5
v -2 5 1.5
v -2 5 -2.5
v -2 6 0.5
v -2 6 -0.5
v -2 7 1.5
v -2 7 0.5
v -2 7 -0.5
v -2 7 -1.5
v -2 7 -2.5
v -2 8 1.5
v -2 8 -1.5
v -2 8 -2.5
v -2 9 2.5
v -2 9 1.5
v -2 9 -2.5
v -2 10 2.5
v -2 10 1.5
v -2 11 0.5
v -2 11 -0.5
v -2 12 0.5
v -2 12 -0.5
v -2 13 1.5
v -2 13 -2.5
v -2 15 1.5
v -2 15 0.5
v -2 15 -0.5
v -2 15 -2.5
v -2 16 1.5
v -2 16 0.5
v -2 16 -0.5
v -2 16 -2.5
v -2 17 1.5
v -2 17 -2.5
v -2 18 1.5
v -2 18 -0.5
v -2 18 -1.5
v -2 18 -2.5
v -2 19 1.5
v -2 19 -0.5
v -2 19 -1.5
v -2 19 -2.5
v -2 20 2.5
v -2 20 1.5
v -2 20 -2.5
v -2 21 2.5
v -2 21 1.5
v -2 21 -2.5
v -2 22 1.5
v -2 22 -2.5
v -1 5 -2.5
v -1 5 -3.5
v -1 6 -2.5
v -1 6 -3.5
v -1 15 -2.5
v -1 15 -3.5
v -1 16 -2.5
v -1 16 -3.5
v -1 22 0.5
v -1 22 -1.5
v -1 23 0.5
v -1 23 -1.5
v 0 17 2.5
v 0 17 1.5
v 0 18 2.5
v 0 18 1.5
v 1 2 2.5
v 1 2 1.5
v 1 2 -2.5
v 1 2 -3.5
v 1 3 2.5
v 1 3 1.5
v 1 3 -2.5
v 1 3 -3.5
v 1 10 -2.5
v 1 10 -3.5
v 1 11 -2.5
v 1 11 -3.5
v 1 14 2.5
v 1 14 1.5
v 1 15 2.5
v 1 15 1.5
v 1 19 -2.5
v 1 19 -3.5
v 1 20 -2.5
v 1 20 -3.5
v -1 9 2.5
v -1 9 1.5
v -1 10 2.5
v -1 10 1.5
v -1 20 2.5
v -1 20 1.5
v -1 21 2.5
v -1 21 1.5
v 0 5 -2.5
v 0 5 -3.5
v 0 6 -2.5
v 0 6 -3.5
v 0 15 -2.5
v 0 15 -3.5
v 0 16 -2.5
v 0 16 -3.5
v 1 17 2.5
v 1 17 1.5
v 1 18 2.5
v 1 18 1.5
v 1 22 0.5
v 1 22 -1.5
v 1 23 0.5
v 1 23 -1.5
v 2 0 1.5
v 2 0 -2.5
v 2 1 -0.5
v 2 1 -1.5
v 2 2 2.5
v 2 2 1.5
v 2 2 -0.5
v 2 2 -1.5
v 2 2 -2.5
v 2 2 -3.5
v 2 3 2.5
v 2 3 1.5
v 2 3 -2.5
v 2 3 -3.5
v 2 4 1.5
v 2 4 0.5
v 2 4 -0.5
v 2 4 -2.5
v 2 5 1.5
v 2 5 0.5
v 2 5 -0.5
v 2 5 -2.5
v 2 7 1.5
v 2 7 -0.5
v 2 7 -1.5
v 2 7 -2.5
v 2 8 1.5
v 2 8 -0.5
v 2 8 -1.5
v 2 8 -2.5
v 2 9 1.5
v 2 9 -2.5
v 2 10 -2.5
v 2 10 -3.5
v 2 11 1.5
v 2 11 0.5
v 2 11 -2.5
v 2 11 -3.5
v 2 12 1.5
v 2 12 0.5
v 2 13 1.5
v 2 13 -2.5
v 2 14 2.5
v 2 14 1.5
v 2 14 -0.5
v 2 14 -1.5
v 2 15 2.5
v 2 15 1.5
v 2 15 -0.5
v 2 15 -1.5
v 2 15 -2.5
v 2 16 1.5
v 2 16 -2.5
v 2 17 1.5
v 2 17 -2.5
v 2 18 1.5
v 2 18 -2.5
v 2 19 1.5
v 2 19 -2.5
v 2 19 -3.5
v 2 20 1.5
v 2 20 0.5
v 2 20 -0.5
v 2 20 -2.5
v 2 20 -3.5
v 2 21 1.5
v 2 21 0.5
v 2 21 -0.5
v 2 21 -2.5
v 2 22 1.5
v 2 22 -2.5
v 3 1 -0.5
v 3 1 -1.5
v 3 2 -0.5
v 3 2 -1.5
v 3 4 0.5
v 3 4 -0.5
v 3 5 0.5
v 3 5 -0.5
v 3 7 -0.5
v 3 7 -1.5
v 3 8 -0.5
v 3 8 -1.5
v 3 11 1.5
v 3 11 0.5
v 3 12 1.5
v 3 12 0.5
v 3 14 -0.5
v 3 14 -1.5
v 3 15 -0.5
v 3 15 -1.5
v 3 20 0.5
v 3 20 -0.5
v 3 21 0.5
v 3 21 -0.5
v -2 9 2.5
v -2 10 2.5
v -2 20 2.5
v -2 21 2.5
v -1 9 2.5
v -1 10 2.5
v -1 20 2.5
v -1 21 2.5
v 0 17 2.5
v 0 18 2.5
v 1 2 2.5
v 1 3 2.5
v 1 14 2.5
v 1 15 2.5
v 1 17 2.5
v 1 18 2.5
v 2 2 2.5
v 2 3 2.5
v 2 14 2.5
v 2 15 2.5
v -2 0 1.5
v -2 2 1.5
v -2 4 1.5
v -2 5 1.5
v -2 7 1.5
v -2 8 1.5
v -2 9 1.5
v -2 10 1.5
v -2 13 1.5
v -2 15 1.5
v -2 16 1.5
v -2 17 1.5
v -2 18 1.5
v -2 19 1.5
v -2 20 1.5
v -2 21 1.5
v -2 22 1.5
v -1 9 1.5
v -1 10 1.5
v -1 20 1.5
v -1 21 1.5
v 0 17 1.5
v 0 18 1.5
v 1 2 1.5
v 1 3 1.5
v 1 14 1.5
v 1 15 1.5
v 1 17 1.5
v 1 18 1.5
v 2 0 1.5
v 2 2 1.5
v 2 3 1.5
v 2 4 1.5
v 2 5 1.5
v 2 7 1.5
v 2 8 1.5
v 2 9 1.5
v 2 11 1.5
v 2 12 1.5
v 2 13 1.5
v 2 14 1.5
v 2 15 1.5
v 2 16 1.5
v 2 17 1.5
v 2 18 1.5
v 2 19 1.5
v 2 20 1.5
v 2 21 1.5
v 2 22 1.5
v 3 11 1.5
v 3 12 1.5
v -3 1 0.5
v -3 2 0.5
v -3 6 0.5
v -3 7 0.5
v -3 11 0.5
v -3 12 0.5
v -3 15 0.5
v -3 16 0.5
v -2 1 0.5
v -2 2 0.5
v -2 6 0.5
v -2 7 0.5
v -2 11 0.5
v -2 12 0.5
v -2 15 0.5
v -2 16 0.5
v -1 22 0.5
v -1 23 0.5
v 1 22 0.5
v 1 23 0.5
v 2 4 0.5
v 2 5 0.5
v 2 20 0.5
v 2 21 0.5
v 3 4 0.5
v 3 5 0.5
v 3 20 0.5
v 3 21 0.5
v -3 18 -0.5
v -3 19 -0.5
v -2 18 -0.5
v -2 19 -0.5
v 2 1 -0.5
v 2 2 -0.5
v 2 7 -0.5
v 2 8 -0.5
v 2 14 -0.5
v 2 15 -0.5
v 3 1 -0.5
v 3 2 -0.5
v 3 7 -0.5
v 3 8 -0.5
v 3 14 -0.5
v 3 15 -0.5
v -3 7 -1.5
v -3 8 -1.5
v -2 7 -1.5
v -2 8 -1.5
v 2 11 0.5
v 2 12 0.5
v 3 11 0.5
v 3 12 0.5
v -3 1 -0.5
v -3 2 -0.5
v -3 6 -0.5
v -3 7 -0.5
v -3 11 -0.5
v -3 12 -0.5
v -3 15 -0.5
v -3 16 -0.5
v -2 1 -0.5
v -2 2 -0.5
v -2 6 -0.5
v -2 7 -0.5
v -2 11 -0.5
v -2 12 -0.5
v -2 15 -0.5
v -2 16 -0.5
v 2 4 -0.5
v 2 5 -0.5
v 2 20 -0.5
v 2 21 -0.5
v 3 4 -0.5
v 3 5 -0.5
v 3 20 -0.5
v 3 21 -0.5
v -3 18 -1.5
v -3 19 -1.5
v -2 18 -1.5
v -2 19 -1.5
v -1 22 -1.5
v -1 23 -1.5
v 1 22 -1.5
v 1 23 -1.5
v 2 1 -1.5
v 2 2 -1.5
v 2 7 -1.5
v 2 8 -1.5
v 2 14 -1.5
v 2 15 -1.5
v 3 1 -1.5
v 3 2 -1.5
v 3 7 -1.5
v 3 8 -1.5
v 3 14 -1.5
v 3 15 -1.5
v -3 7 -2.5
v -3 8 -2.5
v -2 0 -2.5
v -2 2 -2.5
v -2 4 -2.5
v -2 5 -2.5
v -2 7 -2.5
v -2 8 -2.5
v -2 9 -2.5
v -2 13 -2.5
v -2 15 -2.5
v -2 16 -2.5
v -2 17 -2.5
v -2 18 -2.5
v -2 19 -2.5
v -2 20 -2.5
v -2 21 -2.5
v -2 22 -2.5
v -1 5 -2.5
v -1 6 -2.5
v -1 15 -2.5
v -1 16 -2.5
v 0 5 -2.5
v 0 6 -2.5
v 0 15 -2.5
v 0 16 -2.5
v 1 2 -2.5
v 1 3 -2.5
v 1 10 -2.5
v 1 11 -2.5
v 1 19 -2.5
v 1 20 -2.5
v 2 0 -2.5
v 2 2 -2.5
v 2 3 -2.5
v 2 4 -2.5
v 2 5 -2.5
v 2 7 -2.5
v 2 8 -2.5
v 2 9 -2.5
v 2 10 -2.5
v 2 11 -2.5
v 2 13 -2.5
v 2 15 -2.5
v 2 16 -2.5
v 2 17 -2.5
v 2 18 -2.5
v 2 19 -2.5
v 2 20 -2.5
v 2 21 -2.5
v 2 22 -2.5
v -1 5 -3.5
v -1 6 -3.5
v -1 15 -3.5
v -1 16 -3.5
v 0 5 -3.5
v 0 6 -3.5
v 0 15 -3.5
v 0 16 -3.5
v 1 2 -3.5
v 1 3 -3.5
v 1 10 -3.5
v 1 11 -3.5
v 1 19 -3.5
v 1 20 -3.5
v 2 2 -3.5
v 2 3 -3.5
v 2 10 -3.5
v 2 11 -3.5
v 2 19 -3.5
v 2 20 -3.5
v -2 0 1.5
v 2 0 1.5
v -2 0 -2.5
v 2 0 -2.5
v -3 1 0.5
v -2 1 0.5
v -3 1 -0.5
v -2 1 -0.5
v 2 1 -0.5
v 3 1 -0.5
v 2 1 -1.5
v 3 1 -1.5
v 1 2 2.5
v 2 2 2.5
v 1 2 1.5
v 2 2 1.5
v 1 2 -2.5
v 2 2 -2.5
v 1 2 -3.5
v 2 2 -3.5
v 2 4 0.5
v 3 4 0.5
v 2 4 -0.5
v 3 4 -0.5
v -1 5 -2.5
v 0 5 -2.5
v -1 5 -3.5
v 0 5 -3.5
v -3 6 0.5
v -2 6 0.5
v -3 6 -0.5
v -2 6 -0.5
v 2 7 -0.5
v 3 7 -0.5
v -3 7 -1.5
v -2 7 -1.5
v 2 7 -1.5
v 3 7 -1.5
v -3 7 -2.5
v -2 7 -2.5
v -2 9 2.5
v -1 9 2.5
v -2 9 1.5
v -1 9 1.5
v 1 10 -2.5
v 2 10 -2.5
v 1 10 -3.5
v 2 10 -3.5
v 2 11 1.5
v 3 11 1.5
v -3 11 0.5
v -2 11 0.5
v 2 11 0.5
v 3 11 0.5
v -3 11 -0.5
v -2 11 -0.5
v 1 14 2.5
v 2 14 2.5
v 1 14 1.5
v 2 14 1.5
v 2 14 -0.5
v 3 14 -0.5
v 2 14 -1.5
v 3 14 -1.5
v -3 15 0.5
v -2 15 0.5
v -3 15 -0.5
v -2 15 -0.5
v -1 15 -2.5
v 0 15 -2.5
v -1 15 -3.5
v 0 15 -3.5
v 0 17 2.5
v 1 17 2.5
v 0 17 1.5
v 1 17 1.5
v -3 18 -0.5
v -2 18 -0.5
v -3 18 -1.5
v -2 18 -1.5
v 1 19 -2.5
v 2 19 -2.5
v 1 19 -3.5
v 2 19 -3.5
v -2 20 2.5
v -1 20 2.5
v -2 20 1.5
v -1 20 1.5
v 2 20 0.5
v 3 20 0.5
v 2 20 -0.5
v 3 20 -0.5
v -3 2 0.5
v -2 2 0.5
v -3 2 -0.5
v -2 2 -0.5
v 2 2 -0.5
v 3 2 -0.5
v 2 2 -1.5
v 3 2 -1.5
v 1 3 2.5
v 2 3 2.5
v 1 3 1.5
v 2 3 1.5
v 1 3 -2.5
v 2 3 -2.5
v 1 3 -3.5
v 2 3 -3.5
v 2 5 0.5
v 3 5 0.5
v 2 5 -0.5
v 3 5 -0.5
v -1 6 -2.5
v 0 6 -2.5
v -1 6 -3.5
v 0 6 -3.5
v -3 7 0.5
v -2 7 0.5
v -3 7 -0.5
v -2 7 -0.5
v 2 8 -0.5
v 3 8 -0.5
v -3 8 -1.5
v -2 8 -1.5
v 2 8 -1.5
v 3 8 -1.5
v -3 8 -2.5
v -2 8 -2.5
v -2 10 2.5
v -1 10 2.5
v -2 10 1.5
v -1 10 1.5
v 1 11 -2.5
v 2 11 -2.5
v 1 11 -3.5
v 2 11 -3.5
v 2 12 1.5
v 3 12 1.5
v -3 12 0.5
v -2 12 0.5
v 2 12 0.5
v 3 12 0.5
v -3 12 -0.5
v -2 12 -0.5
v 1 15 2.5
v 2 15 2.5
v 1 15 1.5
v 2 15 1.5
v 2 15 -0.5
v 3 15 -0.5
v 2 15 -1.5
v 3 15 -1.5
v -3 16 0.5
v -2 16 0.5
v -3 16 -0.5
v -2 16 -0.5
v -1 16 -2.5
v 0 16 -2.5
v -1 16 -3.5
v 0 16 -3.5
v 0 18 2.5
v 1 18 2.5
v 0 18 1.5
v 1 18 1.5
v -3 19 -0.5
v -2 19 -0.5
v -3 19 -1.5
v -2 19 -1.5
v 1 20 -2.5
v 2 20 -2.5
v 1 20 -3.5
v 2 20 -3.5
v -2 21 2.5
v -1 21 2.5
v -2 21 1.5
v -1 21 1.5
v 2 21 0.5
v 3 21 0.5
v 2 21 -0.5
v 3 21 -0.5
v -2 22 1.5
v 2 22 1.5
v -1 22 0.5
v 1 22 0.5
v -1 22 -1.5
v 1 22 -1.5
v -2 22 -2.5
v 2 22 -2.5
v -1 23 0.5
v 1 23 0.5
v -1 23 -1.5
v 1 23 -1.5

# faces
f 3/7/1 2/7/1 1/7/1
f 4/7/1 2/7/1 3/7/1
f 7/7/1 6/7/1 5/7/1
f 8/7/1 6/7/1 7/7/1
f 11/7/1 10/7/1 9/7/1
f 12/7/1 10/7/1 11/7/1
f 15/7/1 14/7/1 13/7/1
f 16/7/1 14/7/1 15/7/1
f 19/7/1 18/7/1 17/7/1
f 20/7/1 18/7/1 19/7/1
f 23/7/1 22/7/1 21/7/1
f 24/7/1 22/7/1 23/7/1
f 27/4/1 26/4/1 25/4/1
f 28/4/1 26/4/1 27/4/1
f 29/4/1 27/4/1 25/4/1
f 30/4/1 27/4/1 29/4/1
f 31/4/1 26/4/1 28/4/1
f 32/4/1 26/4/1 31/4/1
f 33/5/1 30/5/1 29/5/1
f 33/5/1 31/5/1 30/5/1
f 33/5/1 32/5/1 31/5/1
f 34/5/1 32/5/1 33/5/1
f 35/4/1 34/4/1 33/4/1
f 36/4/1 34/4/1 35/4/1
f 37/6/1 36/6/1 35/6/1
f 38/6/1 36/6/1 37/6/1
f 39/6/1 37/6/1 35/6/1
f 40/6/1 37/6/1 39/6/1
f 41/6/1 36/6/1 38/6/1
f 42/6/1 36/6/1 41/6/1
f 43/6/1 36/6/1 42/6/1
f 44/5/1 40/5/1 39/5/1
f 44/5/1 41/5/1 40/5/1
f 44/5/1 42/5/1 41/5/1
f 45/5/1 42/5/1 44/5/1
f 48/4/1 45/4/1 44/4/1
f 48/4/1 46/4/1 45/4/1
f 49/4/1 46/4/1 48/4/1
f 50/7/1 48/7/1 47/7/1
f 51/6/1 49/6/1 48/6/1
f 51/7/1 48/7/1 50/7/1
f 52/6/1 49/6/1 51/6/1
f 53/6/1 49/6/1 52/6/1
f 54/6/1 52/6/1 51/6/1
f 55/6/1 49/6/1 53/6/1
f 56/6/1 54/6/1 51/6/1
f 56/6/1 55/6/1 54/6/1
f 57/6/1 49/6/1 55/6/1
f 57/6/1 55/6/1 56/6/1
f 58/5/1 57/5/1 56/5/1
f 59/5/1 57/5/1 58/5/1
f 60/5/1 57/5/1 59/5/1
f 61/5/1 57/5/1 60/5/1
f 62/4/1 59/4/1 58/4/1
f 63/4/1 59/4/1 62/4/1
f 64/4/1 61/4/1 60/4/1
f 65/4/1 61/4/1 64/4/1
f 66/6/1 63/6/1 62/6/1
f 66/6/1 64/6/1 63/6/1
f 66/6/1 65/6/1 64/6/1
f 67/6/1 65/6/1 66/6/1
f 68/5/1 67/5/1 66/5/1
f 69/5/1 67/5/1 68/5/1
f 70/5/1 67/5/1 69/5/1
f 71/5/1 67/5/1 70/5/1
f 72/4/1 69/4/1 68/4/1
f 73/4/1 69/4/1 72/4/1
f 74/4/1 71/4/1 70/4/1
f 75/4/1 71/4/1 74/4/1
f 77/6/1 73/6/1 72/6/1
f 77/6/1 74/6/1 73/6/1
f 77/6/1 75/6/1 74/6/1
f 78/6/1 75/6/1 77/6/1
f 79/7/1 77/7/1 76/7/1
f 80/5/1 78/5/1 77/5/1
f 80/7/1 77/7/1 79/7/1
f 81/5/1 78/5/1 80/5/1
f 82/4/1 81/4/1 80/4/1
f 83/4/1 81/4/1 82/4/1
f 86/7/1 85/7/1 84/7/1
f 87/7/1 85/7/1 86/7/1
f 90/7/1 89/7/1 88/7/1
f 91/7/1 89/7/1 90/7/1
f 94/4/1 93/4/1 92/4/1
f 95/4/1 93/4/1 94/4/1
f 98/7/1 97/7/1 96/7/1
f 99/7/1 97/7/1 98/7/1
f 104/7/1 101/7/1 100/7/1
f 105/7/1 101/7/1 104/7/1
f 106/7/1 103/7/1 102/7/1
f 107/7/1 103/7/1 106/7/1
f 110/7/1 109/7/1 108/7/1
f 111/7/1 109/7/1 110/7/1
f 114/7/1 113/7/1 112/7/1
f 115/7/1 113/7/1 114/7/1
f 118/7/1 117/7/1 116/7/1
f 119/7/1 117/7/1 118/7/1
f 120/7/2 121/7/2 122/7/2
f 122/7/2 121/7/2 123/7/2
f 124/7/2 125/7/2 126/7/2
f 126/7/2 125/7/2 127/7/2
f 128/7/2 129/7/2 130/7/2
f 130/7/2 129/7/2 131/7/2
f 132/7/2 133/7/2 134/7/2
f 134/7/2 133/7/2 135/7/2
f 136/7/2 137/7/2 138/7/2
f 138/7/2 137/7/2 139/7/2
f 140/4/2 141/4/2 142/4/2
f 142/4/2 141/4/2 143/4/2
f 144/4/2 145/4/2 146/4/2
f 146/4/2 145/4/2 147/4/2
f 144/4/2 146/4/2 149/4/2
f 149/4/2 146/4/2 150/4/2
f 147/4/2 145/4/2 151/4/2
f 151/4/2 145/4/2 152/4/2
f 148/7/2 149/7/2 154/7/2
f 149/5/2 150/5/2 155/5/2
f 154/7/2 149/7/2 155/7/2
f 150/5/2 151/5/2 155/5/2
f 151/5/2 152/5/2 155/5/2
f 152/7/2 153/7/2 156/7/2
f 155/5/2 152/5/2 156/5/2
f 156/7/2 153/7/2 157/7/2
f 155/5/2 156/5/2 158/5/2
f 158/5/2 156/5/2 159/5/2
f 159/5/2 156/5/2 160/5/2
f 160/5/2 156/5/2 161/5/2
f 158/4/2 159/4/2 162/4/2
f 162/4/2 159/4/2 163/4/2
f 160/4/2 161/4/2 164/4/2
f 164/4/2 161/4/2 165/4/2
f 162/6/2 163/6/2 166/6/2
f 163/6/2 164/6/2 166/6/2
f 164/6/2 165/6/2 166/6/2
f 166/6/2 165/6/2 167/6/2
f 167/6/2 165/6/2 168/6/2
f 168/6/2 165/6/2 169/6/2
f 166/5/2 167/5/2 170/5/2
f 170/5/2 167/5/2 171/5/2
f 168/5/2 169/5/2 172/5/2
f 172/5/2 169/5/2 173/5/2
f 170/4/2 171/4/2 174/4/2
f 171/4/2 172/4/2 174/4/2
f 172/4/2 173/4/2 174/4/2
f 174/4/2 173/4/2 175/4/2
f 174/6/2 175/6/2 176/6/2
f 174/6/2 176/6/2 178/6/2
f 178/6/2 176/6/2 179/6/2
f 176/7/2 177/7/2 180/7/2
f 179/6/2 176/6/2 180/6/2
f 180/7/2 177/7/2 181/7/2
f 179/6/2 180/6/2 183/6/2
f 182/6/2 183/6/2 184/6/2
f 183/6/2 180/6/2 185/6/2
f 184/6/2 183/6/2 185/6/2
f 184/5/2 185/5/2 187/5/2
f 187/5/2 185/5/2 188/5/2
f 188/5/2 185/5/2 189/5/2
f 186/7/2 187/7/2 190/7/2
f 187/5/2 188/5/2 191/5/2
f 190/7/2 187/7/2 191/7/2
f 191/5/2 188/5/2 192/5/2
f 189/5/2 185/5/2 193/5/2
f 193/5/2 185/5/2 194/5/2
f 191/4/2 192/4/2 195/4/2
f 193/4/2 194/4/2 195/4/2
f 192/4/2 193/4/2 195/4/2
f 195/4/2 194/4/2 196/4/2
f 195/6/2 196/6/2 197/6/2
f 197/6/2 196/6/2 198/6/2
f 197/5/2 198/5/2 199/5/2
f 199/5/2 198/5/2 200/5/2
f 199/4/2 200/4/2 201/4/2
f 201/4/2 200/4/2 202/4/2
f 201/6/2 202/6/2 204/6/2
f 204/6/2 202/6/2 205/6/2
f 205/6/2 202/6/2 206/6/2
f 202/7/2 203/7/2 207/7/2
f 206/6/2 202/6/2 207/6/2
f 207/7/2 203/7/2 208/7/2
f 204/5/2 205/5/2 209/5/2
f 209/5/2 205/5/2 210/5/2
f 206/5/2 207/5/2 211/5/2
f 211/5/2 207/5/2 212/5/2
f 209/4/2 210/4/2 213/4/2
f 210/4/2 211/4/2 213/4/2
f 211/4/2 212/4/2 213/4/2
f 213/4/2 212/4/2 214/4/2
f 215/7/2 216/7/2 217/7/2
f 217/7/2 216/7/2 218/7/2
f 219/7/2 220/7/2 221/7/2
f 221/7/2 220/7/2 222/7/2
f 223/7/2 224/7/2 225/7/2
f 225/7/2 224/7/2 226/7/2
f 227/7/2 228/7/2 229/7/2
f 229/7/2 228/7/2 230/7/2
f 231/7/2 232/7/2 233/7/2
f 233/7/2 232/7/2 234/7/2
f 235/7/2 236/7/2 237/7/2
f 237/7/2 236/7/2 238/7/2
f 243/7/3 240/7/3 239/7/3
f 244/7/3 240/7/3 243/7/3
f 245/7/3 242/7/3 241/7/3
f 246/7/3 242/7/3 245/7/3
f 253/7/3 248/7/3 247/7/3
f 254/7/3 248/7/3 253/7/3
f 255/7/3 250/7/3 249/7/3
f 256/7/3 250/7/3 255/7/3
f 257/7/3 252/7/3 251/7/3
f 258/7/3 252/7/3 257/7/3
f 276/4/3 265/4/3 264/4/3
f 277/6/3 267/6/3 266/6/3
f 278/6/3 273/6/3 272/6/3
f 279/4/3 275/4/3 274/4/3
f 280/6/3 270/6/3 269/6/3
f 280/5/3 271/5/3 270/5/3
f 281/4/3 272/4/3 271/4/3
f 281/5/3 271/5/3 280/5/3
f 282/4/3 260/4/3 259/4/3
f 282/5/3 261/5/3 260/5/3
f 283/5/3 261/5/3 282/5/3
f 284/5/3 268/5/3 267/5/3
f 285/4/3 269/4/3 268/4/3
f 285/5/3 268/5/3 284/5/3
f 286/6/3 280/6/3 269/6/3
f 287/4/3 272/4/3 281/4/3
f 288/4/3 282/4/3 259/4/3
f 289/4/3 282/4/3 288/4/3
f 290/5/3 261/5/3 283/5/3
f 291/4/3 262/4/3 261/4/3
f 291/5/3 261/5/3 290/5/3
f 292/6/3 263/6/3 262/6/3
f 292/4/3 262/4/3 291/4/3
f 293/5/3 264/5/3 263/5/3
f 293/6/3 263/6/3 292/6/3
f 294/4/3 276/4/3 264/4/3
f 294/5/3 264/5/3 293/5/3
f 295/6/3 277/6/3 276/6/3
f 295/4/3 276/4/3 294/4/3
f 296/6/3 267/6/3 277/6/3
f 296/6/3 277/6/3 295/6/3
f 297/6/3 267/6/3 296/6/3
f 298/5/3 284/5/3 267/5/3
f 298/6/3 267/6/3 297/6/3
f 299/5/3 284/5/3 298/5/3
f 300/4/3 269/4/3 285/4/3
f 301/6/3 286/6/3 269/6/3
f 301/4/3 269/4/3 300/4/3
f 302/5/3 287/5/3 286/5/3
f 302/6/3 286/6/3 301/6/3
f 303/4/3 272/4/3 287/4/3
f 303/5/3 287/5/3 302/5/3
f 304/6/3 278/6/3 272/6/3
f 304/4/3 272/4/3 303/4/3
f 305/5/3 279/5/3 278/5/3
f 305/6/3 278/6/3 304/6/3
f 306/4/3 275/4/3 279/4/3
f 306/5/3 279/5/3 305/5/3
f 307/4/3 275/4/3 306/4/3
f 308/7/3 297/7/3 296/7/3
f 309/7/3 297/7/3 308/7/3
f 318/7/3 311/7/3 310/7/3
f 319/7/3 311/7/3 318/7/3
f 320/7/3 313/7/3 312/7/3
f 321/7/3 313/7/3 320/7/3
f 322/7/3 315/7/3 314/7/3
f 323/7/3 315/7/3 322/7/3
f 324/7/3 317/7/3 316/7/3
f 325/7/3 317/7/3 324/7/3
f 328/4/3 327/4/3 326/4/3
f 329/4/3 327/4/3 328/4/3
f 334/7/3 331/7/3 330/7/3
f 335/7/3 331/7/3 334/7/3
f 336/7/3 333/7/3 332/7/3
f 337/7/3 333/7/3 336/7/3
f 340/7/3 339/7/3 338/7/3
f 341/7/3 339/7/3 340/7/3
f 348/7/3 343/7/3 342/7/3
f 349/7/3 343/7/3 348/7/3
f 350/7/3 345/7/3 344/7/3
f 351/7/3 345/7/3 350/7/3
f 352/7/3 347/7/3 346/7/3
f 353/7/3 347/7/3 352/7/3
f 356/7/3 355/7/3 354/7/3
f 357/7/3 355/7/3 356/7/3
f 358/7/4 359/7/4 360/7/4
f 360/7/4 359/7/4 361/7/4
f 362/7/4 363/7/4 370/7/4
f 370/7/4 363/7/4 371/7/4
f 364/7/4 365/7/4 372/7/4
f 372/7/4 365/7/4 373/7/4
f 366/7/4 367/7/4 374/7/4
f 374/7/4 367/7/4 375/7/4
f 368/7/4 369/7/4 376/7/4
f 376/7/4 369/7/4 377/7/4
f 378/7/4 379/7/4 382/7/4
f 382/7/4 379/7/4 383/7/4
f 380/7/4 381/7/4 384/7/4
f 384/7/4 381/7/4 385/7/4
f 386/7/4 387/7/4 388/7/4
f 388/7/4 387/7/4 389/7/4
f 390/4/4 391/4/4 392/4/4
f 392/4/4 391/4/4 393/4/4
f 394/7/4 395/7/4 400/7/4
f 400/7/4 395/7/4 401/7/4
f 396/7/4 397/7/4 402/7/4
f 402/7/4 397/7/4 403/7/4
f 398/7/4 399/7/4 404/7/4
f 404/7/4 399/7/4 405/7/4
f 406/7/4 407/7/4 412/7/4
f 412/7/4 407/7/4 413/7/4
f 410/4/4 411/4/4 424/4/4
f 411/6/4 412/6/4 424/6/4
f 424/6/4 412/6/4 425/6/4
f 415/5/4 416/5/4 426/5/4
f 416/4/4 417/4/4 426/4/4
f 417/6/4 418/6/4 427/6/4
f 426/4/4 417/4/4 427/4/4
f 410/4/4 424/4/4 428/4/4
f 425/6/4 412/6/4 429/6/4
f 415/5/4 426/5/4 430/5/4
f 427/6/4 418/6/4 431/6/4
f 408/4/4 409/4/4 432/4/4
f 409/5/4 410/5/4 432/5/4
f 432/5/4 410/5/4 433/5/4
f 414/6/4 415/6/4 434/6/4
f 434/6/4 415/6/4 435/6/4
f 419/4/4 420/4/4 436/4/4
f 420/6/4 421/6/4 436/6/4
f 421/5/4 422/5/4 437/5/4
f 436/6/4 421/6/4 437/6/4
f 408/4/4 432/4/4 438/4/4
f 438/4/4 432/4/4 439/4/4
f 433/5/4 410/5/4 440/5/4
f 410/4/4 428/4/4 441/4/4
f 440/5/4 410/5/4 441/5/4
f 428/6/4 429/6/4 442/6/4
f 441/4/4 428/4/4 442/4/4
f 412/5/4 413/5/4 443/5/4
f 442/6/4 429/6/4 443/6/4
f 429/6/4 412/6/4 443/6/4
f 413/4/4 414/4/4 444/4/4
f 443/5/4 413/5/4 444/5/4
f 414/6/4 434/6/4 445/6/4
f 444/4/4 414/4/4 445/4/4
f 445/6/4 434/6/4 446/6/4
f 435/6/4 415/6/4 447/6/4
f 415/5/4 430/5/4 448/5/4
f 447/6/4 415/6/4 448/6/4
f 430/4/4 431/4/4 449/4/4
f 448/5/4 430/5/4 449/5/4
f 431/6/4 418/6/4 450/6/4
f 449/4/4 431/4/4 450/4/4
f 418/5/4 419/5/4 451/5/4
f 450/6/4 418/6/4 451/6/4
f 419/4/4 436/4/4 452/4/4
f 451/5/4 419/5/4 452/5/4
f 452/4/4 436/4/4 453/4/4
f 437/5/4 422/5/4 454/5/4
f 422/4/4 423/4/4 455/4/4
f 454/5/4 422/5/4 455/5/4
f 455/4/4 423/4/4 456/4/4
f 457/7/4 458/7/4 461/7/4
f 461/7/4 458/7/4 462/7/4
f 459/7/4 460/7/4 463/7/4
f 463/7/4 460/7/4 464/7/4
f 465/7/4 466/7/4 471/7/4
f 471/7/4 466/7/4 472/7/4
f 467/7/4 468/7/4 473/7/4
f 473/7/4 468/7/4 474/7/4
f 469/7/4 470/7/4 475/7/4
f 475/7/4 470/7/4 476/7/4
f 479/4/5 478/4/5 477/4/5
f 480/4/5 478/4/5 479/4/5
f 483/7/5 482/7/5 481/7/5
f 484/7/5 482/7/5 483/7/5
f 487/7/5 486/7/5 485/7/5
f 488/7/5 486/7/5 487/7/5
f 491/7/5 490/7/5 489/7/5
f 492/7/5 490/7/5 491/7/5
f 495/7/5 494/7/5 493/7/5
f 496/7/5 494/7/5 495/7/5
f 499/7/5 498/7/5 497/7/5
f 500/7/5 498/7/5 499/7/5
f 503/7/5 502/7/5 501/7/5
f 504/7/5 502/7/5 503/7/5
f 507/7/5 506/7/5 505/7/5
f 508/7/5 506/7/5 507/7/5
f 513/7/5 510/7/5 509/7/5
f 514/7/5 510/7/5 513/7/5
f 515/7/5 512/7/5 511/7/5
f 516/7/5 512/7/5 515/7/5
f 519/7/5 518/7/5 517/7/5
f 520/7/5 518/7/5 519/7/5
f 523/7/5 522/7/5 521/7/5
f 524/7/5 522/7/5 523/7/5
f 529/7/5 526/7/5 525/7/5
f 530/7/5 526/7/5 529/7/5
f 531/7/5 528/7/5 527/7/5
f 532/7/5 528/7/5 531/7/5
f 535/7/5 534/7/5 533/7/5
f 536/7/5 534/7/5 535/7/5
f 539/7/5 538/7/5 537/7/5
f 540/7/5 538/7/5 539/7/5
f 543/7/5 542/7/5 541/7/5
f 544/7/5 542/7/5 543/7/5
f 547/7/5 546/7/5 545/7/5
f 548/7/5 546/7/5 547/7/5
f 551/7/5 550/7/5 549/7/5
f 552/7/5 550/7/5 551/7/5
f 555/7/5 554/7/5 553/7/5
f 556/7/5 554/7/5 555/7/5
f 559/7/5 558/7/5 557/7/5
f 560/7/5 558/7/5 559/7/5
f 563/7/5 562/7/5 561/7/5
f 564/7/5 562/7/5 563/7/5
f 567/7/5 566/7/5 565/7/5
f 568/7/5 566/7/5 567/7/5
f 569/7/6 570/7/6 571/7/6
f 571/7/6 570/7/6 572/7/6
f 573/7/6 574/7/6 575/7/6
f 575/7/6 574/7/6 576/7/6
f 577/7/6 578/7/6 579/7/6
f 579/7/6 578/7/6 580/7/6
f 581/7/6 582/7/6 583/7/6
f 583/7/6 582/7/6 584/7/6
f 585/7/6 586/7/6 587/7/6
f 587/7/6 586/7/6 588/7/6
f 589/7/6 590/7/6 591/7/6
f 591/7/6 590/7/6 592/7/6
f 593/7/6 594/7/6 595/7/6
f 595/7/6 594/7/6 596/7/6
f 597/7/6 598/7/6 601/7/6
f 601/7/6 598/7/6 602/7/6
f 599/7/6 600/7/6 603/7/6
f 603/7/6 600/7/6 604/7/6
f 605/7/6 606/7/6 607/7/6
f 607/7/6 606/7/6 608/7/6
f 609/7/6 610/7/6 611/7/6
f 611/7/6 610/7/6 612/7/6
f 613/7/6 614/7/6 617/7/6
f 617/7/6 614/7/6 618/7/6
f 615/7/6 616/7/6 619/7/6
f 619/7/6 616/7/6 620/7/6
f 621/7/6 622/7/6 623/7/6
f 623/7/6 622/7/6 624/7/6
f 625/7/6 626/7/6 627/7/6
f 627/7/6 626/7/6 628/7/6
f 629/7/6 630/7/6 631/7/6
f 631/7/6 630/7/6 632/7/6
f 633/7/6 634/7/6 635/7/6
f 635/7/6 634/7/6 636/7/6
f 637/7/6 638/7/6 639/7/6
f 639/7/6 638/7/6 640/7/6
f 641/7/6 642/7/6 643/7/6
f 643/7/6 642/7/6 644/7/6
f 645/7/6 646/7/6 647/7/6
f 647/7/6 646/7/6 648/7/6
f 649/7/6 650/7/6 651/7/6
f 651/7/6 650/7/6 652/7/6
f 653/7/6 654/7/6 655/7/6
f 655/7/6 654/7/6 656/7/6
f 657/4/6 658/4/6 659/4/6
f 659/4/6 658/4/6 660/4/6
f 657/4/6 659/4/6 661/4/6
f 660/4/6 658/4/6 662/4/6
f 657/4/6 661/4/6 663/4/6
f 661/4/6 662/4/6 663/4/6
f 662/4/6 658/4/6 664/4/6
f 663/4/6 662/4/6 664/4/6
f 665/4/6 666/4/6 667/4/6
f 667/4/6 666/4/6 668/4/6
