# MagicaVoxel @ Ephtracy

# group
g SwingingNinjaCharater-4

# material
mtllib SwingingNinjaCharater-4.mtl
usemtl palette

# normals
vn -1 0 0
vn 1 0 0
vn 0 0 1
vn 0 0 -1
vn 0 -1 0
vn 0 1 0

# texcoords
vt 0.173828 0.5
vt 0.341797 0.5
vt 0.919922 0.5
vt 0.955078 0.5
vt 0.982422 0.5
vt 0.986328 0.5
vt 0.990234 0.5
vt 0.994141 0.5

# verts
v -4.5 13 -1.5
v -4.5 13 -3.5
v -4.5 14 -1.5
v -4.5 14 -3.5
v -4.5 15 -1.5
v -4.5 15 -3.5
v -3.5 11 -0.5
v -3.5 11 -1.5
v -3.5 12 -0.5
v -3.5 12 -1.5
v -3.5 12 -3.5
v -3.5 13 -1.5
v -3.5 13 -3.5
v -2.5 6 -1.5
v -2.5 6 -2.5
v -2.5 7 -1.5
v -2.5 7 -2.5
v -2.5 7 -3.5
v -2.5 8 -1.5
v -2.5 8 -3.5
v -2.5 9 -1.5
v -2.5 9 -3.5
v -2.5 10 0.5
v -2.5 10 -0.5
v -2.5 10 -1.5
v -2.5 10 -3.5
v -2.5 11 0.5
v -2.5 11 -0.5
v -2.5 11 -1.5
v -2.5 11 -3.5
v -2.5 12 -1.5
v -2.5 12 -3.5
v -2.5 16 -1.5
v -2.5 16 -4.5
v -2.5 17 -0.5
v -2.5 17 -1.5
v -2.5 17 -4.5
v -2.5 18 -0.5
v -2.5 18 -4.5
v -2.5 19 -0.5
v -2.5 19 -4.5
v -2.5 19 -5.5
v -2.5 20 -0.5
v -2.5 20 -4.5
v -2.5 20 -5.5
v -2.5 21 -0.5
v -2.5 21 -4.5
v -1.5 0 -0.5
v -1.5 0 -2.5
v -1.5 1 -0.5
v -1.5 1 -1.5
v -1.5 3 -1.5
v -1.5 3 -2.5
v -1.5 6 -1.5
v -1.5 6 -2.5
v -1.5 10 1.5
v -1.5 10 0.5
v -1.5 11 1.5
v -1.5 11 0.5
v -1.5 15 -2.5
v -1.5 15 -3.5
v -1.5 16 -0.5
v -1.5 16 -1.5
v -1.5 16 -2.5
v -1.5 16 -3.5
v -1.5 17 -0.5
v -1.5 17 -1.5
v -1.5 18 -4.5
v -1.5 18 -5.5
v -1.5 19 -4.5
v -1.5 19 -5.5
v -1.5 19 -6.5
v -1.5 20 -4.5
v -1.5 20 -5.5
v -1.5 20 -6.5
v -1.5 21 -4.5
v -1.5 21 -5.5
v -0.5 9 4.5
v -0.5 9 3.5
v -0.5 10 12.5
v -0.5 10 4.5
v -0.5 10 3.5
v -0.5 10 1.5
v -0.5 11 12.5
v -0.5 11 4.5
v -0.5 11 3.5
v -0.5 11 1.5
v -0.5 12 4.5
v -0.5 12 3.5
v -0.5 15 -1.5
v -0.5 15 -2.5
v -0.5 16 -1.5
v -0.5 16 -2.5
v -0.5 17 -4.5
v -0.5 17 -5.5
v -0.5 18 -4.5
v -0.5 18 -5.5
v 0.5 3 -1.5
v 0.5 3 -3.5
v 0.5 4 -1.5
v 0.5 4 -2.5
v 0.5 6 -2.5
v 0.5 6 -3.5
v 0.5 10 1.5
v 0.5 10 0.5
v 0.5 11 1.5
v 0.5 11 0.5
v 0.5 13 -5.5
v 0.5 13 -6.5
v 0.5 17 -5.5
v 0.5 18 -5.5
v 0.5 19 -5.5
v 0.5 19 -6.5
v 1.5 10 0.5
v 1.5 10 -0.5
v 1.5 11 0.5
v 1.5 11 -0.5
v 2.5 11 -0.5
v 2.5 11 -1.5
v 2.5 12 -0.5
v 2.5 12 -1.5
v -2.5 11 -0.5
v -2.5 11 -1.5
v -2.5 12 -0.5
v -2.5 12 -1.5
v -1.5 10 0.5
v -1.5 10 -0.5
v -1.5 11 0.5
v -1.5 11 -0.5
v -0.5 0 -0.5
v -0.5 0 -2.5
v -0.5 1 -0.5
v -0.5 1 -1.5
v -0.5 3 -1.5
v -0.5 3 -2.5
v -0.5 6 -1.5
v -0.5 6 -2.5
v -0.5 10 1.5
v -0.5 10 0.5
v -0.5 11 1.5
v -0.5 11 0.5
v 0.5 9 4.5
v 0.5 9 3.5
v 0.5 10 12.5
v 0.5 10 4.5
v 0.5 10 3.5
v 0.5 10 1.5
v 0.5 11 12.5
v 0.5 11 4.5
v 0.5 11 3.5
v 0.5 11 1.5
v 0.5 12 4.5
v 0.5 12 3.5
v 0.5 15 -1.5
v 0.5 15 -2.5
v 0.5 16 -1.5
v 0.5 16 -2.5
v 0.5 17 -4.5
v 0.5 17 -5.5
v 0.5 18 -4.5
v 0.5 18 -5.5
v 0.5 20 -4.5
v 0.5 20 -5.5
v 0.5 21 -4.5
v 0.5 21 -5.5
v 1.5 3 -1.5
v 1.5 3 -3.5
v 1.5 4 -1.5
v 1.5 4 -2.5
v 1.5 6 -2.5
v 1.5 6 -3.5
v 1.5 10 1.5
v 1.5 10 0.5
v 1.5 11 1.5
v 1.5 11 0.5
v 1.5 13 -5.5
v 1.5 13 -6.5
v 1.5 15 -2.5
v 1.5 15 -3.5
v 1.5 16 -0.5
v 1.5 16 -1.5
v 1.5 16 -2.5
v 1.5 16 -3.5
v 1.5 16 -4.5
v 1.5 17 -0.5
v 1.5 17 -1.5
v 1.5 17 -3.5
v 1.5 17 -4.5
v 1.5 18 -4.5
v 1.5 18 -5.5
v 1.5 19 -4.5
v 1.5 19 -5.5
v 1.5 20 -0.5
v 1.5 20 -1.5
v 1.5 20 -5.5
v 1.5 20 -6.5
v 1.5 21 -0.5
v 1.5 21 -1.5
v 2.5 6 -1.5
v 2.5 6 -2.5
v 2.5 7 -1.5
v 2.5 7 -2.5
v 2.5 7 -3.5
v 2.5 8 -1.5
v 2.5 8 -3.5
v 2.5 9 -1.5
v 2.5 9 -3.5
v 2.5 10 0.5
v 2.5 10 -0.5
v 2.5 10 -1.5
v 2.5 10 -3.5
v 2.5 11 0.5
v 2.5 11 -0.5
v 2.5 11 -1.5
v 2.5 11 -3.5
v 2.5 12 -1.5
v 2.5 12 -3.5
v 2.5 16 -1.5
v 2.5 16 -3.5
v 2.5 17 -0.5
v 2.5 17 -1.5
v 2.5 17 -3.5
v 2.5 17 -4.5
v 2.5 18 -0.5
v 2.5 18 -4.5
v 2.5 19 -0.5
v 2.5 19 -4.5
v 2.5 19 -5.5
v 2.5 20 -0.5
v 2.5 20 -1.5
v 2.5 20 -4.5
v 2.5 20 -5.5
v 2.5 21 -1.5
v 2.5 21 -4.5
v 3.5 11 -0.5
v 3.5 11 -1.5
v 3.5 12 -0.5
v 3.5 12 -1.5
v 3.5 12 -3.5
v 3.5 13 -1.5
v 3.5 13 -3.5
v 4.5 13 -1.5
v 4.5 13 -3.5
v 4.5 14 -1.5
v 4.5 14 -3.5
v 4.5 15 -1.5
v 4.5 15 -3.5
v -0.5 10 12.5
v -0.5 11 12.5
v 0.5 10 12.5
v 0.5 11 12.5
v -0.5 9 4.5
v -0.5 10 4.5
v -0.5 11 4.5
v -0.5 12 4.5
v 0.5 9 4.5
v 0.5 10 4.5
v 0.5 11 4.5
v 0.5 12 4.5
v -1.5 10 1.5
v -1.5 11 1.5
v -0.5 10 1.5
v -0.5 11 1.5
v 0.5 10 1.5
v 0.5 11 1.5
v 1.5 10 1.5
v 1.5 11 1.5
v -2.5 10 0.5
v -2.5 11 0.5
v -1.5 10 0.5
v -1.5 11 0.5
v 1.5 10 0.5
v 1.5 11 0.5
v 2.5 10 0.5
v 2.5 11 0.5
v -3.5 11 -0.5
v -3.5 12 -0.5
v -2.5 11 -0.5
v -2.5 12 -0.5
v -2.5 17 -0.5
v -2.5 18 -0.5
v -2.5 19 -0.5
v -2.5 20 -0.5
v -2.5 21 -0.5
v -1.5 0 -0.5
v -1.5 1 -0.5
v -1.5 16 -0.5
v -1.5 17 -0.5
v -0.5 0 -0.5
v -0.5 1 -0.5
v 1.5 16 -0.5
v 1.5 17 -0.5
v 1.5 20 -0.5
v 1.5 21 -0.5
v 2.5 11 -0.5
v 2.5 12 -0.5
v 2.5 17 -0.5
v 2.5 18 -0.5
v 2.5 19 -0.5
v 2.5 20 -0.5
v 3.5 11 -0.5
v 3.5 12 -0.5
v -4.5 13 -1.5
v -4.5 14 -1.5
v -4.5 15 -1.5
v -3.5 12 -1.5
v -3.5 13 -1.5
v -2.5 6 -1.5
v -2.5 7 -1.5
v -2.5 8 -1.5
v -2.5 9 -1.5
v -2.5 10 -1.5
v -2.5 11 -1.5
v -2.5 12 -1.5
v -2.5 16 -1.5
v -2.5 17 -1.5
v -1.5 1 -1.5
v -1.5 3 -1.5
v -1.5 6 -1.5
v -1.5 16 -1.5
v -1.5 17 -1.5
v -0.5 1 -1.5
v -0.5 3 -1.5
v -0.5 6 -1.5
v -0.5 15 -1.5
v -0.5 16 -1.5
v 0.5 3 -1.5
v 0.5 4 -1.5
v 0.5 15 -1.5
v 0.5 16 -1.5
v 1.5 3 -1.5
v 1.5 4 -1.5
v 1.5 16 -1.5
v 1.5 17 -1.5
v 1.5 20 -1.5
v 1.5 21 -1.5
v 2.5 6 -1.5
v 2.5 7 -1.5
v 2.5 8 -1.5
v 2.5 9 -1.5
v 2.5 10 -1.5
v 2.5 11 -1.5
v 2.5 12 -1.5
v 2.5 16 -1.5
v 2.5 17 -1.5
v 2.5 20 -1.5
v 2.5 21 -1.5
v 3.5 12 -1.5
v 3.5 13 -1.5
v 4.5 13 -1.5
v 4.5 14 -1.5
v 4.5 15 -1.5
v -1.5 15 -2.5
v -1.5 16 -2.5
v -0.5 15 -2.5
v -0.5 16 -2.5
v 0.5 4 -2.5
v 0.5 6 -2.5
v 0.5 15 -2.5
v 0.5 16 -2.5
v 1.5 4 -2.5
v 1.5 6 -2.5
v 1.5 15 -2.5
v 1.5 16 -2.5
v 0.5 13 -5.5
v 0.5 17 -5.5
v 0.5 18 -5.5
v 1.5 13 -5.5
v 1.5 18 -5.5
v -0.5 9 3.5
v -0.5 10 3.5
v -0.5 11 3.5
v -0.5 12 3.5
v 0.5 9 3.5
v 0.5 10 3.5
v 0.5 11 3.5
v 0.5 12 3.5
v -0.5 10 1.5
v -0.5 11 1.5
v 0.5 10 1.5
v 0.5 11 1.5
v -1.5 10 0.5
v -1.5 11 0.5
v -0.5 10 0.5
v -0.5 11 0.5
v 0.5 10 0.5
v 0.5 11 0.5
v 1.5 10 0.5
v 1.5 11 0.5
v -2.5 10 -0.5
v -2.5 11 -0.5
v -1.5 10 -0.5
v -1.5 11 -0.5
v 1.5 10 -0.5
v 1.5 11 -0.5
v 2.5 10 -0.5
v 2.5 11 -0.5
v -3.5 11 -1.5
v -3.5 12 -1.5
v -2.5 11 -1.5
v -2.5 12 -1.5
v 2.5 11 -1.5
v 2.5 12 -1.5
v 3.5 11 -1.5
v 3.5 12 -1.5
v -2.5 6 -2.5
v -2.5 7 -2.5
v -1.5 0 -2.5
v -1.5 3 -2.5
v -1.5 6 -2.5
v -0.5 0 -2.5
v -0.5 3 -2.5
v -0.5 6 -2.5
v 0.5 6 -2.5
v 1.5 6 -2.5
v 2.5 6 -2.5
v 2.5 7 -2.5
v -4.5 13 -3.5
v -4.5 14 -3.5
v -4.5 15 -3.5
v -3.5 12 -3.5
v -3.5 13 -3.5
v -2.5 7 -3.5
v -2.5 8 -3.5
v -2.5 9 -3.5
v -2.5 10 -3.5
v -2.5 11 -3.5
v -2.5 12 -3.5
v -1.5 15 -3.5
v -1.5 16 -3.5
v 0.5 3 -3.5
v 0.5 6 -3.5
v 1.5 3 -3.5
v 1.5 6 -3.5
v 1.5 15 -3.5
v 1.5 16 -3.5
v 1.5 17 -3.5
v 2.5 7 -3.5
v 2.5 8 -3.5
v 2.5 9 -3.5
v 2.5 10 -3.5
v 2.5 11 -3.5
v 2.5 12 -3.5
v 2.5 16 -3.5
v 2.5 17 -3.5
v 3.5 12 -3.5
v 3.5 13 -3.5
v 4.5 13 -3.5
v 4.5 14 -3.5
v 4.5 15 -3.5
v -2.5 16 -4.5
v -2.5 17 -4.5
v -2.5 18 -4.5
v -2.5 19 -4.5
v -2.5 20 -4.5
v -2.5 21 -4.5
v -1.5 18 -4.5
v -1.5 19 -4.5
v -1.5 20 -4.5
v -1.5 21 -4.5
v -0.5 17 -4.5
v -0.5 18 -4.5
v 0.5 17 -4.5
v 0.5 18 -4.5
v 0.5 20 -4.5
v 0.5 21 -4.5
v 1.5 16 -4.5
v 1.5 17 -4.5
v 1.5 18 -4.5
v 1.5 19 -4.5
v 1.5 20 -4.5
v 2.5 17 -4.5
v 2.5 18 -4.5
v 2.5 19 -4.5
v 2.5 20 -4.5
v 2.5 21 -4.5
v -2.5 19 -5.5
v -2.5 20 -5.5
v -1.5 18 -5.5
v -1.5 19 -5.5
v -1.5 20 -5.5
v -1.5 21 -5.5
v -0.5 17 -5.5
v -0.5 18 -5.5
v 0.5 17 -5.5
v 0.5 18 -5.5
v 0.5 19 -5.5
v 0.5 20 -5.5
v 0.5 21 -5.5
v 1.5 19 -5.5
v 1.5 20 -5.5
v 2.5 19 -5.5
v 2.5 20 -5.5
v -1.5 19 -6.5
v -1.5 20 -6.5
v 0.5 13 -6.5
v 0.5 19 -6.5
v 1.5 13 -6.5
v 1.5 20 -6.5
v -1.5 0 -0.5
v -0.5 0 -0.5
v -1.5 0 -2.5
v -0.5 0 -2.5
v 0.5 3 -1.5
v 1.5 3 -1.5
v 0.5 3 -3.5
v 1.5 3 -3.5
v -2.5 6 -1.5
v -1.5 6 -1.5
v -0.5 6 -1.5
v 2.5 6 -1.5
v -2.5 6 -2.5
v -1.5 6 -2.5
v -0.5 6 -2.5
v 0.5 6 -2.5
v 1.5 6 -2.5
v 2.5 6 -2.5
v -2.5 7 -2.5
v 2.5 7 -2.5
v -2.5 7 -3.5
v 2.5 7 -3.5
v -0.5 9 4.5
v 0.5 9 4.5
v -0.5 9 3.5
v 0.5 9 3.5
v -0.5 10 12.5
v 0.5 10 12.5
v -0.5 10 4.5
v 0.5 10 4.5
v -0.5 10 3.5
v 0.5 10 3.5
v -1.5 10 1.5
v -0.5 10 1.5
v 0.5 10 1.5
v 1.5 10 1.5
v -2.5 10 0.5
v -1.5 10 0.5
v -0.5 10 0.5
v 0.5 10 0.5
v 1.5 10 0.5
v 2.5 10 0.5
v -2.5 10 -0.5
v -1.5 10 -0.5
v 1.5 10 -0.5
v 2.5 10 -0.5
v -3.5 11 -0.5
v -2.5 11 -0.5
v 2.5 11 -0.5
v 3.5 11 -0.5
v -3.5 11 -1.5
v -2.5 11 -1.5
v 2.5 11 -1.5
v 3.5 11 -1.5
v -3.5 12 -1.5
v -2.5 12 -1.5
v 2.5 12 -1.5
v 3.5 12 -1.5
v -3.5 12 -3.5
v -2.5 12 -3.5
v 2.5 12 -3.5
v 3.5 12 -3.5
v -4.5 13 -1.5
v -3.5 13 -1.5
v 3.5 13 -1.5
v 4.5 13 -1.5
v -4.5 13 -3.5
v -3.5 13 -3.5
v 3.5 13 -3.5
v 4.5 13 -3.5
v 0.5 13 -5.5
v 1.5 13 -5.5
v 0.5 13 -6.5
v 1.5 13 -6.5
v -1.5 16 -0.5
v 1.5 16 -0.5
v -2.5 16 -1.5
v -1.5 16 -1.5
v -0.5 16 -1.5
v 0.5 16 -1.5
v 1.5 16 -1.5
v 2.5 16 -1.5
v -1.5 16 -2.5
v -0.5 16 -2.5
v 0.5 16 -2.5
v 1.5 16 -2.5
v -1.5 16 -3.5
v 1.5 16 -3.5
v 2.5 16 -3.5
v -2.5 16 -4.5
v 1.5 16 -4.5
v -2.5 17 -0.5
v -1.5 17 -0.5
v 1.5 17 -0.5
v 2.5 17 -0.5
v -2.5 17 -1.5
v -1.5 17 -1.5
v 1.5 17 -1.5
v 2.5 17 -1.5
v 1.5 17 -3.5
v 2.5 17 -3.5
v -0.5 17 -4.5
v 0.5 17 -4.5
v 1.5 17 -4.5
v 2.5 17 -4.5
v -0.5 17 -5.5
v 0.5 17 -5.5
v -1.5 18 -4.5
v -0.5 18 -4.5
v 0.5 18 -4.5
v 1.5 18 -4.5
v -1.5 18 -5.5
v -0.5 18 -5.5
v 0.5 18 -5.5
v 1.5 18 -5.5
v -2.5 19 -4.5
v -1.5 19 -4.5
v 1.5 19 -4.5
v 2.5 19 -4.5
v -2.5 19 -5.5
v -1.5 19 -5.5
v 0.5 19 -5.5
v 1.5 19 -5.5
v 2.5 19 -5.5
v -1.5 19 -6.5
v 0.5 19 -6.5
v -1.5 1 -0.5
v -0.5 1 -0.5
v -1.5 1 -1.5
v -0.5 1 -1.5
v 0.5 4 -1.5
v 1.5 4 -1.5
v 0.5 4 -2.5
v 1.5 4 -2.5
v 0.5 6 -2.5
v 1.5 6 -2.5
v 0.5 6 -3.5
v 1.5 6 -3.5
v -0.5 11 12.5
v 0.5 11 12.5
v -0.5 11 4.5
v 0.5 11 4.5
v -0.5 11 3.5
v 0.5 11 3.5
v -1.5 11 1.5
v -0.5 11 1.5
v 0.5 11 1.5
v 1.5 11 1.5
v -2.5 11 0.5
v -1.5 11 0.5
v -0.5 11 0.5
v 0.5 11 0.5
v 1.5 11 0.5
v 2.5 11 0.5
v -2.5 11 -0.5
v -1.5 11 -0.5
v 1.5 11 -0.5
v 2.5 11 -0.5
v -0.5 12 4.5
v 0.5 12 4.5
v -0.5 12 3.5
v 0.5 12 3.5
v -3.5 12 -0.5
v -2.5 12 -0.5
v 2.5 12 -0.5
v 3.5 12 -0.5
v -3.5 12 -1.5
v -2.5 12 -1.5
v 2.5 12 -1.5
v 3.5 12 -1.5
v -4.5 15 -1.5
v -0.5 15 -1.5
v 0.5 15 -1.5
v 4.5 15 -1.5
v -1.5 15 -2.5
v -0.5 15 -2.5
v 0.5 15 -2.5
v 1.5 15 -2.5
v -4.5 15 -3.5
v -1.5 15 -3.5
v 1.5 15 -3.5
v 4.5 15 -3.5
v 1.5 20 -0.5
v 2.5 20 -0.5
v 1.5 20 -1.5
v 2.5 20 -1.5
v -2.5 20 -4.5
v -1.5 20 -4.5
v 0.5 20 -4.5
v 1.5 20 -4.5
v 2.5 20 -4.5
v -2.5 20 -5.5
v -1.5 20 -5.5
v 0.5 20 -5.5
v 1.5 20 -5.5
v 2.5 20 -5.5
v -1.5 20 -6.5
v 1.5 20 -6.5
v -2.5 21 -0.5
v 1.5 21 -0.5
v 1.5 21 -1.5
v 2.5 21 -1.5
v -2.5 21 -4.5
v -1.5 21 -4.5
v 0.5 21 -4.5
v 2.5 21 -4.5
v -1.5 21 -5.5
v 0.5 21 -5.5

# faces
f 3/5/1 2/5/1 1/5/1
f 4/5/1 2/5/1 3/5/1
f 5/8/1 4/8/1 3/8/1
f 6/8/1 4/8/1 5/8/1
f 9/5/1 8/5/1 7/5/1
f 10/5/1 8/5/1 9/5/1
f 12/8/1 11/8/1 10/8/1
f 13/8/1 11/8/1 12/8/1
f 16/8/1 15/8/1 14/8/1
f 17/8/1 15/8/1 16/8/1
f 19/5/1 17/5/1 16/5/1
f 19/5/1 18/5/1 17/5/1
f 20/5/1 18/5/1 19/5/1
f 21/8/1 20/8/1 19/8/1
f 22/8/1 20/8/1 21/8/1
f 25/5/1 22/5/1 21/5/1
f 26/5/1 22/5/1 25/5/1
f 27/8/1 24/8/1 23/8/1
f 28/8/1 24/8/1 27/8/1
f 29/8/1 26/8/1 25/8/1
f 30/8/1 26/8/1 29/8/1
f 31/5/1 30/5/1 29/5/1
f 32/5/1 30/5/1 31/5/1
f 36/8/1 34/8/1 33/8/1
f 37/8/1 34/8/1 36/8/1
f 38/5/1 36/5/1 35/5/1
f 38/5/1 37/5/1 36/5/1
f 39/5/1 37/5/1 38/5/1
f 40/8/1 39/8/1 38/8/1
f 41/8/1 39/8/1 40/8/1
f 43/1/1 41/1/1 40/1/1
f 43/1/1 42/1/1 41/1/1
f 44/1/1 42/1/1 43/1/1
f 45/1/1 42/1/1 44/1/1
f 46/8/1 44/8/1 43/8/1
f 47/8/1 44/8/1 46/8/1
f 50/4/1 49/4/1 48/4/1
f 51/4/1 49/4/1 50/4/1
f 52/4/1 49/4/1 51/4/1
f 53/4/1 49/4/1 52/4/1
f 54/2/1 53/2/1 52/2/1
f 55/2/1 53/2/1 54/2/1
f 58/5/1 57/5/1 56/5/1
f 59/5/1 57/5/1 58/5/1
f 64/5/1 61/5/1 60/5/1
f 65/5/1 61/5/1 64/5/1
f 66/8/1 63/8/1 62/8/1
f 67/8/1 63/8/1 66/8/1
f 70/8/1 69/8/1 68/8/1
f 71/8/1 69/8/1 70/8/1
f 74/1/1 72/1/1 71/1/1
f 75/1/1 72/1/1 74/1/1
f 76/8/1 74/8/1 73/8/1
f 77/8/1 74/8/1 76/8/1
f 81/7/1 79/7/1 78/7/1
f 82/7/1 79/7/1 81/7/1
f 84/3/1 81/3/1 80/3/1
f 85/7/1 82/7/1 81/7/1
f 85/3/1 81/3/1 84/3/1
f 86/6/1 83/6/1 82/6/1
f 86/7/1 82/7/1 85/7/1
f 87/6/1 83/6/1 86/6/1
f 88/7/1 86/7/1 85/7/1
f 89/7/1 86/7/1 88/7/1
f 92/5/1 91/5/1 90/5/1
f 93/5/1 91/5/1 92/5/1
f 96/5/1 95/5/1 94/5/1
f 97/5/1 95/5/1 96/5/1
f 100/4/1 99/4/1 98/4/1
f 101/4/1 99/4/1 100/4/1
f 102/4/1 99/4/1 101/4/1
f 103/4/1 99/4/1 102/4/1
f 106/5/1 105/5/1 104/5/1
f 107/5/1 105/5/1 106/5/1
f 110/1/1 109/1/1 108/1/1
f 111/1/1 109/1/1 110/1/1
f 112/1/1 109/1/1 111/1/1
f 113/1/1 109/1/1 112/1/1
f 116/8/1 115/8/1 114/8/1
f 117/8/1 115/8/1 116/8/1
f 120/5/1 119/5/1 118/5/1
f 121/5/1 119/5/1 120/5/1
f 122/5/2 123/5/2 124/5/2
f 124/5/2 123/5/2 125/5/2
f 126/8/2 127/8/2 128/8/2
f 128/8/2 127/8/2 129/8/2
f 130/4/2 131/4/2 132/4/2
f 132/4/2 131/4/2 133/4/2
f 133/4/2 131/4/2 134/4/2
f 134/4/2 131/4/2 135/4/2
f 134/2/2 135/2/2 136/2/2
f 136/2/2 135/2/2 137/2/2
f 138/5/2 139/5/2 140/5/2
f 140/5/2 139/5/2 141/5/2
f 142/7/2 143/7/2 145/7/2
f 145/7/2 143/7/2 146/7/2
f 144/3/2 145/3/2 148/3/2
f 145/7/2 146/7/2 149/7/2
f 148/3/2 145/3/2 149/3/2
f 146/6/2 147/6/2 150/6/2
f 149/7/2 146/7/2 150/7/2
f 150/6/2 147/6/2 151/6/2
f 149/7/2 150/7/2 152/7/2
f 152/7/2 150/7/2 153/7/2
f 154/5/2 155/5/2 156/5/2
f 156/5/2 155/5/2 157/5/2
f 158/5/2 159/5/2 160/5/2
f 160/5/2 159/5/2 161/5/2
f 162/8/2 163/8/2 164/8/2
f 164/8/2 163/8/2 165/8/2
f 166/4/2 167/4/2 168/4/2
f 168/4/2 167/4/2 169/4/2
f 169/4/2 167/4/2 170/4/2
f 170/4/2 167/4/2 171/4/2
f 172/5/2 173/5/2 174/5/2
f 174/5/2 173/5/2 175/5/2
f 178/5/2 179/5/2 182/5/2
f 182/5/2 179/5/2 183/5/2
f 180/8/2 181/8/2 185/8/2
f 185/8/2 181/8/2 186/8/2
f 183/8/2 184/8/2 187/8/2
f 187/8/2 184/8/2 188/8/2
f 176/1/2 177/1/2 190/1/2
f 189/8/2 190/8/2 191/8/2
f 190/1/2 177/1/2 192/1/2
f 191/8/2 190/8/2 192/8/2
f 192/1/2 177/1/2 195/1/2
f 195/1/2 177/1/2 196/1/2
f 193/8/2 194/8/2 197/8/2
f 197/8/2 194/8/2 198/8/2
f 199/8/2 200/8/2 201/8/2
f 201/8/2 200/8/2 202/8/2
f 201/5/2 202/5/2 204/5/2
f 202/5/2 203/5/2 204/5/2
f 204/5/2 203/5/2 205/5/2
f 204/8/2 205/8/2 206/8/2
f 206/8/2 205/8/2 207/8/2
f 206/5/2 207/5/2 210/5/2
f 210/5/2 207/5/2 211/5/2
f 208/8/2 209/8/2 212/8/2
f 212/8/2 209/8/2 213/8/2
f 210/8/2 211/8/2 214/8/2
f 214/8/2 211/8/2 215/8/2
f 214/5/2 215/5/2 216/5/2
f 216/5/2 215/5/2 217/5/2
f 218/8/2 219/8/2 221/8/2
f 221/8/2 219/8/2 222/8/2
f 221/5/2 222/5/2 224/5/2
f 222/5/2 223/5/2 224/5/2
f 220/5/2 221/5/2 224/5/2
f 224/5/2 223/5/2 225/5/2
f 224/8/2 225/8/2 226/8/2
f 226/8/2 225/8/2 227/8/2
f 226/1/2 227/1/2 229/1/2
f 227/1/2 228/1/2 229/1/2
f 229/1/2 228/1/2 230/1/2
f 230/1/2 228/1/2 231/1/2
f 231/1/2 228/1/2 232/1/2
f 230/8/2 231/8/2 233/8/2
f 233/8/2 231/8/2 234/8/2
f 235/5/2 236/5/2 237/5/2
f 237/5/2 236/5/2 238/5/2
f 238/8/2 239/8/2 240/8/2
f 240/8/2 239/8/2 241/8/2
f 242/5/2 243/5/2 244/5/2
f 244/5/2 243/5/2 245/5/2
f 244/8/2 245/8/2 246/8/2
f 246/8/2 245/8/2 247/8/2
f 250/3/3 249/3/3 248/3/3
f 251/3/3 249/3/3 250/3/3
f 256/7/3 253/7/3 252/7/3
f 257/7/3 253/7/3 256/7/3
f 258/7/3 255/7/3 254/7/3
f 259/7/3 255/7/3 258/7/3
f 262/5/3 261/5/3 260/5/3
f 263/5/3 261/5/3 262/5/3
f 266/5/3 265/5/3 264/5/3
f 267/5/3 265/5/3 266/5/3
f 270/8/3 269/8/3 268/8/3
f 271/8/3 269/8/3 270/8/3
f 274/8/3 273/8/3 272/8/3
f 275/8/3 273/8/3 274/8/3
f 278/5/3 277/5/3 276/5/3
f 279/5/3 277/5/3 278/5/3
f 288/5/3 281/5/3 280/5/3
f 289/4/3 286/4/3 285/4/3
f 290/4/3 286/4/3 289/4/3
f 291/8/3 288/8/3 287/8/3
f 292/5/3 281/5/3 288/5/3
f 292/8/3 288/8/3 291/8/3
f 293/8/3 284/8/3 283/8/3
f 293/1/3 283/1/3 282/1/3
f 294/8/3 284/8/3 293/8/3
f 297/5/3 281/5/3 292/5/3
f 298/8/3 282/8/3 281/8/3
f 298/5/3 281/5/3 297/5/3
f 299/1/3 293/1/3 282/1/3
f 299/8/3 282/8/3 298/8/3
f 300/1/3 293/1/3 299/1/3
f 301/5/3 296/5/3 295/5/3
f 302/5/3 296/5/3 301/5/3
f 307/5/3 304/5/3 303/5/3
f 314/8/3 307/8/3 306/8/3
f 319/8/3 309/8/3 308/8/3
f 320/8/3 316/8/3 315/8/3
f 321/8/3 316/8/3 320/8/3
f 322/4/3 318/4/3 317/4/3
f 323/2/3 319/2/3 318/2/3
f 323/4/3 318/4/3 322/4/3
f 324/8/3 309/8/3 319/8/3
f 324/2/3 319/2/3 323/2/3
f 325/8/3 305/8/3 304/8/3
f 329/5/3 326/5/3 325/5/3
f 329/8/3 325/8/3 304/8/3
f 330/5/3 326/5/3 329/5/3
f 331/4/3 328/4/3 327/4/3
f 332/4/3 328/4/3 331/4/3
f 337/8/3 309/8/3 324/8/3
f 338/5/3 310/5/3 309/5/3
f 338/8/3 309/8/3 337/8/3
f 339/8/3 311/8/3 310/8/3
f 339/5/3 310/5/3 338/5/3
f 340/5/3 312/5/3 311/5/3
f 340/8/3 311/8/3 339/8/3
f 341/8/3 313/8/3 312/8/3
f 341/5/3 312/5/3 340/5/3
f 342/5/3 314/5/3 313/5/3
f 342/8/3 313/8/3 341/8/3
f 343/8/3 307/8/3 314/8/3
f 343/5/3 314/5/3 342/5/3
f 344/8/3 334/8/3 333/8/3
f 345/8/3 334/8/3 344/8/3
f 346/8/3 336/8/3 335/8/3
f 347/8/3 336/8/3 346/8/3
f 348/8/3 307/8/3 343/8/3
f 349/5/3 304/5/3 307/5/3
f 349/8/3 307/8/3 348/8/3
f 350/5/3 304/5/3 349/5/3
f 351/8/3 329/8/3 304/8/3
f 351/5/3 304/5/3 350/5/3
f 352/8/3 329/8/3 351/8/3
f 355/5/3 354/5/3 353/5/3
f 356/5/3 354/5/3 355/5/3
f 361/4/3 358/4/3 357/4/3
f 362/4/3 358/4/3 361/4/3
f 363/5/3 360/5/3 359/5/3
f 364/5/3 360/5/3 363/5/3
f 368/1/3 366/1/3 365/1/3
f 368/1/3 367/1/3 366/1/3
f 369/1/3 367/1/3 368/1/3
f 370/7/4 371/7/4 374/7/4
f 374/7/4 371/7/4 375/7/4
f 372/7/4 373/7/4 376/7/4
f 376/7/4 373/7/4 377/7/4
f 378/6/4 379/6/4 380/6/4
f 380/6/4 379/6/4 381/6/4
f 382/5/4 383/5/4 384/5/4
f 384/5/4 383/5/4 385/5/4
f 386/5/4 387/5/4 388/5/4
f 388/5/4 387/5/4 389/5/4
f 390/8/4 391/8/4 392/8/4
f 392/8/4 391/8/4 393/8/4
f 394/8/4 395/8/4 396/8/4
f 396/8/4 395/8/4 397/8/4
f 398/5/4 399/5/4 400/5/4
f 400/5/4 399/5/4 401/5/4
f 402/5/4 403/5/4 404/5/4
f 404/5/4 403/5/4 405/5/4
f 406/8/4 407/8/4 410/8/4
f 408/4/4 409/4/4 411/4/4
f 409/2/4 410/2/4 412/2/4
f 411/4/4 409/4/4 412/4/4
f 410/8/4 407/8/4 413/8/4
f 412/2/4 410/2/4 413/2/4
f 413/8/4 407/8/4 414/8/4
f 414/8/4 407/8/4 415/8/4
f 415/8/4 407/8/4 416/8/4
f 416/8/4 407/8/4 417/8/4
f 418/5/4 419/5/4 422/5/4
f 421/8/4 422/8/4 428/8/4
f 419/8/4 420/8/4 429/8/4
f 431/4/4 432/4/4 433/4/4
f 433/4/4 432/4/4 434/4/4
f 419/8/4 429/8/4 435/8/4
f 429/5/4 430/5/4 435/5/4
f 435/5/4 430/5/4 436/5/4
f 423/5/4 424/5/4 438/5/4
f 424/8/4 425/8/4 439/8/4
f 438/5/4 424/5/4 439/5/4
f 425/5/4 426/5/4 440/5/4
f 439/8/4 425/8/4 440/8/4
f 426/8/4 427/8/4 441/8/4
f 440/5/4 426/5/4 441/5/4
f 427/5/4 428/5/4 442/5/4
f 441/8/4 427/8/4 442/8/4
f 428/8/4 422/8/4 443/8/4
f 442/5/4 428/5/4 443/5/4
f 436/8/4 437/8/4 444/8/4
f 444/8/4 437/8/4 445/8/4
f 443/8/4 422/8/4 446/8/4
f 422/5/4 419/5/4 447/5/4
f 446/8/4 422/8/4 447/8/4
f 447/5/4 419/5/4 448/5/4
f 419/8/4 435/8/4 449/8/4
f 448/5/4 419/5/4 449/5/4
f 449/8/4 435/8/4 450/8/4
f 452/5/4 453/5/4 457/5/4
f 453/8/4 454/8/4 457/8/4
f 457/8/4 454/8/4 458/8/4
f 455/8/4 456/8/4 459/8/4
f 459/8/4 456/8/4 460/8/4
f 451/8/4 452/8/4 461/8/4
f 452/5/4 457/5/4 461/5/4
f 461/5/4 457/5/4 462/5/4
f 451/8/4 461/8/4 463/8/4
f 451/8/4 463/8/4 467/8/4
f 463/5/4 464/5/4 468/5/4
f 467/8/4 463/8/4 468/8/4
f 468/5/4 464/5/4 469/5/4
f 465/8/4 466/8/4 471/8/4
f 468/5/4 469/5/4 472/5/4
f 469/8/4 470/8/4 473/8/4
f 472/5/4 469/5/4 473/5/4
f 473/8/4 470/8/4 474/8/4
f 471/8/4 466/8/4 475/8/4
f 475/8/4 466/8/4 476/8/4
f 477/1/4 478/1/4 480/1/4
f 480/1/4 478/1/4 481/1/4
f 479/8/4 480/8/4 484/8/4
f 483/5/4 484/5/4 485/5/4
f 484/8/4 480/8/4 486/8/4
f 485/5/4 484/5/4 486/5/4
f 486/8/4 480/8/4 487/8/4
f 481/8/4 482/8/4 488/8/4
f 488/8/4 482/8/4 489/8/4
f 490/1/4 491/1/4 492/1/4
f 492/1/4 491/1/4 493/1/4
f 494/1/4 495/1/4 497/1/4
f 496/1/4 497/1/4 498/1/4
f 497/1/4 495/1/4 499/1/4
f 498/1/4 497/1/4 499/1/4
f 502/4/5 501/4/5 500/4/5
f 503/4/5 501/4/5 502/4/5
f 506/4/5 505/4/5 504/4/5
f 507/4/5 505/4/5 506/4/5
f 512/8/5 509/8/5 508/8/5
f 513/8/5 509/8/5 512/8/5
f 514/8/5 511/8/5 510/8/5
f 515/8/5 511/8/5 514/8/5
f 516/8/5 511/8/5 515/8/5
f 517/8/5 511/8/5 516/8/5
f 520/5/5 519/5/5 518/5/5
f 521/5/5 519/5/5 520/5/5
f 524/7/5 523/7/5 522/7/5
f 525/7/5 523/7/5 524/7/5
f 528/3/5 527/3/5 526/3/5
f 529/3/5 527/3/5 528/3/5
f 533/6/5 531/6/5 530/6/5
f 534/6/5 531/6/5 533/6/5
f 537/5/5 533/5/5 532/5/5
f 538/5/5 533/5/5 537/5/5
f 539/5/5 535/5/5 534/5/5
f 540/5/5 535/5/5 539/5/5
f 542/8/5 537/8/5 536/8/5
f 543/8/5 537/8/5 542/8/5
f 544/8/5 541/8/5 540/8/5
f 545/8/5 541/8/5 544/8/5
f 550/5/5 547/5/5 546/5/5
f 551/5/5 547/5/5 550/5/5
f 552/5/5 549/5/5 548/5/5
f 553/5/5 549/5/5 552/5/5
f 558/8/5 555/8/5 554/8/5
f 559/8/5 555/8/5 558/8/5
f 560/8/5 557/8/5 556/8/5
f 561/8/5 557/8/5 560/8/5
f 566/5/5 563/5/5 562/5/5
f 567/5/5 563/5/5 566/5/5
f 568/5/5 565/5/5 564/5/5
f 569/5/5 565/5/5 568/5/5
f 572/1/5 571/1/5 570/1/5
f 573/1/5 571/1/5 572/1/5
f 577/8/5 575/8/5 574/8/5
f 578/8/5 575/8/5 577/8/5
f 579/8/5 575/8/5 578/8/5
f 580/8/5 575/8/5 579/8/5
f 582/8/5 577/8/5 576/8/5
f 582/8/5 578/8/5 577/8/5
f 583/8/5 578/8/5 582/8/5
f 584/8/5 581/8/5 580/8/5
f 584/8/5 580/8/5 579/8/5
f 585/8/5 581/8/5 584/8/5
f 586/8/5 582/8/5 576/8/5
f 587/8/5 581/8/5 585/8/5
f 588/8/5 581/8/5 587/8/5
f 589/8/5 586/8/5 576/8/5
f 589/8/5 587/8/5 586/8/5
f 590/8/5 587/8/5 589/8/5
f 595/5/5 592/5/5 591/5/5
f 596/5/5 592/5/5 595/5/5
f 597/5/5 594/5/5 593/5/5
f 598/5/5 594/5/5 597/5/5
f 603/5/5 600/5/5 599/5/5
f 604/5/5 600/5/5 603/5/5
f 605/5/5 602/5/5 601/5/5
f 606/5/5 602/5/5 605/5/5
f 611/8/5 608/8/5 607/8/5
f 612/8/5 608/8/5 611/8/5
f 613/8/5 610/8/5 609/8/5
f 614/8/5 610/8/5 613/8/5
f 619/1/5 616/1/5 615/1/5
f 620/1/5 616/1/5 619/1/5
f 622/1/5 618/1/5 617/1/5
f 623/1/5 618/1/5 622/1/5
f 624/1/5 621/1/5 620/1/5
f 625/1/5 621/1/5 624/1/5
f 626/4/6 627/4/6 628/4/6
f 628/4/6 627/4/6 629/4/6
f 630/4/6 631/4/6 632/4/6
f 632/4/6 631/4/6 633/4/6
f 634/4/6 635/4/6 636/4/6
f 636/4/6 635/4/6 637/4/6
f 638/3/6 639/3/6 640/3/6
f 640/3/6 639/3/6 641/3/6
f 642/6/6 643/6/6 645/6/6
f 645/6/6 643/6/6 646/6/6
f 644/5/6 645/5/6 649/5/6
f 649/5/6 645/5/6 650/5/6
f 646/5/6 647/5/6 651/5/6
f 651/5/6 647/5/6 652/5/6
f 648/8/6 649/8/6 654/8/6
f 654/8/6 649/8/6 655/8/6
f 652/8/6 653/8/6 656/8/6
f 656/8/6 653/8/6 657/8/6
f 658/7/6 659/7/6 660/7/6
f 660/7/6 659/7/6 661/7/6
f 662/5/6 663/5/6 666/5/6
f 666/5/6 663/5/6 667/5/6
f 664/5/6 665/5/6 668/5/6
f 668/5/6 665/5/6 669/5/6
f 670/8/6 671/8/6 674/8/6
f 674/8/6 671/8/6 675/8/6
f 672/8/6 673/8/6 676/8/6
f 676/8/6 673/8/6 677/8/6
f 670/8/6 674/8/6 678/8/6
f 678/8/6 674/8/6 679/8/6
f 677/8/6 673/8/6 680/8/6
f 680/8/6 673/8/6 681/8/6
f 682/1/6 683/1/6 684/1/6
f 684/1/6 683/1/6 685/1/6
f 686/1/6 687/1/6 691/1/6
f 691/1/6 687/1/6 692/1/6
f 688/5/6 689/5/6 693/5/6
f 689/1/6 690/1/6 694/1/6
f 693/5/6 689/5/6 694/5/6
f 694/1/6 690/1/6 695/1/6
f 692/1/6 693/1/6 696/1/6
f 693/1/6 694/1/6 696/1/6
f 696/1/6 694/1/6 697/1/6
f 698/8/6 699/8/6 700/8/6
f 698/8/6 700/8/6 702/8/6
f 700/8/6 701/8/6 702/8/6
f 702/8/6 701/8/6 703/8/6
f 703/8/6 701/8/6 704/8/6
f 704/8/6 701/8/6 705/8/6
f 703/8/6 704/8/6 706/8/6
f 706/8/6 704/8/6 707/8/6
